M48
; DRILL file {KiCad (5.1.2-1)-1} date Friday, 12 July 2019 at 12:11:09
; FORMAT={-:-/ absolute / metric / decimal}
; #@! TF.CreationDate,2019-07-12T12:11:09+02:00
; #@! TF.GenerationSoftware,Kicad,Pcbnew,(5.1.2-1)-1
; #@! TF.FileFunction,Plated,1,2,PTH
FMAT,2
METRIC
T1C0.400
T2C0.800
T3C1.016
T4C1.100
T5C3.200
%
G90
G05
T1
X82.804Y-83.058
X84.836Y-125.476
X92.964Y-99.568
X93.98Y-125.476
X94.996Y-98.552
X96.012Y-97.79
X98.298Y-98.298
X98.552Y-102.616
X99.111Y-99.873
X100.584Y-70.358
X105.156Y-97.536
X105.156Y-100.076
X105.156Y-102.108
X106.68Y-79.248
X106.68Y-93.98
X107.696Y-88.9
X109.22Y-114.3
X110.236Y-72.136
X111.76Y-98.552
X112.776Y-102.108
X113.284Y-117.856
X119.38Y-118.364
X121.92Y-106.172
X124.46Y-90.932
X124.46Y-93.472
X124.968Y-110.744
X125.984Y-64.008
X127.0Y-125.984
X127.508Y-105.156
X128.524Y-110.744
X129.54Y-103.632
X129.54Y-106.172
X131.572Y-72.136
X134.62Y-97.536
X136.398Y-125.984
X140.208Y-89.916
X142.748Y-94.793
X143.256Y-90.932
X144.272Y-98.044
X145.542Y-93.472
X145.796Y-101.6
X147.574Y-74.676
X147.574Y-77.216
X149.86Y-102.108
X159.512Y-87.884
X168.656Y-87.884
T2
X101.6Y-74.473
X101.6Y-77.013
X101.6Y-79.553
X101.6Y-82.093
X101.6Y-84.633
X101.6Y-87.173
X101.6Y-89.713
X101.6Y-92.253
X101.6Y-94.793
X101.6Y-97.333
X101.6Y-99.873
X101.6Y-102.413
X101.6Y-104.953
X101.6Y-107.493
X101.6Y-110.033
X101.6Y-112.573
X132.08Y-74.473
X132.08Y-77.013
X132.08Y-79.553
X132.08Y-82.093
X132.08Y-84.633
X132.08Y-87.173
X132.08Y-89.713
X132.08Y-92.253
X132.08Y-94.793
X132.08Y-97.333
X132.08Y-99.873
X132.08Y-102.413
X132.08Y-104.953
X132.08Y-107.493
X132.08Y-110.033
X132.08Y-112.573
X114.3Y-56.007
X114.3Y-58.507
X123.19Y-56.007
X123.19Y-58.507
T3
X162.306Y-74.676
X162.306Y-77.216
X162.306Y-79.756
X162.306Y-82.296
X163.322Y-97.536
X163.322Y-100.076
X163.322Y-102.616
X163.322Y-105.156
X80.01Y-104.648
X80.01Y-107.188
X80.01Y-109.728
X80.01Y-112.268
X90.932Y-56.007
X90.932Y-58.547
X114.3Y-123.19
X114.3Y-125.73
X116.84Y-123.19
X116.84Y-125.73
X119.38Y-123.19
X119.38Y-125.73
X86.868Y-108.204
X86.868Y-110.744
X86.868Y-113.284
X79.375Y-74.549
X79.375Y-77.089
X79.375Y-79.629
X79.375Y-82.169
X79.375Y-84.709
X79.375Y-87.249
X154.178Y-74.676
X154.178Y-77.216
X154.178Y-79.756
X91.948Y-108.204
X91.948Y-110.744
X91.948Y-113.284
X165.862Y-74.676
X165.862Y-77.216
X165.862Y-79.756
X165.862Y-82.296
X79.502Y-92.202
X82.042Y-92.202
X130.556Y-55.88
X130.556Y-58.42
X152.4Y-57.404
X154.94Y-57.404
X157.48Y-57.404
X160.02Y-57.404
X140.716Y-72.009
X140.716Y-74.549
X140.716Y-77.089
X140.716Y-79.629
X140.716Y-82.169
X140.716Y-84.709
X140.716Y-87.249
X152.4Y-91.948
X152.4Y-94.488
X152.4Y-97.028
X152.4Y-99.568
X152.4Y-102.108
X86.868Y-118.364
X89.408Y-118.364
X91.948Y-118.364
X157.734Y-74.676
X157.734Y-77.216
X157.734Y-79.756
X142.24Y-108.204
X142.24Y-110.744
X142.24Y-113.284
X142.24Y-115.824
X142.24Y-118.364
X142.24Y-120.904
X142.24Y-123.444
X142.24Y-125.984
X92.964Y-77.089
X92.964Y-79.629
X92.964Y-82.169
X92.964Y-84.709
X92.964Y-87.249
X92.964Y-89.789
X92.964Y-92.329
X92.964Y-94.869
T4
X89.385Y-65.985
X89.385Y-70.485
X95.885Y-65.985
X95.885Y-70.485
T5
X81.788Y-128.27
X167.894Y-57.404
X167.894Y-128.27
X81.788Y-57.404
T0
M30
