G04 #@! TF.GenerationSoftware,KiCad,Pcbnew,(5.1.2-1)-1*
G04 #@! TF.CreationDate,2019-07-12T12:11:03+02:00*
G04 #@! TF.ProjectId,ATMEGA328PB Proto Board,41544d45-4741-4333-9238-50422050726f,rev?*
G04 #@! TF.SameCoordinates,Original*
G04 #@! TF.FileFunction,Soldermask,Top*
G04 #@! TF.FilePolarity,Negative*
%FSLAX46Y46*%
G04 Gerber Fmt 4.6, Leading zero omitted, Abs format (unit mm)*
G04 Created by KiCad (PCBNEW (5.1.2-1)-1) date 2019-07-12 12:11:03*
%MOMM*%
%LPD*%
G04 APERTURE LIST*
%ADD10C,0.100000*%
G04 APERTURE END LIST*
D10*
G36*
X168638098Y-125817033D02*
G01*
X169087063Y-126003000D01*
X169102352Y-126009333D01*
X169520168Y-126288509D01*
X169875491Y-126643832D01*
X170154667Y-127061648D01*
X170154668Y-127061650D01*
X170346967Y-127525902D01*
X170445000Y-128018747D01*
X170445000Y-128521253D01*
X170346967Y-129014098D01*
X170154668Y-129478350D01*
X170154667Y-129478352D01*
X169875491Y-129896168D01*
X169520168Y-130251491D01*
X169102352Y-130530667D01*
X169102351Y-130530668D01*
X169102350Y-130530668D01*
X168638098Y-130722967D01*
X168145253Y-130821000D01*
X167642747Y-130821000D01*
X167149902Y-130722967D01*
X166685650Y-130530668D01*
X166685649Y-130530668D01*
X166685648Y-130530667D01*
X166267832Y-130251491D01*
X165912509Y-129896168D01*
X165633333Y-129478352D01*
X165633332Y-129478350D01*
X165441033Y-129014098D01*
X165343000Y-128521253D01*
X165343000Y-128018747D01*
X165441033Y-127525902D01*
X165633332Y-127061650D01*
X165633333Y-127061648D01*
X165912509Y-126643832D01*
X166267832Y-126288509D01*
X166685648Y-126009333D01*
X166700937Y-126003000D01*
X167149902Y-125817033D01*
X167642747Y-125719000D01*
X168145253Y-125719000D01*
X168638098Y-125817033D01*
X168638098Y-125817033D01*
G37*
G36*
X82532098Y-125817033D02*
G01*
X82981063Y-126003000D01*
X82996352Y-126009333D01*
X83414168Y-126288509D01*
X83769491Y-126643832D01*
X84048667Y-127061648D01*
X84048668Y-127061650D01*
X84240967Y-127525902D01*
X84339000Y-128018747D01*
X84339000Y-128521253D01*
X84240967Y-129014098D01*
X84048668Y-129478350D01*
X84048667Y-129478352D01*
X83769491Y-129896168D01*
X83414168Y-130251491D01*
X82996352Y-130530667D01*
X82996351Y-130530668D01*
X82996350Y-130530668D01*
X82532098Y-130722967D01*
X82039253Y-130821000D01*
X81536747Y-130821000D01*
X81043902Y-130722967D01*
X80579650Y-130530668D01*
X80579649Y-130530668D01*
X80579648Y-130530667D01*
X80161832Y-130251491D01*
X79806509Y-129896168D01*
X79527333Y-129478352D01*
X79527332Y-129478350D01*
X79335033Y-129014098D01*
X79237000Y-128521253D01*
X79237000Y-128018747D01*
X79335033Y-127525902D01*
X79527332Y-127061650D01*
X79527333Y-127061648D01*
X79806509Y-126643832D01*
X80161832Y-126288509D01*
X80579648Y-126009333D01*
X80594937Y-126003000D01*
X81043902Y-125817033D01*
X81536747Y-125719000D01*
X82039253Y-125719000D01*
X82532098Y-125817033D01*
X82532098Y-125817033D01*
G37*
G36*
X143307000Y-126898600D02*
G01*
X141173000Y-126898600D01*
X141173000Y-125069400D01*
X143307000Y-125069400D01*
X143307000Y-126898600D01*
X143307000Y-126898600D01*
G37*
G36*
X117019294Y-124828633D02*
G01*
X117191695Y-124880931D01*
X117350583Y-124965858D01*
X117489849Y-125080151D01*
X117604142Y-125219417D01*
X117689069Y-125378305D01*
X117741367Y-125550706D01*
X117759025Y-125730000D01*
X117741367Y-125909294D01*
X117689069Y-126081695D01*
X117604142Y-126240583D01*
X117489849Y-126379849D01*
X117350583Y-126494142D01*
X117191695Y-126579069D01*
X117019294Y-126631367D01*
X116884931Y-126644600D01*
X116795069Y-126644600D01*
X116660706Y-126631367D01*
X116488305Y-126579069D01*
X116329417Y-126494142D01*
X116190151Y-126379849D01*
X116075858Y-126240583D01*
X115990931Y-126081695D01*
X115938633Y-125909294D01*
X115920975Y-125730000D01*
X115938633Y-125550706D01*
X115990931Y-125378305D01*
X116075858Y-125219417D01*
X116190151Y-125080151D01*
X116329417Y-124965858D01*
X116488305Y-124880931D01*
X116660706Y-124828633D01*
X116795069Y-124815400D01*
X116884931Y-124815400D01*
X117019294Y-124828633D01*
X117019294Y-124828633D01*
G37*
G36*
X115214600Y-126644600D02*
G01*
X113385400Y-126644600D01*
X113385400Y-124815400D01*
X115214600Y-124815400D01*
X115214600Y-126644600D01*
X115214600Y-126644600D01*
G37*
G36*
X119559294Y-124828633D02*
G01*
X119731695Y-124880931D01*
X119890583Y-124965858D01*
X120029849Y-125080151D01*
X120144142Y-125219417D01*
X120229069Y-125378305D01*
X120281367Y-125550706D01*
X120299025Y-125730000D01*
X120281367Y-125909294D01*
X120229069Y-126081695D01*
X120144142Y-126240583D01*
X120029849Y-126379849D01*
X119890583Y-126494142D01*
X119731695Y-126579069D01*
X119559294Y-126631367D01*
X119424931Y-126644600D01*
X119335069Y-126644600D01*
X119200706Y-126631367D01*
X119028305Y-126579069D01*
X118869417Y-126494142D01*
X118730151Y-126379849D01*
X118615858Y-126240583D01*
X118530931Y-126081695D01*
X118478633Y-125909294D01*
X118460975Y-125730000D01*
X118478633Y-125550706D01*
X118530931Y-125378305D01*
X118615858Y-125219417D01*
X118730151Y-125080151D01*
X118869417Y-124965858D01*
X119028305Y-124880931D01*
X119200706Y-124828633D01*
X119335069Y-124815400D01*
X119424931Y-124815400D01*
X119559294Y-124828633D01*
X119559294Y-124828633D01*
G37*
G36*
X92799000Y-126003000D02*
G01*
X91097000Y-126003000D01*
X91097000Y-124901000D01*
X92799000Y-124901000D01*
X92799000Y-126003000D01*
X92799000Y-126003000D01*
G37*
G36*
X87719000Y-126003000D02*
G01*
X86017000Y-126003000D01*
X86017000Y-124901000D01*
X87719000Y-124901000D01*
X87719000Y-126003000D01*
X87719000Y-126003000D01*
G37*
G36*
X142571694Y-122542633D02*
G01*
X142744095Y-122594931D01*
X142902983Y-122679858D01*
X143042249Y-122794151D01*
X143156542Y-122933417D01*
X143241469Y-123092305D01*
X143293767Y-123264706D01*
X143311425Y-123444000D01*
X143293767Y-123623294D01*
X143241469Y-123795695D01*
X143156542Y-123954583D01*
X143042249Y-124093849D01*
X142902983Y-124208142D01*
X142744095Y-124293069D01*
X142571694Y-124345367D01*
X142437331Y-124358600D01*
X142042669Y-124358600D01*
X141908306Y-124345367D01*
X141735905Y-124293069D01*
X141577017Y-124208142D01*
X141437751Y-124093849D01*
X141323458Y-123954583D01*
X141238531Y-123795695D01*
X141186233Y-123623294D01*
X141168575Y-123444000D01*
X141186233Y-123264706D01*
X141238531Y-123092305D01*
X141323458Y-122933417D01*
X141437751Y-122794151D01*
X141577017Y-122679858D01*
X141735905Y-122594931D01*
X141908306Y-122542633D01*
X142042669Y-122529400D01*
X142437331Y-122529400D01*
X142571694Y-122542633D01*
X142571694Y-122542633D01*
G37*
G36*
X119559294Y-122288633D02*
G01*
X119731695Y-122340931D01*
X119890583Y-122425858D01*
X120029849Y-122540151D01*
X120144142Y-122679417D01*
X120229069Y-122838305D01*
X120281367Y-123010706D01*
X120299025Y-123190000D01*
X120281367Y-123369294D01*
X120229069Y-123541695D01*
X120144142Y-123700583D01*
X120029849Y-123839849D01*
X119890583Y-123954142D01*
X119731695Y-124039069D01*
X119559294Y-124091367D01*
X119424931Y-124104600D01*
X119335069Y-124104600D01*
X119200706Y-124091367D01*
X119028305Y-124039069D01*
X118869417Y-123954142D01*
X118730151Y-123839849D01*
X118615858Y-123700583D01*
X118530931Y-123541695D01*
X118478633Y-123369294D01*
X118460975Y-123190000D01*
X118478633Y-123010706D01*
X118530931Y-122838305D01*
X118615858Y-122679417D01*
X118730151Y-122540151D01*
X118869417Y-122425858D01*
X119028305Y-122340931D01*
X119200706Y-122288633D01*
X119335069Y-122275400D01*
X119424931Y-122275400D01*
X119559294Y-122288633D01*
X119559294Y-122288633D01*
G37*
G36*
X117019294Y-122288633D02*
G01*
X117191695Y-122340931D01*
X117350583Y-122425858D01*
X117489849Y-122540151D01*
X117604142Y-122679417D01*
X117689069Y-122838305D01*
X117741367Y-123010706D01*
X117759025Y-123190000D01*
X117741367Y-123369294D01*
X117689069Y-123541695D01*
X117604142Y-123700583D01*
X117489849Y-123839849D01*
X117350583Y-123954142D01*
X117191695Y-124039069D01*
X117019294Y-124091367D01*
X116884931Y-124104600D01*
X116795069Y-124104600D01*
X116660706Y-124091367D01*
X116488305Y-124039069D01*
X116329417Y-123954142D01*
X116190151Y-123839849D01*
X116075858Y-123700583D01*
X115990931Y-123541695D01*
X115938633Y-123369294D01*
X115920975Y-123190000D01*
X115938633Y-123010706D01*
X115990931Y-122838305D01*
X116075858Y-122679417D01*
X116190151Y-122540151D01*
X116329417Y-122425858D01*
X116488305Y-122340931D01*
X116660706Y-122288633D01*
X116795069Y-122275400D01*
X116884931Y-122275400D01*
X117019294Y-122288633D01*
X117019294Y-122288633D01*
G37*
G36*
X114479294Y-122288633D02*
G01*
X114651695Y-122340931D01*
X114810583Y-122425858D01*
X114949849Y-122540151D01*
X115064142Y-122679417D01*
X115149069Y-122838305D01*
X115201367Y-123010706D01*
X115219025Y-123190000D01*
X115201367Y-123369294D01*
X115149069Y-123541695D01*
X115064142Y-123700583D01*
X114949849Y-123839849D01*
X114810583Y-123954142D01*
X114651695Y-124039069D01*
X114479294Y-124091367D01*
X114344931Y-124104600D01*
X114255069Y-124104600D01*
X114120706Y-124091367D01*
X113948305Y-124039069D01*
X113789417Y-123954142D01*
X113650151Y-123839849D01*
X113535858Y-123700583D01*
X113450931Y-123541695D01*
X113398633Y-123369294D01*
X113380975Y-123190000D01*
X113398633Y-123010706D01*
X113450931Y-122838305D01*
X113535858Y-122679417D01*
X113650151Y-122540151D01*
X113789417Y-122425858D01*
X113948305Y-122340931D01*
X114120706Y-122288633D01*
X114255069Y-122275400D01*
X114344931Y-122275400D01*
X114479294Y-122288633D01*
X114479294Y-122288633D01*
G37*
G36*
X87719000Y-123003000D02*
G01*
X86017000Y-123003000D01*
X86017000Y-121901000D01*
X87719000Y-121901000D01*
X87719000Y-123003000D01*
X87719000Y-123003000D01*
G37*
G36*
X92799000Y-123003000D02*
G01*
X91097000Y-123003000D01*
X91097000Y-121901000D01*
X92799000Y-121901000D01*
X92799000Y-123003000D01*
X92799000Y-123003000D01*
G37*
G36*
X142571694Y-120002633D02*
G01*
X142744095Y-120054931D01*
X142902983Y-120139858D01*
X143042249Y-120254151D01*
X143156542Y-120393417D01*
X143241469Y-120552305D01*
X143293767Y-120724706D01*
X143311425Y-120904000D01*
X143293767Y-121083294D01*
X143241469Y-121255695D01*
X143156542Y-121414583D01*
X143042249Y-121553849D01*
X142902983Y-121668142D01*
X142744095Y-121753069D01*
X142571694Y-121805367D01*
X142437331Y-121818600D01*
X142042669Y-121818600D01*
X141908306Y-121805367D01*
X141735905Y-121753069D01*
X141577017Y-121668142D01*
X141437751Y-121553849D01*
X141323458Y-121414583D01*
X141238531Y-121255695D01*
X141186233Y-121083294D01*
X141168575Y-120904000D01*
X141186233Y-120724706D01*
X141238531Y-120552305D01*
X141323458Y-120393417D01*
X141437751Y-120254151D01*
X141577017Y-120139858D01*
X141735905Y-120054931D01*
X141908306Y-120002633D01*
X142042669Y-119989400D01*
X142437331Y-119989400D01*
X142571694Y-120002633D01*
X142571694Y-120002633D01*
G37*
G36*
X87047294Y-117310233D02*
G01*
X87219695Y-117362531D01*
X87378583Y-117447458D01*
X87517849Y-117561751D01*
X87632142Y-117701017D01*
X87717069Y-117859906D01*
X87769367Y-118032307D01*
X87782600Y-118166670D01*
X87782600Y-118561331D01*
X87769367Y-118695694D01*
X87717069Y-118868095D01*
X87632142Y-119026983D01*
X87517849Y-119166249D01*
X87378583Y-119280542D01*
X87219694Y-119365469D01*
X87047293Y-119417767D01*
X86868000Y-119435425D01*
X86688706Y-119417767D01*
X86516305Y-119365469D01*
X86357417Y-119280542D01*
X86218151Y-119166249D01*
X86103858Y-119026983D01*
X86018931Y-118868094D01*
X85966633Y-118695693D01*
X85953400Y-118561330D01*
X85953400Y-118166669D01*
X85966633Y-118032306D01*
X86018931Y-117859905D01*
X86103858Y-117701018D01*
X86218152Y-117561751D01*
X86357418Y-117447458D01*
X86516306Y-117362531D01*
X86688707Y-117310233D01*
X86868000Y-117292575D01*
X87047294Y-117310233D01*
X87047294Y-117310233D01*
G37*
G36*
X89587294Y-117310233D02*
G01*
X89759695Y-117362531D01*
X89918583Y-117447458D01*
X90057849Y-117561751D01*
X90172142Y-117701017D01*
X90257069Y-117859906D01*
X90309367Y-118032307D01*
X90322600Y-118166670D01*
X90322600Y-118561331D01*
X90309367Y-118695694D01*
X90257069Y-118868095D01*
X90172142Y-119026983D01*
X90057849Y-119166249D01*
X89918583Y-119280542D01*
X89759694Y-119365469D01*
X89587293Y-119417767D01*
X89408000Y-119435425D01*
X89228706Y-119417767D01*
X89056305Y-119365469D01*
X88897417Y-119280542D01*
X88758151Y-119166249D01*
X88643858Y-119026983D01*
X88558931Y-118868094D01*
X88506633Y-118695693D01*
X88493400Y-118561330D01*
X88493400Y-118166669D01*
X88506633Y-118032306D01*
X88558931Y-117859905D01*
X88643858Y-117701018D01*
X88758152Y-117561751D01*
X88897418Y-117447458D01*
X89056306Y-117362531D01*
X89228707Y-117310233D01*
X89408000Y-117292575D01*
X89587294Y-117310233D01*
X89587294Y-117310233D01*
G37*
G36*
X92862600Y-119431000D02*
G01*
X91033400Y-119431000D01*
X91033400Y-117297000D01*
X92862600Y-117297000D01*
X92862600Y-119431000D01*
X92862600Y-119431000D01*
G37*
G36*
X142571694Y-117462633D02*
G01*
X142744095Y-117514931D01*
X142902983Y-117599858D01*
X143042249Y-117714151D01*
X143156542Y-117853417D01*
X143241469Y-118012305D01*
X143293767Y-118184706D01*
X143311425Y-118364000D01*
X143293767Y-118543294D01*
X143241469Y-118715695D01*
X143156542Y-118874583D01*
X143042249Y-119013849D01*
X142902983Y-119128142D01*
X142744095Y-119213069D01*
X142571694Y-119265367D01*
X142437331Y-119278600D01*
X142042669Y-119278600D01*
X141908306Y-119265367D01*
X141735905Y-119213069D01*
X141577017Y-119128142D01*
X141437751Y-119013849D01*
X141323458Y-118874583D01*
X141238531Y-118715695D01*
X141186233Y-118543294D01*
X141168575Y-118364000D01*
X141186233Y-118184706D01*
X141238531Y-118012305D01*
X141323458Y-117853417D01*
X141437751Y-117714151D01*
X141577017Y-117599858D01*
X141735905Y-117514931D01*
X141908306Y-117462633D01*
X142042669Y-117449400D01*
X142437331Y-117449400D01*
X142571694Y-117462633D01*
X142571694Y-117462633D01*
G37*
G36*
X109287000Y-118707000D02*
G01*
X108185000Y-118707000D01*
X108185000Y-117005000D01*
X109287000Y-117005000D01*
X109287000Y-118707000D01*
X109287000Y-118707000D01*
G37*
G36*
X112287000Y-118707000D02*
G01*
X111185000Y-118707000D01*
X111185000Y-117005000D01*
X112287000Y-117005000D01*
X112287000Y-118707000D01*
X112287000Y-118707000D01*
G37*
G36*
X142571694Y-114922633D02*
G01*
X142744095Y-114974931D01*
X142902983Y-115059858D01*
X143042249Y-115174151D01*
X143156542Y-115313417D01*
X143241469Y-115472305D01*
X143293767Y-115644706D01*
X143311425Y-115824000D01*
X143293767Y-116003294D01*
X143241469Y-116175695D01*
X143156542Y-116334583D01*
X143042249Y-116473849D01*
X142902983Y-116588142D01*
X142744095Y-116673069D01*
X142571694Y-116725367D01*
X142437331Y-116738600D01*
X142042669Y-116738600D01*
X141908306Y-116725367D01*
X141735905Y-116673069D01*
X141577017Y-116588142D01*
X141437751Y-116473849D01*
X141323458Y-116334583D01*
X141238531Y-116175695D01*
X141186233Y-116003294D01*
X141168575Y-115824000D01*
X141186233Y-115644706D01*
X141238531Y-115472305D01*
X141323458Y-115313417D01*
X141437751Y-115174151D01*
X141577017Y-115059858D01*
X141735905Y-114974931D01*
X141908306Y-114922633D01*
X142042669Y-114909400D01*
X142437331Y-114909400D01*
X142571694Y-114922633D01*
X142571694Y-114922633D01*
G37*
G36*
X93015000Y-114198600D02*
G01*
X90881000Y-114198600D01*
X90881000Y-112369400D01*
X93015000Y-112369400D01*
X93015000Y-114198600D01*
X93015000Y-114198600D01*
G37*
G36*
X142571694Y-112382633D02*
G01*
X142744095Y-112434931D01*
X142902983Y-112519858D01*
X143042249Y-112634151D01*
X143156542Y-112773417D01*
X143241469Y-112932305D01*
X143293767Y-113104706D01*
X143311425Y-113284000D01*
X143293767Y-113463294D01*
X143241469Y-113635695D01*
X143156542Y-113794583D01*
X143042249Y-113933849D01*
X142902983Y-114048142D01*
X142744095Y-114133069D01*
X142571694Y-114185367D01*
X142437331Y-114198600D01*
X142042669Y-114198600D01*
X141908306Y-114185367D01*
X141735905Y-114133069D01*
X141577017Y-114048142D01*
X141437751Y-113933849D01*
X141323458Y-113794583D01*
X141238531Y-113635695D01*
X141186233Y-113463294D01*
X141168575Y-113284000D01*
X141186233Y-113104706D01*
X141238531Y-112932305D01*
X141323458Y-112773417D01*
X141437751Y-112634151D01*
X141577017Y-112519858D01*
X141735905Y-112434931D01*
X141908306Y-112382633D01*
X142042669Y-112369400D01*
X142437331Y-112369400D01*
X142571694Y-112382633D01*
X142571694Y-112382633D01*
G37*
G36*
X87199694Y-112382633D02*
G01*
X87372095Y-112434931D01*
X87530983Y-112519858D01*
X87670249Y-112634151D01*
X87784542Y-112773417D01*
X87869469Y-112932305D01*
X87921767Y-113104706D01*
X87939425Y-113284000D01*
X87921767Y-113463294D01*
X87869469Y-113635695D01*
X87784542Y-113794583D01*
X87670249Y-113933849D01*
X87530983Y-114048142D01*
X87372095Y-114133069D01*
X87199694Y-114185367D01*
X87065331Y-114198600D01*
X86670669Y-114198600D01*
X86536306Y-114185367D01*
X86363905Y-114133069D01*
X86205017Y-114048142D01*
X86065751Y-113933849D01*
X85951458Y-113794583D01*
X85866531Y-113635695D01*
X85814233Y-113463294D01*
X85796575Y-113284000D01*
X85814233Y-113104706D01*
X85866531Y-112932305D01*
X85951458Y-112773417D01*
X86065751Y-112634151D01*
X86205017Y-112519858D01*
X86363905Y-112434931D01*
X86536306Y-112382633D01*
X86670669Y-112369400D01*
X87065331Y-112369400D01*
X87199694Y-112382633D01*
X87199694Y-112382633D01*
G37*
G36*
X132596823Y-111734313D02*
G01*
X132757242Y-111782976D01*
X132889906Y-111853886D01*
X132905078Y-111861996D01*
X133034659Y-111968341D01*
X133141004Y-112097922D01*
X133141005Y-112097924D01*
X133220024Y-112245758D01*
X133268687Y-112406177D01*
X133285117Y-112573000D01*
X133268687Y-112739823D01*
X133220024Y-112900242D01*
X133149522Y-113032141D01*
X133141004Y-113048078D01*
X133034659Y-113177659D01*
X132905078Y-113284004D01*
X132905076Y-113284005D01*
X132757242Y-113363024D01*
X132596823Y-113411687D01*
X132471804Y-113424000D01*
X131688196Y-113424000D01*
X131563177Y-113411687D01*
X131402758Y-113363024D01*
X131254924Y-113284005D01*
X131254922Y-113284004D01*
X131125341Y-113177659D01*
X131018996Y-113048078D01*
X131010478Y-113032141D01*
X130939976Y-112900242D01*
X130891313Y-112739823D01*
X130874883Y-112573000D01*
X130891313Y-112406177D01*
X130939976Y-112245758D01*
X131018995Y-112097924D01*
X131018996Y-112097922D01*
X131125341Y-111968341D01*
X131254922Y-111861996D01*
X131270094Y-111853886D01*
X131402758Y-111782976D01*
X131563177Y-111734313D01*
X131688196Y-111722000D01*
X132471804Y-111722000D01*
X132596823Y-111734313D01*
X132596823Y-111734313D01*
G37*
G36*
X102116823Y-111734313D02*
G01*
X102277242Y-111782976D01*
X102409906Y-111853886D01*
X102425078Y-111861996D01*
X102554659Y-111968341D01*
X102661004Y-112097922D01*
X102661005Y-112097924D01*
X102740024Y-112245758D01*
X102788687Y-112406177D01*
X102805117Y-112573000D01*
X102788687Y-112739823D01*
X102740024Y-112900242D01*
X102669522Y-113032141D01*
X102661004Y-113048078D01*
X102554659Y-113177659D01*
X102425078Y-113284004D01*
X102425076Y-113284005D01*
X102277242Y-113363024D01*
X102116823Y-113411687D01*
X101991804Y-113424000D01*
X101208196Y-113424000D01*
X101083177Y-113411687D01*
X100922758Y-113363024D01*
X100774924Y-113284005D01*
X100774922Y-113284004D01*
X100645341Y-113177659D01*
X100538996Y-113048078D01*
X100530478Y-113032141D01*
X100459976Y-112900242D01*
X100411313Y-112739823D01*
X100394883Y-112573000D01*
X100411313Y-112406177D01*
X100459976Y-112245758D01*
X100538995Y-112097924D01*
X100538996Y-112097922D01*
X100645341Y-111968341D01*
X100774922Y-111861996D01*
X100790094Y-111853886D01*
X100922758Y-111782976D01*
X101083177Y-111734313D01*
X101208196Y-111722000D01*
X101991804Y-111722000D01*
X102116823Y-111734313D01*
X102116823Y-111734313D01*
G37*
G36*
X80341694Y-111366633D02*
G01*
X80514095Y-111418931D01*
X80672983Y-111503858D01*
X80812249Y-111618151D01*
X80926542Y-111757417D01*
X81011469Y-111916305D01*
X81063767Y-112088706D01*
X81081425Y-112268000D01*
X81063767Y-112447294D01*
X81011469Y-112619695D01*
X80926542Y-112778583D01*
X80812249Y-112917849D01*
X80672983Y-113032142D01*
X80514095Y-113117069D01*
X80341694Y-113169367D01*
X80207331Y-113182600D01*
X79812669Y-113182600D01*
X79678306Y-113169367D01*
X79505905Y-113117069D01*
X79347017Y-113032142D01*
X79207751Y-112917849D01*
X79093458Y-112778583D01*
X79008531Y-112619695D01*
X78956233Y-112447294D01*
X78938575Y-112268000D01*
X78956233Y-112088706D01*
X79008531Y-111916305D01*
X79093458Y-111757417D01*
X79207751Y-111618151D01*
X79347017Y-111503858D01*
X79505905Y-111418931D01*
X79678306Y-111366633D01*
X79812669Y-111353400D01*
X80207331Y-111353400D01*
X80341694Y-111366633D01*
X80341694Y-111366633D01*
G37*
G36*
X87199694Y-109842633D02*
G01*
X87372095Y-109894931D01*
X87530983Y-109979858D01*
X87670249Y-110094151D01*
X87784542Y-110233417D01*
X87869469Y-110392305D01*
X87921767Y-110564706D01*
X87939425Y-110744000D01*
X87921767Y-110923294D01*
X87869469Y-111095695D01*
X87784542Y-111254583D01*
X87670249Y-111393849D01*
X87530983Y-111508142D01*
X87372095Y-111593069D01*
X87199694Y-111645367D01*
X87065331Y-111658600D01*
X86670669Y-111658600D01*
X86536306Y-111645367D01*
X86363905Y-111593069D01*
X86205017Y-111508142D01*
X86065751Y-111393849D01*
X85951458Y-111254583D01*
X85866531Y-111095695D01*
X85814233Y-110923294D01*
X85796575Y-110744000D01*
X85814233Y-110564706D01*
X85866531Y-110392305D01*
X85951458Y-110233417D01*
X86065751Y-110094151D01*
X86205017Y-109979858D01*
X86363905Y-109894931D01*
X86536306Y-109842633D01*
X86670669Y-109829400D01*
X87065331Y-109829400D01*
X87199694Y-109842633D01*
X87199694Y-109842633D01*
G37*
G36*
X142571694Y-109842633D02*
G01*
X142744095Y-109894931D01*
X142902983Y-109979858D01*
X143042249Y-110094151D01*
X143156542Y-110233417D01*
X143241469Y-110392305D01*
X143293767Y-110564706D01*
X143311425Y-110744000D01*
X143293767Y-110923294D01*
X143241469Y-111095695D01*
X143156542Y-111254583D01*
X143042249Y-111393849D01*
X142902983Y-111508142D01*
X142744095Y-111593069D01*
X142571694Y-111645367D01*
X142437331Y-111658600D01*
X142042669Y-111658600D01*
X141908306Y-111645367D01*
X141735905Y-111593069D01*
X141577017Y-111508142D01*
X141437751Y-111393849D01*
X141323458Y-111254583D01*
X141238531Y-111095695D01*
X141186233Y-110923294D01*
X141168575Y-110744000D01*
X141186233Y-110564706D01*
X141238531Y-110392305D01*
X141323458Y-110233417D01*
X141437751Y-110094151D01*
X141577017Y-109979858D01*
X141735905Y-109894931D01*
X141908306Y-109842633D01*
X142042669Y-109829400D01*
X142437331Y-109829400D01*
X142571694Y-109842633D01*
X142571694Y-109842633D01*
G37*
G36*
X92279694Y-109842633D02*
G01*
X92452095Y-109894931D01*
X92610983Y-109979858D01*
X92750249Y-110094151D01*
X92864542Y-110233417D01*
X92949469Y-110392305D01*
X93001767Y-110564706D01*
X93019425Y-110744000D01*
X93001767Y-110923294D01*
X92949469Y-111095695D01*
X92864542Y-111254583D01*
X92750249Y-111393849D01*
X92610983Y-111508142D01*
X92452095Y-111593069D01*
X92279694Y-111645367D01*
X92145331Y-111658600D01*
X91750669Y-111658600D01*
X91616306Y-111645367D01*
X91443905Y-111593069D01*
X91285017Y-111508142D01*
X91145751Y-111393849D01*
X91031458Y-111254583D01*
X90946531Y-111095695D01*
X90894233Y-110923294D01*
X90876575Y-110744000D01*
X90894233Y-110564706D01*
X90946531Y-110392305D01*
X91031458Y-110233417D01*
X91145751Y-110094151D01*
X91285017Y-109979858D01*
X91443905Y-109894931D01*
X91616306Y-109842633D01*
X91750669Y-109829400D01*
X92145331Y-109829400D01*
X92279694Y-109842633D01*
X92279694Y-109842633D01*
G37*
G36*
X102116823Y-109194313D02*
G01*
X102277242Y-109242976D01*
X102409906Y-109313886D01*
X102425078Y-109321996D01*
X102554659Y-109428341D01*
X102661004Y-109557922D01*
X102661005Y-109557924D01*
X102740024Y-109705758D01*
X102788687Y-109866177D01*
X102805117Y-110033000D01*
X102788687Y-110199823D01*
X102740024Y-110360242D01*
X102669522Y-110492141D01*
X102661004Y-110508078D01*
X102554659Y-110637659D01*
X102425078Y-110744004D01*
X102425076Y-110744005D01*
X102277242Y-110823024D01*
X102116823Y-110871687D01*
X101991804Y-110884000D01*
X101208196Y-110884000D01*
X101083177Y-110871687D01*
X100922758Y-110823024D01*
X100774924Y-110744005D01*
X100774922Y-110744004D01*
X100645341Y-110637659D01*
X100538996Y-110508078D01*
X100530478Y-110492141D01*
X100459976Y-110360242D01*
X100411313Y-110199823D01*
X100394883Y-110033000D01*
X100411313Y-109866177D01*
X100459976Y-109705758D01*
X100538995Y-109557924D01*
X100538996Y-109557922D01*
X100645341Y-109428341D01*
X100774922Y-109321996D01*
X100790094Y-109313886D01*
X100922758Y-109242976D01*
X101083177Y-109194313D01*
X101208196Y-109182000D01*
X101991804Y-109182000D01*
X102116823Y-109194313D01*
X102116823Y-109194313D01*
G37*
G36*
X132596823Y-109194313D02*
G01*
X132757242Y-109242976D01*
X132889906Y-109313886D01*
X132905078Y-109321996D01*
X133034659Y-109428341D01*
X133141004Y-109557922D01*
X133141005Y-109557924D01*
X133220024Y-109705758D01*
X133268687Y-109866177D01*
X133285117Y-110033000D01*
X133268687Y-110199823D01*
X133220024Y-110360242D01*
X133149522Y-110492141D01*
X133141004Y-110508078D01*
X133034659Y-110637659D01*
X132905078Y-110744004D01*
X132905076Y-110744005D01*
X132757242Y-110823024D01*
X132596823Y-110871687D01*
X132471804Y-110884000D01*
X131688196Y-110884000D01*
X131563177Y-110871687D01*
X131402758Y-110823024D01*
X131254924Y-110744005D01*
X131254922Y-110744004D01*
X131125341Y-110637659D01*
X131018996Y-110508078D01*
X131010478Y-110492141D01*
X130939976Y-110360242D01*
X130891313Y-110199823D01*
X130874883Y-110033000D01*
X130891313Y-109866177D01*
X130939976Y-109705758D01*
X131018995Y-109557924D01*
X131018996Y-109557922D01*
X131125341Y-109428341D01*
X131254922Y-109321996D01*
X131270094Y-109313886D01*
X131402758Y-109242976D01*
X131563177Y-109194313D01*
X131688196Y-109182000D01*
X132471804Y-109182000D01*
X132596823Y-109194313D01*
X132596823Y-109194313D01*
G37*
G36*
X80341694Y-108826633D02*
G01*
X80514095Y-108878931D01*
X80672983Y-108963858D01*
X80812249Y-109078151D01*
X80926542Y-109217417D01*
X81011469Y-109376305D01*
X81063767Y-109548706D01*
X81081425Y-109728000D01*
X81063767Y-109907294D01*
X81011469Y-110079695D01*
X80926542Y-110238583D01*
X80812249Y-110377849D01*
X80672983Y-110492142D01*
X80514095Y-110577069D01*
X80341694Y-110629367D01*
X80207331Y-110642600D01*
X79812669Y-110642600D01*
X79678306Y-110629367D01*
X79505905Y-110577069D01*
X79347017Y-110492142D01*
X79207751Y-110377849D01*
X79093458Y-110238583D01*
X79008531Y-110079695D01*
X78956233Y-109907294D01*
X78938575Y-109728000D01*
X78956233Y-109548706D01*
X79008531Y-109376305D01*
X79093458Y-109217417D01*
X79207751Y-109078151D01*
X79347017Y-108963858D01*
X79505905Y-108878931D01*
X79678306Y-108826633D01*
X79812669Y-108813400D01*
X80207331Y-108813400D01*
X80341694Y-108826633D01*
X80341694Y-108826633D01*
G37*
G36*
X92279694Y-107302633D02*
G01*
X92452095Y-107354931D01*
X92610983Y-107439858D01*
X92750249Y-107554151D01*
X92864542Y-107693417D01*
X92949469Y-107852305D01*
X93001767Y-108024706D01*
X93019425Y-108204000D01*
X93001767Y-108383294D01*
X92949469Y-108555695D01*
X92864542Y-108714583D01*
X92750249Y-108853849D01*
X92610983Y-108968142D01*
X92452095Y-109053069D01*
X92279694Y-109105367D01*
X92145331Y-109118600D01*
X91750669Y-109118600D01*
X91616306Y-109105367D01*
X91443905Y-109053069D01*
X91285017Y-108968142D01*
X91145751Y-108853849D01*
X91031458Y-108714583D01*
X90946531Y-108555695D01*
X90894233Y-108383294D01*
X90876575Y-108204000D01*
X90894233Y-108024706D01*
X90946531Y-107852305D01*
X91031458Y-107693417D01*
X91145751Y-107554151D01*
X91285017Y-107439858D01*
X91443905Y-107354931D01*
X91616306Y-107302633D01*
X91750669Y-107289400D01*
X92145331Y-107289400D01*
X92279694Y-107302633D01*
X92279694Y-107302633D01*
G37*
G36*
X142571694Y-107302633D02*
G01*
X142744095Y-107354931D01*
X142902983Y-107439858D01*
X143042249Y-107554151D01*
X143156542Y-107693417D01*
X143241469Y-107852305D01*
X143293767Y-108024706D01*
X143311425Y-108204000D01*
X143293767Y-108383294D01*
X143241469Y-108555695D01*
X143156542Y-108714583D01*
X143042249Y-108853849D01*
X142902983Y-108968142D01*
X142744095Y-109053069D01*
X142571694Y-109105367D01*
X142437331Y-109118600D01*
X142042669Y-109118600D01*
X141908306Y-109105367D01*
X141735905Y-109053069D01*
X141577017Y-108968142D01*
X141437751Y-108853849D01*
X141323458Y-108714583D01*
X141238531Y-108555695D01*
X141186233Y-108383294D01*
X141168575Y-108204000D01*
X141186233Y-108024706D01*
X141238531Y-107852305D01*
X141323458Y-107693417D01*
X141437751Y-107554151D01*
X141577017Y-107439858D01*
X141735905Y-107354931D01*
X141908306Y-107302633D01*
X142042669Y-107289400D01*
X142437331Y-107289400D01*
X142571694Y-107302633D01*
X142571694Y-107302633D01*
G37*
G36*
X87935000Y-109118600D02*
G01*
X85801000Y-109118600D01*
X85801000Y-107289400D01*
X87935000Y-107289400D01*
X87935000Y-109118600D01*
X87935000Y-109118600D01*
G37*
G36*
X102116823Y-106654313D02*
G01*
X102277242Y-106702976D01*
X102409906Y-106773886D01*
X102425078Y-106781996D01*
X102554659Y-106888341D01*
X102661004Y-107017922D01*
X102661005Y-107017924D01*
X102740024Y-107165758D01*
X102788687Y-107326177D01*
X102805117Y-107493000D01*
X102788687Y-107659823D01*
X102740024Y-107820242D01*
X102669522Y-107952141D01*
X102661004Y-107968078D01*
X102554659Y-108097659D01*
X102425078Y-108204004D01*
X102425076Y-108204005D01*
X102277242Y-108283024D01*
X102116823Y-108331687D01*
X101991804Y-108344000D01*
X101208196Y-108344000D01*
X101083177Y-108331687D01*
X100922758Y-108283024D01*
X100774924Y-108204005D01*
X100774922Y-108204004D01*
X100645341Y-108097659D01*
X100538996Y-107968078D01*
X100530478Y-107952141D01*
X100459976Y-107820242D01*
X100411313Y-107659823D01*
X100394883Y-107493000D01*
X100411313Y-107326177D01*
X100459976Y-107165758D01*
X100538995Y-107017924D01*
X100538996Y-107017922D01*
X100645341Y-106888341D01*
X100774922Y-106781996D01*
X100790094Y-106773886D01*
X100922758Y-106702976D01*
X101083177Y-106654313D01*
X101208196Y-106642000D01*
X101991804Y-106642000D01*
X102116823Y-106654313D01*
X102116823Y-106654313D01*
G37*
G36*
X132596823Y-106654313D02*
G01*
X132757242Y-106702976D01*
X132889906Y-106773886D01*
X132905078Y-106781996D01*
X133034659Y-106888341D01*
X133141004Y-107017922D01*
X133141005Y-107017924D01*
X133220024Y-107165758D01*
X133268687Y-107326177D01*
X133285117Y-107493000D01*
X133268687Y-107659823D01*
X133220024Y-107820242D01*
X133149522Y-107952141D01*
X133141004Y-107968078D01*
X133034659Y-108097659D01*
X132905078Y-108204004D01*
X132905076Y-108204005D01*
X132757242Y-108283024D01*
X132596823Y-108331687D01*
X132471804Y-108344000D01*
X131688196Y-108344000D01*
X131563177Y-108331687D01*
X131402758Y-108283024D01*
X131254924Y-108204005D01*
X131254922Y-108204004D01*
X131125341Y-108097659D01*
X131018996Y-107968078D01*
X131010478Y-107952141D01*
X130939976Y-107820242D01*
X130891313Y-107659823D01*
X130874883Y-107493000D01*
X130891313Y-107326177D01*
X130939976Y-107165758D01*
X131018995Y-107017924D01*
X131018996Y-107017922D01*
X131125341Y-106888341D01*
X131254922Y-106781996D01*
X131270094Y-106773886D01*
X131402758Y-106702976D01*
X131563177Y-106654313D01*
X131688196Y-106642000D01*
X132471804Y-106642000D01*
X132596823Y-106654313D01*
X132596823Y-106654313D01*
G37*
G36*
X80341694Y-106286633D02*
G01*
X80514095Y-106338931D01*
X80672983Y-106423858D01*
X80812249Y-106538151D01*
X80926542Y-106677417D01*
X81011469Y-106836305D01*
X81063767Y-107008706D01*
X81081425Y-107188000D01*
X81063767Y-107367294D01*
X81011469Y-107539695D01*
X80926542Y-107698583D01*
X80812249Y-107837849D01*
X80672983Y-107952142D01*
X80514095Y-108037069D01*
X80341694Y-108089367D01*
X80207331Y-108102600D01*
X79812669Y-108102600D01*
X79678306Y-108089367D01*
X79505905Y-108037069D01*
X79347017Y-107952142D01*
X79207751Y-107837849D01*
X79093458Y-107698583D01*
X79008531Y-107539695D01*
X78956233Y-107367294D01*
X78938575Y-107188000D01*
X78956233Y-107008706D01*
X79008531Y-106836305D01*
X79093458Y-106677417D01*
X79207751Y-106538151D01*
X79347017Y-106423858D01*
X79505905Y-106338931D01*
X79678306Y-106286633D01*
X79812669Y-106273400D01*
X80207331Y-106273400D01*
X80341694Y-106286633D01*
X80341694Y-106286633D01*
G37*
G36*
X164389000Y-106070600D02*
G01*
X162255000Y-106070600D01*
X162255000Y-104241400D01*
X164389000Y-104241400D01*
X164389000Y-106070600D01*
X164389000Y-106070600D01*
G37*
G36*
X102116823Y-104114313D02*
G01*
X102277242Y-104162976D01*
X102409906Y-104233886D01*
X102425078Y-104241996D01*
X102554659Y-104348341D01*
X102661004Y-104477922D01*
X102661005Y-104477924D01*
X102740024Y-104625758D01*
X102788687Y-104786177D01*
X102805117Y-104953000D01*
X102788687Y-105119823D01*
X102740024Y-105280242D01*
X102669114Y-105412906D01*
X102661004Y-105428078D01*
X102554659Y-105557659D01*
X102425078Y-105664004D01*
X102425076Y-105664005D01*
X102277242Y-105743024D01*
X102116823Y-105791687D01*
X101991804Y-105804000D01*
X101208196Y-105804000D01*
X101083177Y-105791687D01*
X100922758Y-105743024D01*
X100774924Y-105664005D01*
X100774922Y-105664004D01*
X100645341Y-105557659D01*
X100538996Y-105428078D01*
X100530886Y-105412906D01*
X100459976Y-105280242D01*
X100411313Y-105119823D01*
X100394883Y-104953000D01*
X100411313Y-104786177D01*
X100459976Y-104625758D01*
X100538995Y-104477924D01*
X100538996Y-104477922D01*
X100645341Y-104348341D01*
X100774922Y-104241996D01*
X100790094Y-104233886D01*
X100922758Y-104162976D01*
X101083177Y-104114313D01*
X101208196Y-104102000D01*
X101991804Y-104102000D01*
X102116823Y-104114313D01*
X102116823Y-104114313D01*
G37*
G36*
X132596823Y-104114313D02*
G01*
X132757242Y-104162976D01*
X132889906Y-104233886D01*
X132905078Y-104241996D01*
X133034659Y-104348341D01*
X133141004Y-104477922D01*
X133141005Y-104477924D01*
X133220024Y-104625758D01*
X133268687Y-104786177D01*
X133285117Y-104953000D01*
X133268687Y-105119823D01*
X133220024Y-105280242D01*
X133149114Y-105412906D01*
X133141004Y-105428078D01*
X133034659Y-105557659D01*
X132905078Y-105664004D01*
X132905076Y-105664005D01*
X132757242Y-105743024D01*
X132596823Y-105791687D01*
X132471804Y-105804000D01*
X131688196Y-105804000D01*
X131563177Y-105791687D01*
X131402758Y-105743024D01*
X131254924Y-105664005D01*
X131254922Y-105664004D01*
X131125341Y-105557659D01*
X131018996Y-105428078D01*
X131010886Y-105412906D01*
X130939976Y-105280242D01*
X130891313Y-105119823D01*
X130874883Y-104953000D01*
X130891313Y-104786177D01*
X130939976Y-104625758D01*
X131018995Y-104477924D01*
X131018996Y-104477922D01*
X131125341Y-104348341D01*
X131254922Y-104241996D01*
X131270094Y-104233886D01*
X131402758Y-104162976D01*
X131563177Y-104114313D01*
X131688196Y-104102000D01*
X132471804Y-104102000D01*
X132596823Y-104114313D01*
X132596823Y-104114313D01*
G37*
G36*
X81077000Y-105562600D02*
G01*
X78943000Y-105562600D01*
X78943000Y-103733400D01*
X81077000Y-103733400D01*
X81077000Y-105562600D01*
X81077000Y-105562600D01*
G37*
G36*
X145123000Y-105175000D02*
G01*
X143421000Y-105175000D01*
X143421000Y-104073000D01*
X145123000Y-104073000D01*
X145123000Y-105175000D01*
X145123000Y-105175000D01*
G37*
G36*
X163653694Y-101714633D02*
G01*
X163826095Y-101766931D01*
X163984983Y-101851858D01*
X164124249Y-101966151D01*
X164238542Y-102105417D01*
X164323469Y-102264305D01*
X164375767Y-102436706D01*
X164393425Y-102616000D01*
X164375767Y-102795294D01*
X164323469Y-102967695D01*
X164238542Y-103126583D01*
X164124249Y-103265849D01*
X163984983Y-103380142D01*
X163826095Y-103465069D01*
X163653694Y-103517367D01*
X163519331Y-103530600D01*
X163124669Y-103530600D01*
X162990306Y-103517367D01*
X162817905Y-103465069D01*
X162659017Y-103380142D01*
X162519751Y-103265849D01*
X162405458Y-103126583D01*
X162320531Y-102967695D01*
X162268233Y-102795294D01*
X162250575Y-102616000D01*
X162268233Y-102436706D01*
X162320531Y-102264305D01*
X162405458Y-102105417D01*
X162519751Y-101966151D01*
X162659017Y-101851858D01*
X162817905Y-101766931D01*
X162990306Y-101714633D01*
X163124669Y-101701400D01*
X163519331Y-101701400D01*
X163653694Y-101714633D01*
X163653694Y-101714633D01*
G37*
G36*
X102116823Y-101574313D02*
G01*
X102277242Y-101622976D01*
X102409906Y-101693886D01*
X102425078Y-101701996D01*
X102554659Y-101808341D01*
X102661004Y-101937922D01*
X102661005Y-101937924D01*
X102740024Y-102085758D01*
X102788687Y-102246177D01*
X102805117Y-102413000D01*
X102788687Y-102579823D01*
X102740024Y-102740242D01*
X102710598Y-102795294D01*
X102661004Y-102888078D01*
X102554659Y-103017659D01*
X102425078Y-103124004D01*
X102425076Y-103124005D01*
X102277242Y-103203024D01*
X102116823Y-103251687D01*
X101991804Y-103264000D01*
X101208196Y-103264000D01*
X101083177Y-103251687D01*
X100922758Y-103203024D01*
X100774924Y-103124005D01*
X100774922Y-103124004D01*
X100645341Y-103017659D01*
X100538996Y-102888078D01*
X100489402Y-102795294D01*
X100459976Y-102740242D01*
X100411313Y-102579823D01*
X100394883Y-102413000D01*
X100411313Y-102246177D01*
X100459976Y-102085758D01*
X100538995Y-101937924D01*
X100538996Y-101937922D01*
X100645341Y-101808341D01*
X100774922Y-101701996D01*
X100790094Y-101693886D01*
X100922758Y-101622976D01*
X101083177Y-101574313D01*
X101208196Y-101562000D01*
X101991804Y-101562000D01*
X102116823Y-101574313D01*
X102116823Y-101574313D01*
G37*
G36*
X132596823Y-101574313D02*
G01*
X132757242Y-101622976D01*
X132889906Y-101693886D01*
X132905078Y-101701996D01*
X133034659Y-101808341D01*
X133141004Y-101937922D01*
X133141005Y-101937924D01*
X133220024Y-102085758D01*
X133268687Y-102246177D01*
X133285117Y-102413000D01*
X133268687Y-102579823D01*
X133220024Y-102740242D01*
X133190598Y-102795294D01*
X133141004Y-102888078D01*
X133034659Y-103017659D01*
X132905078Y-103124004D01*
X132905076Y-103124005D01*
X132757242Y-103203024D01*
X132596823Y-103251687D01*
X132471804Y-103264000D01*
X131688196Y-103264000D01*
X131563177Y-103251687D01*
X131402758Y-103203024D01*
X131254924Y-103124005D01*
X131254922Y-103124004D01*
X131125341Y-103017659D01*
X131018996Y-102888078D01*
X130969402Y-102795294D01*
X130939976Y-102740242D01*
X130891313Y-102579823D01*
X130874883Y-102413000D01*
X130891313Y-102246177D01*
X130939976Y-102085758D01*
X131018995Y-101937924D01*
X131018996Y-101937922D01*
X131125341Y-101808341D01*
X131254922Y-101701996D01*
X131270094Y-101693886D01*
X131402758Y-101622976D01*
X131563177Y-101574313D01*
X131688196Y-101562000D01*
X132471804Y-101562000D01*
X132596823Y-101574313D01*
X132596823Y-101574313D01*
G37*
G36*
X153467000Y-103022600D02*
G01*
X151333000Y-103022600D01*
X151333000Y-101193400D01*
X153467000Y-101193400D01*
X153467000Y-103022600D01*
X153467000Y-103022600D01*
G37*
G36*
X145123000Y-102175000D02*
G01*
X143421000Y-102175000D01*
X143421000Y-101073000D01*
X145123000Y-101073000D01*
X145123000Y-102175000D01*
X145123000Y-102175000D01*
G37*
G36*
X137735000Y-102119000D02*
G01*
X136133000Y-102119000D01*
X136133000Y-97017000D01*
X137735000Y-97017000D01*
X137735000Y-102119000D01*
X137735000Y-102119000D01*
G37*
G36*
X141235000Y-102119000D02*
G01*
X139633000Y-102119000D01*
X139633000Y-97017000D01*
X141235000Y-97017000D01*
X141235000Y-102119000D01*
X141235000Y-102119000D01*
G37*
G36*
X163653694Y-99174633D02*
G01*
X163826095Y-99226931D01*
X163984983Y-99311858D01*
X164124249Y-99426151D01*
X164238542Y-99565417D01*
X164323469Y-99724305D01*
X164375767Y-99896706D01*
X164393425Y-100076000D01*
X164375767Y-100255294D01*
X164323469Y-100427695D01*
X164238542Y-100586583D01*
X164124249Y-100725849D01*
X163984983Y-100840142D01*
X163826095Y-100925069D01*
X163653694Y-100977367D01*
X163519331Y-100990600D01*
X163124669Y-100990600D01*
X162990306Y-100977367D01*
X162817905Y-100925069D01*
X162659017Y-100840142D01*
X162519751Y-100725849D01*
X162405458Y-100586583D01*
X162320531Y-100427695D01*
X162268233Y-100255294D01*
X162250575Y-100076000D01*
X162268233Y-99896706D01*
X162320531Y-99724305D01*
X162405458Y-99565417D01*
X162519751Y-99426151D01*
X162659017Y-99311858D01*
X162817905Y-99226931D01*
X162990306Y-99174633D01*
X163124669Y-99161400D01*
X163519331Y-99161400D01*
X163653694Y-99174633D01*
X163653694Y-99174633D01*
G37*
G36*
X102116823Y-99034313D02*
G01*
X102277242Y-99082976D01*
X102409906Y-99153886D01*
X102425078Y-99161996D01*
X102554659Y-99268341D01*
X102661004Y-99397922D01*
X102661005Y-99397924D01*
X102740024Y-99545758D01*
X102788687Y-99706177D01*
X102805117Y-99873000D01*
X102788687Y-100039823D01*
X102740024Y-100200242D01*
X102710598Y-100255294D01*
X102661004Y-100348078D01*
X102554659Y-100477659D01*
X102425078Y-100584004D01*
X102425076Y-100584005D01*
X102277242Y-100663024D01*
X102116823Y-100711687D01*
X101991804Y-100724000D01*
X101208196Y-100724000D01*
X101083177Y-100711687D01*
X100922758Y-100663024D01*
X100774924Y-100584005D01*
X100774922Y-100584004D01*
X100645341Y-100477659D01*
X100538996Y-100348078D01*
X100489402Y-100255294D01*
X100459976Y-100200242D01*
X100411313Y-100039823D01*
X100394883Y-99873000D01*
X100411313Y-99706177D01*
X100459976Y-99545758D01*
X100538995Y-99397924D01*
X100538996Y-99397922D01*
X100645341Y-99268341D01*
X100774922Y-99161996D01*
X100790094Y-99153886D01*
X100922758Y-99082976D01*
X101083177Y-99034313D01*
X101208196Y-99022000D01*
X101991804Y-99022000D01*
X102116823Y-99034313D01*
X102116823Y-99034313D01*
G37*
G36*
X132596823Y-99034313D02*
G01*
X132757242Y-99082976D01*
X132889906Y-99153886D01*
X132905078Y-99161996D01*
X133034659Y-99268341D01*
X133141004Y-99397922D01*
X133141005Y-99397924D01*
X133220024Y-99545758D01*
X133268687Y-99706177D01*
X133285117Y-99873000D01*
X133268687Y-100039823D01*
X133220024Y-100200242D01*
X133190598Y-100255294D01*
X133141004Y-100348078D01*
X133034659Y-100477659D01*
X132905078Y-100584004D01*
X132905076Y-100584005D01*
X132757242Y-100663024D01*
X132596823Y-100711687D01*
X132471804Y-100724000D01*
X131688196Y-100724000D01*
X131563177Y-100711687D01*
X131402758Y-100663024D01*
X131254924Y-100584005D01*
X131254922Y-100584004D01*
X131125341Y-100477659D01*
X131018996Y-100348078D01*
X130969402Y-100255294D01*
X130939976Y-100200242D01*
X130891313Y-100039823D01*
X130874883Y-99873000D01*
X130891313Y-99706177D01*
X130939976Y-99545758D01*
X131018995Y-99397924D01*
X131018996Y-99397922D01*
X131125341Y-99268341D01*
X131254922Y-99161996D01*
X131270094Y-99153886D01*
X131402758Y-99082976D01*
X131563177Y-99034313D01*
X131688196Y-99022000D01*
X132471804Y-99022000D01*
X132596823Y-99034313D01*
X132596823Y-99034313D01*
G37*
G36*
X152731694Y-98666633D02*
G01*
X152904095Y-98718931D01*
X153062983Y-98803858D01*
X153202249Y-98918151D01*
X153316542Y-99057417D01*
X153401469Y-99216305D01*
X153453767Y-99388706D01*
X153471425Y-99568000D01*
X153453767Y-99747294D01*
X153401469Y-99919695D01*
X153316542Y-100078583D01*
X153202249Y-100217849D01*
X153062983Y-100332142D01*
X152904095Y-100417069D01*
X152731694Y-100469367D01*
X152597331Y-100482600D01*
X152202669Y-100482600D01*
X152068306Y-100469367D01*
X151895905Y-100417069D01*
X151737017Y-100332142D01*
X151597751Y-100217849D01*
X151483458Y-100078583D01*
X151398531Y-99919695D01*
X151346233Y-99747294D01*
X151328575Y-99568000D01*
X151346233Y-99388706D01*
X151398531Y-99216305D01*
X151483458Y-99057417D01*
X151597751Y-98918151D01*
X151737017Y-98803858D01*
X151895905Y-98718931D01*
X152068306Y-98666633D01*
X152202669Y-98653400D01*
X152597331Y-98653400D01*
X152731694Y-98666633D01*
X152731694Y-98666633D01*
G37*
G36*
X163653694Y-96634633D02*
G01*
X163826095Y-96686931D01*
X163984983Y-96771858D01*
X164124249Y-96886151D01*
X164238542Y-97025417D01*
X164323469Y-97184305D01*
X164375767Y-97356706D01*
X164393425Y-97536000D01*
X164375767Y-97715294D01*
X164323469Y-97887695D01*
X164238542Y-98046583D01*
X164124249Y-98185849D01*
X163984983Y-98300142D01*
X163826095Y-98385069D01*
X163653694Y-98437367D01*
X163519331Y-98450600D01*
X163124669Y-98450600D01*
X162990306Y-98437367D01*
X162817905Y-98385069D01*
X162659017Y-98300142D01*
X162519751Y-98185849D01*
X162405458Y-98046583D01*
X162320531Y-97887695D01*
X162268233Y-97715294D01*
X162250575Y-97536000D01*
X162268233Y-97356706D01*
X162320531Y-97184305D01*
X162405458Y-97025417D01*
X162519751Y-96886151D01*
X162659017Y-96771858D01*
X162817905Y-96686931D01*
X162990306Y-96634633D01*
X163124669Y-96621400D01*
X163519331Y-96621400D01*
X163653694Y-96634633D01*
X163653694Y-96634633D01*
G37*
G36*
X102116823Y-96494313D02*
G01*
X102277242Y-96542976D01*
X102409906Y-96613886D01*
X102425078Y-96621996D01*
X102554659Y-96728341D01*
X102661004Y-96857922D01*
X102661005Y-96857924D01*
X102740024Y-97005758D01*
X102788687Y-97166177D01*
X102805117Y-97333000D01*
X102788687Y-97499823D01*
X102740024Y-97660242D01*
X102710598Y-97715294D01*
X102661004Y-97808078D01*
X102554659Y-97937659D01*
X102425078Y-98044004D01*
X102425076Y-98044005D01*
X102277242Y-98123024D01*
X102116823Y-98171687D01*
X101991804Y-98184000D01*
X101208196Y-98184000D01*
X101083177Y-98171687D01*
X100922758Y-98123024D01*
X100774924Y-98044005D01*
X100774922Y-98044004D01*
X100645341Y-97937659D01*
X100538996Y-97808078D01*
X100489402Y-97715294D01*
X100459976Y-97660242D01*
X100411313Y-97499823D01*
X100394883Y-97333000D01*
X100411313Y-97166177D01*
X100459976Y-97005758D01*
X100538995Y-96857924D01*
X100538996Y-96857922D01*
X100645341Y-96728341D01*
X100774922Y-96621996D01*
X100790094Y-96613886D01*
X100922758Y-96542976D01*
X101083177Y-96494313D01*
X101208196Y-96482000D01*
X101991804Y-96482000D01*
X102116823Y-96494313D01*
X102116823Y-96494313D01*
G37*
G36*
X132596823Y-96494313D02*
G01*
X132757242Y-96542976D01*
X132889906Y-96613886D01*
X132905078Y-96621996D01*
X133034659Y-96728341D01*
X133141004Y-96857922D01*
X133141005Y-96857924D01*
X133220024Y-97005758D01*
X133268687Y-97166177D01*
X133285117Y-97333000D01*
X133268687Y-97499823D01*
X133220024Y-97660242D01*
X133190598Y-97715294D01*
X133141004Y-97808078D01*
X133034659Y-97937659D01*
X132905078Y-98044004D01*
X132905076Y-98044005D01*
X132757242Y-98123024D01*
X132596823Y-98171687D01*
X132471804Y-98184000D01*
X131688196Y-98184000D01*
X131563177Y-98171687D01*
X131402758Y-98123024D01*
X131254924Y-98044005D01*
X131254922Y-98044004D01*
X131125341Y-97937659D01*
X131018996Y-97808078D01*
X130969402Y-97715294D01*
X130939976Y-97660242D01*
X130891313Y-97499823D01*
X130874883Y-97333000D01*
X130891313Y-97166177D01*
X130939976Y-97005758D01*
X131018995Y-96857924D01*
X131018996Y-96857922D01*
X131125341Y-96728341D01*
X131254922Y-96621996D01*
X131270094Y-96613886D01*
X131402758Y-96542976D01*
X131563177Y-96494313D01*
X131688196Y-96482000D01*
X132471804Y-96482000D01*
X132596823Y-96494313D01*
X132596823Y-96494313D01*
G37*
G36*
X152731694Y-96126633D02*
G01*
X152904095Y-96178931D01*
X153062983Y-96263858D01*
X153202249Y-96378151D01*
X153316542Y-96517417D01*
X153401469Y-96676305D01*
X153453767Y-96848706D01*
X153471425Y-97028000D01*
X153453767Y-97207294D01*
X153401469Y-97379695D01*
X153316542Y-97538583D01*
X153202249Y-97677849D01*
X153062983Y-97792142D01*
X152904095Y-97877069D01*
X152731694Y-97929367D01*
X152597331Y-97942600D01*
X152202669Y-97942600D01*
X152068306Y-97929367D01*
X151895905Y-97877069D01*
X151737017Y-97792142D01*
X151597751Y-97677849D01*
X151483458Y-97538583D01*
X151398531Y-97379695D01*
X151346233Y-97207294D01*
X151328575Y-97028000D01*
X151346233Y-96848706D01*
X151398531Y-96676305D01*
X151483458Y-96517417D01*
X151597751Y-96378151D01*
X151737017Y-96263858D01*
X151895905Y-96178931D01*
X152068306Y-96126633D01*
X152202669Y-96113400D01*
X152597331Y-96113400D01*
X152731694Y-96126633D01*
X152731694Y-96126633D01*
G37*
G36*
X98387000Y-97047000D02*
G01*
X96685000Y-97047000D01*
X96685000Y-95945000D01*
X98387000Y-95945000D01*
X98387000Y-97047000D01*
X98387000Y-97047000D01*
G37*
G36*
X94031000Y-95783600D02*
G01*
X91897000Y-95783600D01*
X91897000Y-93954400D01*
X94031000Y-93954400D01*
X94031000Y-95783600D01*
X94031000Y-95783600D01*
G37*
G36*
X102116823Y-93954313D02*
G01*
X102277242Y-94002976D01*
X102359605Y-94047000D01*
X102425078Y-94081996D01*
X102554659Y-94188341D01*
X102661004Y-94317922D01*
X102661005Y-94317924D01*
X102740024Y-94465758D01*
X102788687Y-94626177D01*
X102805117Y-94793000D01*
X102788687Y-94959823D01*
X102740024Y-95120242D01*
X102669522Y-95252141D01*
X102661004Y-95268078D01*
X102554659Y-95397659D01*
X102425078Y-95504004D01*
X102425076Y-95504005D01*
X102277242Y-95583024D01*
X102116823Y-95631687D01*
X101991804Y-95644000D01*
X101208196Y-95644000D01*
X101083177Y-95631687D01*
X100922758Y-95583024D01*
X100774924Y-95504005D01*
X100774922Y-95504004D01*
X100645341Y-95397659D01*
X100538996Y-95268078D01*
X100530478Y-95252141D01*
X100459976Y-95120242D01*
X100411313Y-94959823D01*
X100394883Y-94793000D01*
X100411313Y-94626177D01*
X100459976Y-94465758D01*
X100538995Y-94317924D01*
X100538996Y-94317922D01*
X100645341Y-94188341D01*
X100774922Y-94081996D01*
X100840395Y-94047000D01*
X100922758Y-94002976D01*
X101083177Y-93954313D01*
X101208196Y-93942000D01*
X101991804Y-93942000D01*
X102116823Y-93954313D01*
X102116823Y-93954313D01*
G37*
G36*
X132596823Y-93954313D02*
G01*
X132757242Y-94002976D01*
X132839605Y-94047000D01*
X132905078Y-94081996D01*
X133034659Y-94188341D01*
X133141004Y-94317922D01*
X133141005Y-94317924D01*
X133220024Y-94465758D01*
X133268687Y-94626177D01*
X133285117Y-94793000D01*
X133268687Y-94959823D01*
X133220024Y-95120242D01*
X133149522Y-95252141D01*
X133141004Y-95268078D01*
X133034659Y-95397659D01*
X132905078Y-95504004D01*
X132905076Y-95504005D01*
X132757242Y-95583024D01*
X132596823Y-95631687D01*
X132471804Y-95644000D01*
X131688196Y-95644000D01*
X131563177Y-95631687D01*
X131402758Y-95583024D01*
X131254924Y-95504005D01*
X131254922Y-95504004D01*
X131125341Y-95397659D01*
X131018996Y-95268078D01*
X131010478Y-95252141D01*
X130939976Y-95120242D01*
X130891313Y-94959823D01*
X130874883Y-94793000D01*
X130891313Y-94626177D01*
X130939976Y-94465758D01*
X131018995Y-94317924D01*
X131018996Y-94317922D01*
X131125341Y-94188341D01*
X131254922Y-94081996D01*
X131320395Y-94047000D01*
X131402758Y-94002976D01*
X131563177Y-93954313D01*
X131688196Y-93942000D01*
X132471804Y-93942000D01*
X132596823Y-93954313D01*
X132596823Y-93954313D01*
G37*
G36*
X152731694Y-93586633D02*
G01*
X152904095Y-93638931D01*
X153062983Y-93723858D01*
X153202249Y-93838151D01*
X153316542Y-93977417D01*
X153401469Y-94136305D01*
X153453767Y-94308706D01*
X153471425Y-94488000D01*
X153453767Y-94667294D01*
X153401469Y-94839695D01*
X153316542Y-94998583D01*
X153202249Y-95137849D01*
X153062983Y-95252142D01*
X152904095Y-95337069D01*
X152731694Y-95389367D01*
X152597331Y-95402600D01*
X152202669Y-95402600D01*
X152068306Y-95389367D01*
X151895905Y-95337069D01*
X151737017Y-95252142D01*
X151597751Y-95137849D01*
X151483458Y-94998583D01*
X151398531Y-94839695D01*
X151346233Y-94667294D01*
X151328575Y-94488000D01*
X151346233Y-94308706D01*
X151398531Y-94136305D01*
X151483458Y-93977417D01*
X151597751Y-93838151D01*
X151737017Y-93723858D01*
X151895905Y-93638931D01*
X152068306Y-93586633D01*
X152202669Y-93573400D01*
X152597331Y-93573400D01*
X152731694Y-93586633D01*
X152731694Y-93586633D01*
G37*
G36*
X98387000Y-94047000D02*
G01*
X96685000Y-94047000D01*
X96685000Y-92945000D01*
X98387000Y-92945000D01*
X98387000Y-94047000D01*
X98387000Y-94047000D01*
G37*
G36*
X82157114Y-91141176D02*
G01*
X82251168Y-91150439D01*
X82452299Y-91211451D01*
X82538110Y-91257318D01*
X82637661Y-91310529D01*
X82800133Y-91443867D01*
X82933471Y-91606339D01*
X82955921Y-91648341D01*
X83032549Y-91791701D01*
X83093561Y-91992832D01*
X83114162Y-92202000D01*
X83093561Y-92411168D01*
X83032549Y-92612299D01*
X82995990Y-92680695D01*
X82933471Y-92797661D01*
X82800133Y-92960133D01*
X82637661Y-93093471D01*
X82538110Y-93146682D01*
X82452299Y-93192549D01*
X82251168Y-93253561D01*
X82157114Y-93262824D01*
X82094413Y-93269000D01*
X81989587Y-93269000D01*
X81926886Y-93262824D01*
X81832832Y-93253561D01*
X81631701Y-93192549D01*
X81545890Y-93146682D01*
X81446339Y-93093471D01*
X81283867Y-92960133D01*
X81150529Y-92797661D01*
X81088010Y-92680695D01*
X81051451Y-92612299D01*
X80990439Y-92411168D01*
X80969838Y-92202000D01*
X80990439Y-91992832D01*
X81051451Y-91791701D01*
X81128079Y-91648341D01*
X81150529Y-91606339D01*
X81283867Y-91443867D01*
X81446339Y-91310529D01*
X81545890Y-91257318D01*
X81631701Y-91211451D01*
X81832832Y-91150439D01*
X81926886Y-91141176D01*
X81989587Y-91135000D01*
X82094413Y-91135000D01*
X82157114Y-91141176D01*
X82157114Y-91141176D01*
G37*
G36*
X80569000Y-93269000D02*
G01*
X78435000Y-93269000D01*
X78435000Y-91135000D01*
X80569000Y-91135000D01*
X80569000Y-93269000D01*
X80569000Y-93269000D01*
G37*
G36*
X93295694Y-91427633D02*
G01*
X93468095Y-91479931D01*
X93626983Y-91564858D01*
X93766249Y-91679151D01*
X93880542Y-91818417D01*
X93965469Y-91977305D01*
X94017767Y-92149706D01*
X94035425Y-92329000D01*
X94017767Y-92508294D01*
X93965469Y-92680695D01*
X93880542Y-92839583D01*
X93766249Y-92978849D01*
X93626983Y-93093142D01*
X93468095Y-93178069D01*
X93295694Y-93230367D01*
X93161331Y-93243600D01*
X92766669Y-93243600D01*
X92632306Y-93230367D01*
X92459905Y-93178069D01*
X92301017Y-93093142D01*
X92161751Y-92978849D01*
X92047458Y-92839583D01*
X91962531Y-92680695D01*
X91910233Y-92508294D01*
X91892575Y-92329000D01*
X91910233Y-92149706D01*
X91962531Y-91977305D01*
X92047458Y-91818417D01*
X92161751Y-91679151D01*
X92301017Y-91564858D01*
X92459905Y-91479931D01*
X92632306Y-91427633D01*
X92766669Y-91414400D01*
X93161331Y-91414400D01*
X93295694Y-91427633D01*
X93295694Y-91427633D01*
G37*
G36*
X102116823Y-91414313D02*
G01*
X102277242Y-91462976D01*
X102308964Y-91479932D01*
X102425078Y-91541996D01*
X102554659Y-91648341D01*
X102661004Y-91777922D01*
X102661005Y-91777924D01*
X102740024Y-91925758D01*
X102788687Y-92086177D01*
X102805117Y-92253000D01*
X102788687Y-92419823D01*
X102740024Y-92580242D01*
X102722889Y-92612299D01*
X102661004Y-92728078D01*
X102554659Y-92857659D01*
X102425078Y-92964004D01*
X102425076Y-92964005D01*
X102277242Y-93043024D01*
X102116823Y-93091687D01*
X101991804Y-93104000D01*
X101208196Y-93104000D01*
X101083177Y-93091687D01*
X100922758Y-93043024D01*
X100774924Y-92964005D01*
X100774922Y-92964004D01*
X100645341Y-92857659D01*
X100538996Y-92728078D01*
X100477111Y-92612299D01*
X100459976Y-92580242D01*
X100411313Y-92419823D01*
X100394883Y-92253000D01*
X100411313Y-92086177D01*
X100459976Y-91925758D01*
X100538995Y-91777924D01*
X100538996Y-91777922D01*
X100645341Y-91648341D01*
X100774922Y-91541996D01*
X100891036Y-91479932D01*
X100922758Y-91462976D01*
X101083177Y-91414313D01*
X101208196Y-91402000D01*
X101991804Y-91402000D01*
X102116823Y-91414313D01*
X102116823Y-91414313D01*
G37*
G36*
X132596823Y-91414313D02*
G01*
X132757242Y-91462976D01*
X132788964Y-91479932D01*
X132905078Y-91541996D01*
X133034659Y-91648341D01*
X133141004Y-91777922D01*
X133141005Y-91777924D01*
X133220024Y-91925758D01*
X133268687Y-92086177D01*
X133285117Y-92253000D01*
X133268687Y-92419823D01*
X133220024Y-92580242D01*
X133202889Y-92612299D01*
X133141004Y-92728078D01*
X133034659Y-92857659D01*
X132905078Y-92964004D01*
X132905076Y-92964005D01*
X132757242Y-93043024D01*
X132596823Y-93091687D01*
X132471804Y-93104000D01*
X131688196Y-93104000D01*
X131563177Y-93091687D01*
X131402758Y-93043024D01*
X131254924Y-92964005D01*
X131254922Y-92964004D01*
X131125341Y-92857659D01*
X131018996Y-92728078D01*
X130957111Y-92612299D01*
X130939976Y-92580242D01*
X130891313Y-92419823D01*
X130874883Y-92253000D01*
X130891313Y-92086177D01*
X130939976Y-91925758D01*
X131018995Y-91777924D01*
X131018996Y-91777922D01*
X131125341Y-91648341D01*
X131254922Y-91541996D01*
X131371036Y-91479932D01*
X131402758Y-91462976D01*
X131563177Y-91414313D01*
X131688196Y-91402000D01*
X132471804Y-91402000D01*
X132596823Y-91414313D01*
X132596823Y-91414313D01*
G37*
G36*
X152731694Y-91046633D02*
G01*
X152904095Y-91098931D01*
X153062983Y-91183858D01*
X153202249Y-91298151D01*
X153316542Y-91437417D01*
X153401469Y-91596305D01*
X153453767Y-91768706D01*
X153471425Y-91948000D01*
X153453767Y-92127294D01*
X153401469Y-92299695D01*
X153316542Y-92458583D01*
X153202249Y-92597849D01*
X153062983Y-92712142D01*
X152904095Y-92797069D01*
X152731694Y-92849367D01*
X152597331Y-92862600D01*
X152202669Y-92862600D01*
X152068306Y-92849367D01*
X151895905Y-92797069D01*
X151737017Y-92712142D01*
X151597751Y-92597849D01*
X151483458Y-92458583D01*
X151398531Y-92299695D01*
X151346233Y-92127294D01*
X151328575Y-91948000D01*
X151346233Y-91768706D01*
X151398531Y-91596305D01*
X151483458Y-91437417D01*
X151597751Y-91298151D01*
X151737017Y-91183858D01*
X151895905Y-91098931D01*
X152068306Y-91046633D01*
X152202669Y-91033400D01*
X152597331Y-91033400D01*
X152731694Y-91046633D01*
X152731694Y-91046633D01*
G37*
G36*
X93295694Y-88887633D02*
G01*
X93468095Y-88939931D01*
X93626983Y-89024858D01*
X93766249Y-89139151D01*
X93880542Y-89278417D01*
X93965469Y-89437305D01*
X94017767Y-89609706D01*
X94035425Y-89789000D01*
X94017767Y-89968294D01*
X93965469Y-90140695D01*
X93880542Y-90299583D01*
X93766249Y-90438849D01*
X93626983Y-90553142D01*
X93468095Y-90638069D01*
X93295694Y-90690367D01*
X93161331Y-90703600D01*
X92766669Y-90703600D01*
X92632306Y-90690367D01*
X92459905Y-90638069D01*
X92301017Y-90553142D01*
X92161751Y-90438849D01*
X92047458Y-90299583D01*
X91962531Y-90140695D01*
X91910233Y-89968294D01*
X91892575Y-89789000D01*
X91910233Y-89609706D01*
X91962531Y-89437305D01*
X92047458Y-89278417D01*
X92161751Y-89139151D01*
X92301017Y-89024858D01*
X92459905Y-88939931D01*
X92632306Y-88887633D01*
X92766669Y-88874400D01*
X93161331Y-88874400D01*
X93295694Y-88887633D01*
X93295694Y-88887633D01*
G37*
G36*
X132596823Y-88874313D02*
G01*
X132757242Y-88922976D01*
X132788964Y-88939932D01*
X132905078Y-89001996D01*
X133034659Y-89108341D01*
X133141004Y-89237922D01*
X133141005Y-89237924D01*
X133220024Y-89385758D01*
X133268687Y-89546177D01*
X133285117Y-89713000D01*
X133268687Y-89879823D01*
X133220024Y-90040242D01*
X133166331Y-90140695D01*
X133141004Y-90188078D01*
X133034659Y-90317659D01*
X132905078Y-90424004D01*
X132905076Y-90424005D01*
X132757242Y-90503024D01*
X132596823Y-90551687D01*
X132471804Y-90564000D01*
X131688196Y-90564000D01*
X131563177Y-90551687D01*
X131402758Y-90503024D01*
X131254924Y-90424005D01*
X131254922Y-90424004D01*
X131125341Y-90317659D01*
X131018996Y-90188078D01*
X130993669Y-90140695D01*
X130939976Y-90040242D01*
X130891313Y-89879823D01*
X130874883Y-89713000D01*
X130891313Y-89546177D01*
X130939976Y-89385758D01*
X131018995Y-89237924D01*
X131018996Y-89237922D01*
X131125341Y-89108341D01*
X131254922Y-89001996D01*
X131371036Y-88939932D01*
X131402758Y-88922976D01*
X131563177Y-88874313D01*
X131688196Y-88862000D01*
X132471804Y-88862000D01*
X132596823Y-88874313D01*
X132596823Y-88874313D01*
G37*
G36*
X102116823Y-88874313D02*
G01*
X102277242Y-88922976D01*
X102308964Y-88939932D01*
X102425078Y-89001996D01*
X102554659Y-89108341D01*
X102661004Y-89237922D01*
X102661005Y-89237924D01*
X102740024Y-89385758D01*
X102788687Y-89546177D01*
X102805117Y-89713000D01*
X102788687Y-89879823D01*
X102740024Y-90040242D01*
X102686331Y-90140695D01*
X102661004Y-90188078D01*
X102554659Y-90317659D01*
X102425078Y-90424004D01*
X102425076Y-90424005D01*
X102277242Y-90503024D01*
X102116823Y-90551687D01*
X101991804Y-90564000D01*
X101208196Y-90564000D01*
X101083177Y-90551687D01*
X100922758Y-90503024D01*
X100774924Y-90424005D01*
X100774922Y-90424004D01*
X100645341Y-90317659D01*
X100538996Y-90188078D01*
X100513669Y-90140695D01*
X100459976Y-90040242D01*
X100411313Y-89879823D01*
X100394883Y-89713000D01*
X100411313Y-89546177D01*
X100459976Y-89385758D01*
X100538995Y-89237924D01*
X100538996Y-89237922D01*
X100645341Y-89108341D01*
X100774922Y-89001996D01*
X100891036Y-88939932D01*
X100922758Y-88922976D01*
X101083177Y-88874313D01*
X101208196Y-88862000D01*
X101991804Y-88862000D01*
X102116823Y-88874313D01*
X102116823Y-88874313D01*
G37*
G36*
X141047694Y-86347633D02*
G01*
X141220095Y-86399931D01*
X141378983Y-86484858D01*
X141518249Y-86599151D01*
X141632542Y-86738417D01*
X141717469Y-86897305D01*
X141769767Y-87069706D01*
X141787425Y-87249000D01*
X141769767Y-87428294D01*
X141717469Y-87600695D01*
X141632542Y-87759583D01*
X141518249Y-87898849D01*
X141378983Y-88013142D01*
X141220095Y-88098069D01*
X141047694Y-88150367D01*
X140913331Y-88163600D01*
X140518669Y-88163600D01*
X140384306Y-88150367D01*
X140211905Y-88098069D01*
X140053017Y-88013142D01*
X139913751Y-87898849D01*
X139799458Y-87759583D01*
X139714531Y-87600695D01*
X139662233Y-87428294D01*
X139644575Y-87249000D01*
X139662233Y-87069706D01*
X139714531Y-86897305D01*
X139799458Y-86738417D01*
X139913751Y-86599151D01*
X140053017Y-86484858D01*
X140211905Y-86399931D01*
X140384306Y-86347633D01*
X140518669Y-86334400D01*
X140913331Y-86334400D01*
X141047694Y-86347633D01*
X141047694Y-86347633D01*
G37*
G36*
X79706694Y-86347633D02*
G01*
X79879095Y-86399931D01*
X80037983Y-86484858D01*
X80177249Y-86599151D01*
X80291542Y-86738417D01*
X80376469Y-86897305D01*
X80428767Y-87069706D01*
X80446425Y-87249000D01*
X80428767Y-87428294D01*
X80376469Y-87600695D01*
X80291542Y-87759583D01*
X80177249Y-87898849D01*
X80037983Y-88013142D01*
X79879095Y-88098069D01*
X79706694Y-88150367D01*
X79572331Y-88163600D01*
X79177669Y-88163600D01*
X79043306Y-88150367D01*
X78870905Y-88098069D01*
X78712017Y-88013142D01*
X78572751Y-87898849D01*
X78458458Y-87759583D01*
X78373531Y-87600695D01*
X78321233Y-87428294D01*
X78303575Y-87249000D01*
X78321233Y-87069706D01*
X78373531Y-86897305D01*
X78458458Y-86738417D01*
X78572751Y-86599151D01*
X78712017Y-86484858D01*
X78870905Y-86399931D01*
X79043306Y-86347633D01*
X79177669Y-86334400D01*
X79572331Y-86334400D01*
X79706694Y-86347633D01*
X79706694Y-86347633D01*
G37*
G36*
X93295694Y-86347633D02*
G01*
X93468095Y-86399931D01*
X93626983Y-86484858D01*
X93766249Y-86599151D01*
X93880542Y-86738417D01*
X93965469Y-86897305D01*
X94017767Y-87069706D01*
X94035425Y-87249000D01*
X94017767Y-87428294D01*
X93965469Y-87600695D01*
X93880542Y-87759583D01*
X93766249Y-87898849D01*
X93626983Y-88013142D01*
X93468095Y-88098069D01*
X93295694Y-88150367D01*
X93161331Y-88163600D01*
X92766669Y-88163600D01*
X92632306Y-88150367D01*
X92459905Y-88098069D01*
X92301017Y-88013142D01*
X92161751Y-87898849D01*
X92047458Y-87759583D01*
X91962531Y-87600695D01*
X91910233Y-87428294D01*
X91892575Y-87249000D01*
X91910233Y-87069706D01*
X91962531Y-86897305D01*
X92047458Y-86738417D01*
X92161751Y-86599151D01*
X92301017Y-86484858D01*
X92459905Y-86399931D01*
X92632306Y-86347633D01*
X92766669Y-86334400D01*
X93161331Y-86334400D01*
X93295694Y-86347633D01*
X93295694Y-86347633D01*
G37*
G36*
X102116823Y-86334313D02*
G01*
X102277242Y-86382976D01*
X102308964Y-86399932D01*
X102425078Y-86461996D01*
X102554659Y-86568341D01*
X102661004Y-86697922D01*
X102661005Y-86697924D01*
X102740024Y-86845758D01*
X102788687Y-87006177D01*
X102805117Y-87173000D01*
X102788687Y-87339823D01*
X102740024Y-87500242D01*
X102686331Y-87600695D01*
X102661004Y-87648078D01*
X102554659Y-87777659D01*
X102425078Y-87884004D01*
X102425076Y-87884005D01*
X102277242Y-87963024D01*
X102116823Y-88011687D01*
X101991804Y-88024000D01*
X101208196Y-88024000D01*
X101083177Y-88011687D01*
X100922758Y-87963024D01*
X100774924Y-87884005D01*
X100774922Y-87884004D01*
X100645341Y-87777659D01*
X100538996Y-87648078D01*
X100513669Y-87600695D01*
X100459976Y-87500242D01*
X100411313Y-87339823D01*
X100394883Y-87173000D01*
X100411313Y-87006177D01*
X100459976Y-86845758D01*
X100538995Y-86697924D01*
X100538996Y-86697922D01*
X100645341Y-86568341D01*
X100774922Y-86461996D01*
X100891036Y-86399932D01*
X100922758Y-86382976D01*
X101083177Y-86334313D01*
X101208196Y-86322000D01*
X101991804Y-86322000D01*
X102116823Y-86334313D01*
X102116823Y-86334313D01*
G37*
G36*
X132596823Y-86334313D02*
G01*
X132757242Y-86382976D01*
X132788964Y-86399932D01*
X132905078Y-86461996D01*
X133034659Y-86568341D01*
X133141004Y-86697922D01*
X133141005Y-86697924D01*
X133220024Y-86845758D01*
X133268687Y-87006177D01*
X133285117Y-87173000D01*
X133268687Y-87339823D01*
X133220024Y-87500242D01*
X133166331Y-87600695D01*
X133141004Y-87648078D01*
X133034659Y-87777659D01*
X132905078Y-87884004D01*
X132905076Y-87884005D01*
X132757242Y-87963024D01*
X132596823Y-88011687D01*
X132471804Y-88024000D01*
X131688196Y-88024000D01*
X131563177Y-88011687D01*
X131402758Y-87963024D01*
X131254924Y-87884005D01*
X131254922Y-87884004D01*
X131125341Y-87777659D01*
X131018996Y-87648078D01*
X130993669Y-87600695D01*
X130939976Y-87500242D01*
X130891313Y-87339823D01*
X130874883Y-87173000D01*
X130891313Y-87006177D01*
X130939976Y-86845758D01*
X131018995Y-86697924D01*
X131018996Y-86697922D01*
X131125341Y-86568341D01*
X131254922Y-86461996D01*
X131371036Y-86399932D01*
X131402758Y-86382976D01*
X131563177Y-86334313D01*
X131688196Y-86322000D01*
X132471804Y-86322000D01*
X132596823Y-86334313D01*
X132596823Y-86334313D01*
G37*
G36*
X163087000Y-86703000D02*
G01*
X161985000Y-86703000D01*
X161985000Y-85001000D01*
X163087000Y-85001000D01*
X163087000Y-86703000D01*
X163087000Y-86703000D01*
G37*
G36*
X160087000Y-86703000D02*
G01*
X158985000Y-86703000D01*
X158985000Y-85001000D01*
X160087000Y-85001000D01*
X160087000Y-86703000D01*
X160087000Y-86703000D01*
G37*
G36*
X166183000Y-86703000D02*
G01*
X165081000Y-86703000D01*
X165081000Y-85001000D01*
X166183000Y-85001000D01*
X166183000Y-86703000D01*
X166183000Y-86703000D01*
G37*
G36*
X169183000Y-86703000D02*
G01*
X168081000Y-86703000D01*
X168081000Y-85001000D01*
X169183000Y-85001000D01*
X169183000Y-86703000D01*
X169183000Y-86703000D01*
G37*
G36*
X79706694Y-83807633D02*
G01*
X79879095Y-83859931D01*
X80037983Y-83944858D01*
X80177249Y-84059151D01*
X80291542Y-84198417D01*
X80376469Y-84357305D01*
X80428767Y-84529706D01*
X80446425Y-84709000D01*
X80428767Y-84888294D01*
X80376469Y-85060695D01*
X80291542Y-85219583D01*
X80177249Y-85358849D01*
X80037983Y-85473142D01*
X79879095Y-85558069D01*
X79706694Y-85610367D01*
X79572331Y-85623600D01*
X79177669Y-85623600D01*
X79043306Y-85610367D01*
X78870905Y-85558069D01*
X78712017Y-85473142D01*
X78572751Y-85358849D01*
X78458458Y-85219583D01*
X78373531Y-85060695D01*
X78321233Y-84888294D01*
X78303575Y-84709000D01*
X78321233Y-84529706D01*
X78373531Y-84357305D01*
X78458458Y-84198417D01*
X78572751Y-84059151D01*
X78712017Y-83944858D01*
X78870905Y-83859931D01*
X79043306Y-83807633D01*
X79177669Y-83794400D01*
X79572331Y-83794400D01*
X79706694Y-83807633D01*
X79706694Y-83807633D01*
G37*
G36*
X141047694Y-83807633D02*
G01*
X141220095Y-83859931D01*
X141378983Y-83944858D01*
X141518249Y-84059151D01*
X141632542Y-84198417D01*
X141717469Y-84357305D01*
X141769767Y-84529706D01*
X141787425Y-84709000D01*
X141769767Y-84888294D01*
X141717469Y-85060695D01*
X141632542Y-85219583D01*
X141518249Y-85358849D01*
X141378983Y-85473142D01*
X141220095Y-85558069D01*
X141047694Y-85610367D01*
X140913331Y-85623600D01*
X140518669Y-85623600D01*
X140384306Y-85610367D01*
X140211905Y-85558069D01*
X140053017Y-85473142D01*
X139913751Y-85358849D01*
X139799458Y-85219583D01*
X139714531Y-85060695D01*
X139662233Y-84888294D01*
X139644575Y-84709000D01*
X139662233Y-84529706D01*
X139714531Y-84357305D01*
X139799458Y-84198417D01*
X139913751Y-84059151D01*
X140053017Y-83944858D01*
X140211905Y-83859931D01*
X140384306Y-83807633D01*
X140518669Y-83794400D01*
X140913331Y-83794400D01*
X141047694Y-83807633D01*
X141047694Y-83807633D01*
G37*
G36*
X93295694Y-83807633D02*
G01*
X93468095Y-83859931D01*
X93626983Y-83944858D01*
X93766249Y-84059151D01*
X93880542Y-84198417D01*
X93965469Y-84357305D01*
X94017767Y-84529706D01*
X94035425Y-84709000D01*
X94017767Y-84888294D01*
X93965469Y-85060695D01*
X93880542Y-85219583D01*
X93766249Y-85358849D01*
X93626983Y-85473142D01*
X93468095Y-85558069D01*
X93295694Y-85610367D01*
X93161331Y-85623600D01*
X92766669Y-85623600D01*
X92632306Y-85610367D01*
X92459905Y-85558069D01*
X92301017Y-85473142D01*
X92161751Y-85358849D01*
X92047458Y-85219583D01*
X91962531Y-85060695D01*
X91910233Y-84888294D01*
X91892575Y-84709000D01*
X91910233Y-84529706D01*
X91962531Y-84357305D01*
X92047458Y-84198417D01*
X92161751Y-84059151D01*
X92301017Y-83944858D01*
X92459905Y-83859931D01*
X92632306Y-83807633D01*
X92766669Y-83794400D01*
X93161331Y-83794400D01*
X93295694Y-83807633D01*
X93295694Y-83807633D01*
G37*
G36*
X102116823Y-83794313D02*
G01*
X102277242Y-83842976D01*
X102308964Y-83859932D01*
X102425078Y-83921996D01*
X102554659Y-84028341D01*
X102661004Y-84157922D01*
X102661005Y-84157924D01*
X102740024Y-84305758D01*
X102788687Y-84466177D01*
X102805117Y-84633000D01*
X102788687Y-84799823D01*
X102740024Y-84960242D01*
X102718238Y-85001000D01*
X102661004Y-85108078D01*
X102554659Y-85237659D01*
X102425078Y-85344004D01*
X102425076Y-85344005D01*
X102277242Y-85423024D01*
X102116823Y-85471687D01*
X101991804Y-85484000D01*
X101208196Y-85484000D01*
X101083177Y-85471687D01*
X100922758Y-85423024D01*
X100774924Y-85344005D01*
X100774922Y-85344004D01*
X100645341Y-85237659D01*
X100538996Y-85108078D01*
X100481762Y-85001000D01*
X100459976Y-84960242D01*
X100411313Y-84799823D01*
X100394883Y-84633000D01*
X100411313Y-84466177D01*
X100459976Y-84305758D01*
X100538995Y-84157924D01*
X100538996Y-84157922D01*
X100645341Y-84028341D01*
X100774922Y-83921996D01*
X100891036Y-83859932D01*
X100922758Y-83842976D01*
X101083177Y-83794313D01*
X101208196Y-83782000D01*
X101991804Y-83782000D01*
X102116823Y-83794313D01*
X102116823Y-83794313D01*
G37*
G36*
X132596823Y-83794313D02*
G01*
X132757242Y-83842976D01*
X132788964Y-83859932D01*
X132905078Y-83921996D01*
X133034659Y-84028341D01*
X133141004Y-84157922D01*
X133141005Y-84157924D01*
X133220024Y-84305758D01*
X133268687Y-84466177D01*
X133285117Y-84633000D01*
X133268687Y-84799823D01*
X133220024Y-84960242D01*
X133198238Y-85001000D01*
X133141004Y-85108078D01*
X133034659Y-85237659D01*
X132905078Y-85344004D01*
X132905076Y-85344005D01*
X132757242Y-85423024D01*
X132596823Y-85471687D01*
X132471804Y-85484000D01*
X131688196Y-85484000D01*
X131563177Y-85471687D01*
X131402758Y-85423024D01*
X131254924Y-85344005D01*
X131254922Y-85344004D01*
X131125341Y-85237659D01*
X131018996Y-85108078D01*
X130961762Y-85001000D01*
X130939976Y-84960242D01*
X130891313Y-84799823D01*
X130874883Y-84633000D01*
X130891313Y-84466177D01*
X130939976Y-84305758D01*
X131018995Y-84157924D01*
X131018996Y-84157922D01*
X131125341Y-84028341D01*
X131254922Y-83921996D01*
X131371036Y-83859932D01*
X131402758Y-83842976D01*
X131563177Y-83794313D01*
X131688196Y-83782000D01*
X132471804Y-83782000D01*
X132596823Y-83794313D01*
X132596823Y-83794313D01*
G37*
G36*
X166193694Y-81394633D02*
G01*
X166366095Y-81446931D01*
X166524983Y-81531858D01*
X166664249Y-81646151D01*
X166778542Y-81785417D01*
X166863469Y-81944305D01*
X166915767Y-82116706D01*
X166933425Y-82296000D01*
X166915767Y-82475294D01*
X166863469Y-82647695D01*
X166778542Y-82806583D01*
X166664249Y-82945849D01*
X166524983Y-83060142D01*
X166366095Y-83145069D01*
X166193694Y-83197367D01*
X166059331Y-83210600D01*
X165664669Y-83210600D01*
X165530306Y-83197367D01*
X165357905Y-83145069D01*
X165199017Y-83060142D01*
X165059751Y-82945849D01*
X164945458Y-82806583D01*
X164860531Y-82647695D01*
X164808233Y-82475294D01*
X164790575Y-82296000D01*
X164808233Y-82116706D01*
X164860531Y-81944305D01*
X164945458Y-81785417D01*
X165059751Y-81646151D01*
X165199017Y-81531858D01*
X165357905Y-81446931D01*
X165530306Y-81394633D01*
X165664669Y-81381400D01*
X166059331Y-81381400D01*
X166193694Y-81394633D01*
X166193694Y-81394633D01*
G37*
G36*
X162637694Y-81394633D02*
G01*
X162810095Y-81446931D01*
X162968983Y-81531858D01*
X163108249Y-81646151D01*
X163222542Y-81785417D01*
X163307469Y-81944305D01*
X163359767Y-82116706D01*
X163377425Y-82296000D01*
X163359767Y-82475294D01*
X163307469Y-82647695D01*
X163222542Y-82806583D01*
X163108249Y-82945849D01*
X162968983Y-83060142D01*
X162810095Y-83145069D01*
X162637694Y-83197367D01*
X162503331Y-83210600D01*
X162108669Y-83210600D01*
X161974306Y-83197367D01*
X161801905Y-83145069D01*
X161643017Y-83060142D01*
X161503751Y-82945849D01*
X161389458Y-82806583D01*
X161304531Y-82647695D01*
X161252233Y-82475294D01*
X161234575Y-82296000D01*
X161252233Y-82116706D01*
X161304531Y-81944305D01*
X161389458Y-81785417D01*
X161503751Y-81646151D01*
X161643017Y-81531858D01*
X161801905Y-81446931D01*
X161974306Y-81394633D01*
X162108669Y-81381400D01*
X162503331Y-81381400D01*
X162637694Y-81394633D01*
X162637694Y-81394633D01*
G37*
G36*
X141047694Y-81267633D02*
G01*
X141220095Y-81319931D01*
X141378983Y-81404858D01*
X141518249Y-81519151D01*
X141632542Y-81658417D01*
X141717469Y-81817305D01*
X141769767Y-81989706D01*
X141787425Y-82169000D01*
X141769767Y-82348294D01*
X141717469Y-82520695D01*
X141632542Y-82679583D01*
X141518249Y-82818849D01*
X141378983Y-82933142D01*
X141220095Y-83018069D01*
X141047694Y-83070367D01*
X140913331Y-83083600D01*
X140518669Y-83083600D01*
X140384306Y-83070367D01*
X140211905Y-83018069D01*
X140053017Y-82933142D01*
X139913751Y-82818849D01*
X139799458Y-82679583D01*
X139714531Y-82520695D01*
X139662233Y-82348294D01*
X139644575Y-82169000D01*
X139662233Y-81989706D01*
X139714531Y-81817305D01*
X139799458Y-81658417D01*
X139913751Y-81519151D01*
X140053017Y-81404858D01*
X140211905Y-81319931D01*
X140384306Y-81267633D01*
X140518669Y-81254400D01*
X140913331Y-81254400D01*
X141047694Y-81267633D01*
X141047694Y-81267633D01*
G37*
G36*
X79706694Y-81267633D02*
G01*
X79879095Y-81319931D01*
X80037983Y-81404858D01*
X80177249Y-81519151D01*
X80291542Y-81658417D01*
X80376469Y-81817305D01*
X80428767Y-81989706D01*
X80446425Y-82169000D01*
X80428767Y-82348294D01*
X80376469Y-82520695D01*
X80291542Y-82679583D01*
X80177249Y-82818849D01*
X80037983Y-82933142D01*
X79879095Y-83018069D01*
X79706694Y-83070367D01*
X79572331Y-83083600D01*
X79177669Y-83083600D01*
X79043306Y-83070367D01*
X78870905Y-83018069D01*
X78712017Y-82933142D01*
X78572751Y-82818849D01*
X78458458Y-82679583D01*
X78373531Y-82520695D01*
X78321233Y-82348294D01*
X78303575Y-82169000D01*
X78321233Y-81989706D01*
X78373531Y-81817305D01*
X78458458Y-81658417D01*
X78572751Y-81519151D01*
X78712017Y-81404858D01*
X78870905Y-81319931D01*
X79043306Y-81267633D01*
X79177669Y-81254400D01*
X79572331Y-81254400D01*
X79706694Y-81267633D01*
X79706694Y-81267633D01*
G37*
G36*
X93295694Y-81267633D02*
G01*
X93468095Y-81319931D01*
X93626983Y-81404858D01*
X93766249Y-81519151D01*
X93880542Y-81658417D01*
X93965469Y-81817305D01*
X94017767Y-81989706D01*
X94035425Y-82169000D01*
X94017767Y-82348294D01*
X93965469Y-82520695D01*
X93880542Y-82679583D01*
X93766249Y-82818849D01*
X93626983Y-82933142D01*
X93468095Y-83018069D01*
X93295694Y-83070367D01*
X93161331Y-83083600D01*
X92766669Y-83083600D01*
X92632306Y-83070367D01*
X92459905Y-83018069D01*
X92301017Y-82933142D01*
X92161751Y-82818849D01*
X92047458Y-82679583D01*
X91962531Y-82520695D01*
X91910233Y-82348294D01*
X91892575Y-82169000D01*
X91910233Y-81989706D01*
X91962531Y-81817305D01*
X92047458Y-81658417D01*
X92161751Y-81519151D01*
X92301017Y-81404858D01*
X92459905Y-81319931D01*
X92632306Y-81267633D01*
X92766669Y-81254400D01*
X93161331Y-81254400D01*
X93295694Y-81267633D01*
X93295694Y-81267633D01*
G37*
G36*
X102116823Y-81254313D02*
G01*
X102277242Y-81302976D01*
X102308964Y-81319932D01*
X102425078Y-81381996D01*
X102554659Y-81488341D01*
X102661004Y-81617922D01*
X102661005Y-81617924D01*
X102740024Y-81765758D01*
X102788687Y-81926177D01*
X102805117Y-82093000D01*
X102788687Y-82259823D01*
X102740024Y-82420242D01*
X102710598Y-82475294D01*
X102661004Y-82568078D01*
X102554659Y-82697659D01*
X102425078Y-82804004D01*
X102425076Y-82804005D01*
X102277242Y-82883024D01*
X102116823Y-82931687D01*
X101991804Y-82944000D01*
X101208196Y-82944000D01*
X101083177Y-82931687D01*
X100922758Y-82883024D01*
X100774924Y-82804005D01*
X100774922Y-82804004D01*
X100645341Y-82697659D01*
X100538996Y-82568078D01*
X100489402Y-82475294D01*
X100459976Y-82420242D01*
X100411313Y-82259823D01*
X100394883Y-82093000D01*
X100411313Y-81926177D01*
X100459976Y-81765758D01*
X100538995Y-81617924D01*
X100538996Y-81617922D01*
X100645341Y-81488341D01*
X100774922Y-81381996D01*
X100891036Y-81319932D01*
X100922758Y-81302976D01*
X101083177Y-81254313D01*
X101208196Y-81242000D01*
X101991804Y-81242000D01*
X102116823Y-81254313D01*
X102116823Y-81254313D01*
G37*
G36*
X132596823Y-81254313D02*
G01*
X132757242Y-81302976D01*
X132788964Y-81319932D01*
X132905078Y-81381996D01*
X133034659Y-81488341D01*
X133141004Y-81617922D01*
X133141005Y-81617924D01*
X133220024Y-81765758D01*
X133268687Y-81926177D01*
X133285117Y-82093000D01*
X133268687Y-82259823D01*
X133220024Y-82420242D01*
X133190598Y-82475294D01*
X133141004Y-82568078D01*
X133034659Y-82697659D01*
X132905078Y-82804004D01*
X132905076Y-82804005D01*
X132757242Y-82883024D01*
X132596823Y-82931687D01*
X132471804Y-82944000D01*
X131688196Y-82944000D01*
X131563177Y-82931687D01*
X131402758Y-82883024D01*
X131254924Y-82804005D01*
X131254922Y-82804004D01*
X131125341Y-82697659D01*
X131018996Y-82568078D01*
X130969402Y-82475294D01*
X130939976Y-82420242D01*
X130891313Y-82259823D01*
X130874883Y-82093000D01*
X130891313Y-81926177D01*
X130939976Y-81765758D01*
X131018995Y-81617924D01*
X131018996Y-81617922D01*
X131125341Y-81488341D01*
X131254922Y-81381996D01*
X131371036Y-81319932D01*
X131402758Y-81302976D01*
X131563177Y-81254313D01*
X131688196Y-81242000D01*
X132471804Y-81242000D01*
X132596823Y-81254313D01*
X132596823Y-81254313D01*
G37*
G36*
X166193694Y-78854633D02*
G01*
X166366095Y-78906931D01*
X166524983Y-78991858D01*
X166664249Y-79106151D01*
X166778542Y-79245417D01*
X166863469Y-79404305D01*
X166915767Y-79576706D01*
X166933425Y-79756000D01*
X166915767Y-79935294D01*
X166863469Y-80107695D01*
X166778542Y-80266583D01*
X166664249Y-80405849D01*
X166524983Y-80520142D01*
X166366095Y-80605069D01*
X166193694Y-80657367D01*
X166059331Y-80670600D01*
X165664669Y-80670600D01*
X165530306Y-80657367D01*
X165357905Y-80605069D01*
X165199017Y-80520142D01*
X165059751Y-80405849D01*
X164945458Y-80266583D01*
X164860531Y-80107695D01*
X164808233Y-79935294D01*
X164790575Y-79756000D01*
X164808233Y-79576706D01*
X164860531Y-79404305D01*
X164945458Y-79245417D01*
X165059751Y-79106151D01*
X165199017Y-78991858D01*
X165357905Y-78906931D01*
X165530306Y-78854633D01*
X165664669Y-78841400D01*
X166059331Y-78841400D01*
X166193694Y-78854633D01*
X166193694Y-78854633D01*
G37*
G36*
X158801000Y-80670600D02*
G01*
X156667000Y-80670600D01*
X156667000Y-78841400D01*
X158801000Y-78841400D01*
X158801000Y-80670600D01*
X158801000Y-80670600D01*
G37*
G36*
X154509694Y-78854633D02*
G01*
X154682095Y-78906931D01*
X154840983Y-78991858D01*
X154980249Y-79106151D01*
X155094542Y-79245417D01*
X155179469Y-79404305D01*
X155231767Y-79576706D01*
X155249425Y-79756000D01*
X155231767Y-79935294D01*
X155179469Y-80107695D01*
X155094542Y-80266583D01*
X154980249Y-80405849D01*
X154840983Y-80520142D01*
X154682095Y-80605069D01*
X154509694Y-80657367D01*
X154375331Y-80670600D01*
X153980669Y-80670600D01*
X153846306Y-80657367D01*
X153673905Y-80605069D01*
X153515017Y-80520142D01*
X153375751Y-80405849D01*
X153261458Y-80266583D01*
X153176531Y-80107695D01*
X153124233Y-79935294D01*
X153106575Y-79756000D01*
X153124233Y-79576706D01*
X153176531Y-79404305D01*
X153261458Y-79245417D01*
X153375751Y-79106151D01*
X153515017Y-78991858D01*
X153673905Y-78906931D01*
X153846306Y-78854633D01*
X153980669Y-78841400D01*
X154375331Y-78841400D01*
X154509694Y-78854633D01*
X154509694Y-78854633D01*
G37*
G36*
X162637694Y-78854633D02*
G01*
X162810095Y-78906931D01*
X162968983Y-78991858D01*
X163108249Y-79106151D01*
X163222542Y-79245417D01*
X163307469Y-79404305D01*
X163359767Y-79576706D01*
X163377425Y-79756000D01*
X163359767Y-79935294D01*
X163307469Y-80107695D01*
X163222542Y-80266583D01*
X163108249Y-80405849D01*
X162968983Y-80520142D01*
X162810095Y-80605069D01*
X162637694Y-80657367D01*
X162503331Y-80670600D01*
X162108669Y-80670600D01*
X161974306Y-80657367D01*
X161801905Y-80605069D01*
X161643017Y-80520142D01*
X161503751Y-80405849D01*
X161389458Y-80266583D01*
X161304531Y-80107695D01*
X161252233Y-79935294D01*
X161234575Y-79756000D01*
X161252233Y-79576706D01*
X161304531Y-79404305D01*
X161389458Y-79245417D01*
X161503751Y-79106151D01*
X161643017Y-78991858D01*
X161801905Y-78906931D01*
X161974306Y-78854633D01*
X162108669Y-78841400D01*
X162503331Y-78841400D01*
X162637694Y-78854633D01*
X162637694Y-78854633D01*
G37*
G36*
X79706694Y-78727633D02*
G01*
X79879095Y-78779931D01*
X80037983Y-78864858D01*
X80177249Y-78979151D01*
X80291542Y-79118417D01*
X80376469Y-79277305D01*
X80428767Y-79449706D01*
X80446425Y-79629000D01*
X80428767Y-79808294D01*
X80376469Y-79980695D01*
X80291542Y-80139583D01*
X80177249Y-80278849D01*
X80037983Y-80393142D01*
X79879095Y-80478069D01*
X79706694Y-80530367D01*
X79572331Y-80543600D01*
X79177669Y-80543600D01*
X79043306Y-80530367D01*
X78870905Y-80478069D01*
X78712017Y-80393142D01*
X78572751Y-80278849D01*
X78458458Y-80139583D01*
X78373531Y-79980695D01*
X78321233Y-79808294D01*
X78303575Y-79629000D01*
X78321233Y-79449706D01*
X78373531Y-79277305D01*
X78458458Y-79118417D01*
X78572751Y-78979151D01*
X78712017Y-78864858D01*
X78870905Y-78779931D01*
X79043306Y-78727633D01*
X79177669Y-78714400D01*
X79572331Y-78714400D01*
X79706694Y-78727633D01*
X79706694Y-78727633D01*
G37*
G36*
X93295694Y-78727633D02*
G01*
X93468095Y-78779931D01*
X93626983Y-78864858D01*
X93766249Y-78979151D01*
X93880542Y-79118417D01*
X93965469Y-79277305D01*
X94017767Y-79449706D01*
X94035425Y-79629000D01*
X94017767Y-79808294D01*
X93965469Y-79980695D01*
X93880542Y-80139583D01*
X93766249Y-80278849D01*
X93626983Y-80393142D01*
X93468095Y-80478069D01*
X93295694Y-80530367D01*
X93161331Y-80543600D01*
X92766669Y-80543600D01*
X92632306Y-80530367D01*
X92459905Y-80478069D01*
X92301017Y-80393142D01*
X92161751Y-80278849D01*
X92047458Y-80139583D01*
X91962531Y-79980695D01*
X91910233Y-79808294D01*
X91892575Y-79629000D01*
X91910233Y-79449706D01*
X91962531Y-79277305D01*
X92047458Y-79118417D01*
X92161751Y-78979151D01*
X92301017Y-78864858D01*
X92459905Y-78779931D01*
X92632306Y-78727633D01*
X92766669Y-78714400D01*
X93161331Y-78714400D01*
X93295694Y-78727633D01*
X93295694Y-78727633D01*
G37*
G36*
X141047694Y-78727633D02*
G01*
X141220095Y-78779931D01*
X141378983Y-78864858D01*
X141518249Y-78979151D01*
X141632542Y-79118417D01*
X141717469Y-79277305D01*
X141769767Y-79449706D01*
X141787425Y-79629000D01*
X141769767Y-79808294D01*
X141717469Y-79980695D01*
X141632542Y-80139583D01*
X141518249Y-80278849D01*
X141378983Y-80393142D01*
X141220095Y-80478069D01*
X141047694Y-80530367D01*
X140913331Y-80543600D01*
X140518669Y-80543600D01*
X140384306Y-80530367D01*
X140211905Y-80478069D01*
X140053017Y-80393142D01*
X139913751Y-80278849D01*
X139799458Y-80139583D01*
X139714531Y-79980695D01*
X139662233Y-79808294D01*
X139644575Y-79629000D01*
X139662233Y-79449706D01*
X139714531Y-79277305D01*
X139799458Y-79118417D01*
X139913751Y-78979151D01*
X140053017Y-78864858D01*
X140211905Y-78779931D01*
X140384306Y-78727633D01*
X140518669Y-78714400D01*
X140913331Y-78714400D01*
X141047694Y-78727633D01*
X141047694Y-78727633D01*
G37*
G36*
X132596823Y-78714313D02*
G01*
X132757242Y-78762976D01*
X132788964Y-78779932D01*
X132905078Y-78841996D01*
X133034659Y-78948341D01*
X133141004Y-79077922D01*
X133141005Y-79077924D01*
X133220024Y-79225758D01*
X133268687Y-79386177D01*
X133285117Y-79553000D01*
X133268687Y-79719823D01*
X133220024Y-79880242D01*
X133190598Y-79935294D01*
X133141004Y-80028078D01*
X133034659Y-80157659D01*
X132905078Y-80264004D01*
X132905076Y-80264005D01*
X132757242Y-80343024D01*
X132596823Y-80391687D01*
X132471804Y-80404000D01*
X131688196Y-80404000D01*
X131563177Y-80391687D01*
X131402758Y-80343024D01*
X131254924Y-80264005D01*
X131254922Y-80264004D01*
X131125341Y-80157659D01*
X131018996Y-80028078D01*
X130969402Y-79935294D01*
X130939976Y-79880242D01*
X130891313Y-79719823D01*
X130874883Y-79553000D01*
X130891313Y-79386177D01*
X130939976Y-79225758D01*
X131018995Y-79077924D01*
X131018996Y-79077922D01*
X131125341Y-78948341D01*
X131254922Y-78841996D01*
X131371036Y-78779932D01*
X131402758Y-78762976D01*
X131563177Y-78714313D01*
X131688196Y-78702000D01*
X132471804Y-78702000D01*
X132596823Y-78714313D01*
X132596823Y-78714313D01*
G37*
G36*
X102116823Y-78714313D02*
G01*
X102277242Y-78762976D01*
X102308964Y-78779932D01*
X102425078Y-78841996D01*
X102554659Y-78948341D01*
X102661004Y-79077922D01*
X102661005Y-79077924D01*
X102740024Y-79225758D01*
X102788687Y-79386177D01*
X102805117Y-79553000D01*
X102788687Y-79719823D01*
X102740024Y-79880242D01*
X102710598Y-79935294D01*
X102661004Y-80028078D01*
X102554659Y-80157659D01*
X102425078Y-80264004D01*
X102425076Y-80264005D01*
X102277242Y-80343024D01*
X102116823Y-80391687D01*
X101991804Y-80404000D01*
X101208196Y-80404000D01*
X101083177Y-80391687D01*
X100922758Y-80343024D01*
X100774924Y-80264005D01*
X100774922Y-80264004D01*
X100645341Y-80157659D01*
X100538996Y-80028078D01*
X100489402Y-79935294D01*
X100459976Y-79880242D01*
X100411313Y-79719823D01*
X100394883Y-79553000D01*
X100411313Y-79386177D01*
X100459976Y-79225758D01*
X100538995Y-79077924D01*
X100538996Y-79077922D01*
X100645341Y-78948341D01*
X100774922Y-78841996D01*
X100891036Y-78779932D01*
X100922758Y-78762976D01*
X101083177Y-78714313D01*
X101208196Y-78702000D01*
X101991804Y-78702000D01*
X102116823Y-78714313D01*
X102116823Y-78714313D01*
G37*
G36*
X158065694Y-76314633D02*
G01*
X158238095Y-76366931D01*
X158396983Y-76451858D01*
X158536249Y-76566151D01*
X158650542Y-76705417D01*
X158735469Y-76864305D01*
X158787767Y-77036706D01*
X158805425Y-77216000D01*
X158787767Y-77395294D01*
X158735469Y-77567695D01*
X158650542Y-77726583D01*
X158536249Y-77865849D01*
X158396983Y-77980142D01*
X158238095Y-78065069D01*
X158065694Y-78117367D01*
X157931331Y-78130600D01*
X157536669Y-78130600D01*
X157402306Y-78117367D01*
X157229905Y-78065069D01*
X157071017Y-77980142D01*
X156931751Y-77865849D01*
X156817458Y-77726583D01*
X156732531Y-77567695D01*
X156680233Y-77395294D01*
X156662575Y-77216000D01*
X156680233Y-77036706D01*
X156732531Y-76864305D01*
X156817458Y-76705417D01*
X156931751Y-76566151D01*
X157071017Y-76451858D01*
X157229905Y-76366931D01*
X157402306Y-76314633D01*
X157536669Y-76301400D01*
X157931331Y-76301400D01*
X158065694Y-76314633D01*
X158065694Y-76314633D01*
G37*
G36*
X166193694Y-76314633D02*
G01*
X166366095Y-76366931D01*
X166524983Y-76451858D01*
X166664249Y-76566151D01*
X166778542Y-76705417D01*
X166863469Y-76864305D01*
X166915767Y-77036706D01*
X166933425Y-77216000D01*
X166915767Y-77395294D01*
X166863469Y-77567695D01*
X166778542Y-77726583D01*
X166664249Y-77865849D01*
X166524983Y-77980142D01*
X166366095Y-78065069D01*
X166193694Y-78117367D01*
X166059331Y-78130600D01*
X165664669Y-78130600D01*
X165530306Y-78117367D01*
X165357905Y-78065069D01*
X165199017Y-77980142D01*
X165059751Y-77865849D01*
X164945458Y-77726583D01*
X164860531Y-77567695D01*
X164808233Y-77395294D01*
X164790575Y-77216000D01*
X164808233Y-77036706D01*
X164860531Y-76864305D01*
X164945458Y-76705417D01*
X165059751Y-76566151D01*
X165199017Y-76451858D01*
X165357905Y-76366931D01*
X165530306Y-76314633D01*
X165664669Y-76301400D01*
X166059331Y-76301400D01*
X166193694Y-76314633D01*
X166193694Y-76314633D01*
G37*
G36*
X162637694Y-76314633D02*
G01*
X162810095Y-76366931D01*
X162968983Y-76451858D01*
X163108249Y-76566151D01*
X163222542Y-76705417D01*
X163307469Y-76864305D01*
X163359767Y-77036706D01*
X163377425Y-77216000D01*
X163359767Y-77395294D01*
X163307469Y-77567695D01*
X163222542Y-77726583D01*
X163108249Y-77865849D01*
X162968983Y-77980142D01*
X162810095Y-78065069D01*
X162637694Y-78117367D01*
X162503331Y-78130600D01*
X162108669Y-78130600D01*
X161974306Y-78117367D01*
X161801905Y-78065069D01*
X161643017Y-77980142D01*
X161503751Y-77865849D01*
X161389458Y-77726583D01*
X161304531Y-77567695D01*
X161252233Y-77395294D01*
X161234575Y-77216000D01*
X161252233Y-77036706D01*
X161304531Y-76864305D01*
X161389458Y-76705417D01*
X161503751Y-76566151D01*
X161643017Y-76451858D01*
X161801905Y-76366931D01*
X161974306Y-76314633D01*
X162108669Y-76301400D01*
X162503331Y-76301400D01*
X162637694Y-76314633D01*
X162637694Y-76314633D01*
G37*
G36*
X154509694Y-76314633D02*
G01*
X154682095Y-76366931D01*
X154840983Y-76451858D01*
X154980249Y-76566151D01*
X155094542Y-76705417D01*
X155179469Y-76864305D01*
X155231767Y-77036706D01*
X155249425Y-77216000D01*
X155231767Y-77395294D01*
X155179469Y-77567695D01*
X155094542Y-77726583D01*
X154980249Y-77865849D01*
X154840983Y-77980142D01*
X154682095Y-78065069D01*
X154509694Y-78117367D01*
X154375331Y-78130600D01*
X153980669Y-78130600D01*
X153846306Y-78117367D01*
X153673905Y-78065069D01*
X153515017Y-77980142D01*
X153375751Y-77865849D01*
X153261458Y-77726583D01*
X153176531Y-77567695D01*
X153124233Y-77395294D01*
X153106575Y-77216000D01*
X153124233Y-77036706D01*
X153176531Y-76864305D01*
X153261458Y-76705417D01*
X153375751Y-76566151D01*
X153515017Y-76451858D01*
X153673905Y-76366931D01*
X153846306Y-76314633D01*
X153980669Y-76301400D01*
X154375331Y-76301400D01*
X154509694Y-76314633D01*
X154509694Y-76314633D01*
G37*
G36*
X93295694Y-76187633D02*
G01*
X93468095Y-76239931D01*
X93626983Y-76324858D01*
X93766249Y-76439151D01*
X93880542Y-76578417D01*
X93965469Y-76737305D01*
X94017767Y-76909706D01*
X94035425Y-77089000D01*
X94017767Y-77268294D01*
X93965469Y-77440695D01*
X93880542Y-77599583D01*
X93766249Y-77738849D01*
X93626983Y-77853142D01*
X93468095Y-77938069D01*
X93295694Y-77990367D01*
X93161331Y-78003600D01*
X92766669Y-78003600D01*
X92632306Y-77990367D01*
X92459905Y-77938069D01*
X92301017Y-77853142D01*
X92161751Y-77738849D01*
X92047458Y-77599583D01*
X91962531Y-77440695D01*
X91910233Y-77268294D01*
X91892575Y-77089000D01*
X91910233Y-76909706D01*
X91962531Y-76737305D01*
X92047458Y-76578417D01*
X92161751Y-76439151D01*
X92301017Y-76324858D01*
X92459905Y-76239931D01*
X92632306Y-76187633D01*
X92766669Y-76174400D01*
X93161331Y-76174400D01*
X93295694Y-76187633D01*
X93295694Y-76187633D01*
G37*
G36*
X79706694Y-76187633D02*
G01*
X79879095Y-76239931D01*
X80037983Y-76324858D01*
X80177249Y-76439151D01*
X80291542Y-76578417D01*
X80376469Y-76737305D01*
X80428767Y-76909706D01*
X80446425Y-77089000D01*
X80428767Y-77268294D01*
X80376469Y-77440695D01*
X80291542Y-77599583D01*
X80177249Y-77738849D01*
X80037983Y-77853142D01*
X79879095Y-77938069D01*
X79706694Y-77990367D01*
X79572331Y-78003600D01*
X79177669Y-78003600D01*
X79043306Y-77990367D01*
X78870905Y-77938069D01*
X78712017Y-77853142D01*
X78572751Y-77738849D01*
X78458458Y-77599583D01*
X78373531Y-77440695D01*
X78321233Y-77268294D01*
X78303575Y-77089000D01*
X78321233Y-76909706D01*
X78373531Y-76737305D01*
X78458458Y-76578417D01*
X78572751Y-76439151D01*
X78712017Y-76324858D01*
X78870905Y-76239931D01*
X79043306Y-76187633D01*
X79177669Y-76174400D01*
X79572331Y-76174400D01*
X79706694Y-76187633D01*
X79706694Y-76187633D01*
G37*
G36*
X141047694Y-76187633D02*
G01*
X141220095Y-76239931D01*
X141378983Y-76324858D01*
X141518249Y-76439151D01*
X141632542Y-76578417D01*
X141717469Y-76737305D01*
X141769767Y-76909706D01*
X141787425Y-77089000D01*
X141769767Y-77268294D01*
X141717469Y-77440695D01*
X141632542Y-77599583D01*
X141518249Y-77738849D01*
X141378983Y-77853142D01*
X141220095Y-77938069D01*
X141047694Y-77990367D01*
X140913331Y-78003600D01*
X140518669Y-78003600D01*
X140384306Y-77990367D01*
X140211905Y-77938069D01*
X140053017Y-77853142D01*
X139913751Y-77738849D01*
X139799458Y-77599583D01*
X139714531Y-77440695D01*
X139662233Y-77268294D01*
X139644575Y-77089000D01*
X139662233Y-76909706D01*
X139714531Y-76737305D01*
X139799458Y-76578417D01*
X139913751Y-76439151D01*
X140053017Y-76324858D01*
X140211905Y-76239931D01*
X140384306Y-76187633D01*
X140518669Y-76174400D01*
X140913331Y-76174400D01*
X141047694Y-76187633D01*
X141047694Y-76187633D01*
G37*
G36*
X102116823Y-76174313D02*
G01*
X102277242Y-76222976D01*
X102308964Y-76239932D01*
X102425078Y-76301996D01*
X102554659Y-76408341D01*
X102661004Y-76537922D01*
X102661005Y-76537924D01*
X102740024Y-76685758D01*
X102788687Y-76846177D01*
X102805117Y-77013000D01*
X102788687Y-77179823D01*
X102740024Y-77340242D01*
X102710598Y-77395294D01*
X102661004Y-77488078D01*
X102554659Y-77617659D01*
X102425078Y-77724004D01*
X102425076Y-77724005D01*
X102277242Y-77803024D01*
X102116823Y-77851687D01*
X101991804Y-77864000D01*
X101208196Y-77864000D01*
X101083177Y-77851687D01*
X100922758Y-77803024D01*
X100774924Y-77724005D01*
X100774922Y-77724004D01*
X100645341Y-77617659D01*
X100538996Y-77488078D01*
X100489402Y-77395294D01*
X100459976Y-77340242D01*
X100411313Y-77179823D01*
X100394883Y-77013000D01*
X100411313Y-76846177D01*
X100459976Y-76685758D01*
X100538995Y-76537924D01*
X100538996Y-76537922D01*
X100645341Y-76408341D01*
X100774922Y-76301996D01*
X100891036Y-76239932D01*
X100922758Y-76222976D01*
X101083177Y-76174313D01*
X101208196Y-76162000D01*
X101991804Y-76162000D01*
X102116823Y-76174313D01*
X102116823Y-76174313D01*
G37*
G36*
X132596823Y-76174313D02*
G01*
X132757242Y-76222976D01*
X132788964Y-76239932D01*
X132905078Y-76301996D01*
X133034659Y-76408341D01*
X133141004Y-76537922D01*
X133141005Y-76537924D01*
X133220024Y-76685758D01*
X133268687Y-76846177D01*
X133285117Y-77013000D01*
X133268687Y-77179823D01*
X133220024Y-77340242D01*
X133190598Y-77395294D01*
X133141004Y-77488078D01*
X133034659Y-77617659D01*
X132905078Y-77724004D01*
X132905076Y-77724005D01*
X132757242Y-77803024D01*
X132596823Y-77851687D01*
X132471804Y-77864000D01*
X131688196Y-77864000D01*
X131563177Y-77851687D01*
X131402758Y-77803024D01*
X131254924Y-77724005D01*
X131254922Y-77724004D01*
X131125341Y-77617659D01*
X131018996Y-77488078D01*
X130969402Y-77395294D01*
X130939976Y-77340242D01*
X130891313Y-77179823D01*
X130874883Y-77013000D01*
X130891313Y-76846177D01*
X130939976Y-76685758D01*
X131018995Y-76537924D01*
X131018996Y-76537922D01*
X131125341Y-76408341D01*
X131254922Y-76301996D01*
X131371036Y-76239932D01*
X131402758Y-76222976D01*
X131563177Y-76174313D01*
X131688196Y-76162000D01*
X132471804Y-76162000D01*
X132596823Y-76174313D01*
X132596823Y-76174313D01*
G37*
G36*
X155245000Y-75590600D02*
G01*
X153111000Y-75590600D01*
X153111000Y-73761400D01*
X155245000Y-73761400D01*
X155245000Y-75590600D01*
X155245000Y-75590600D01*
G37*
G36*
X158065694Y-73774633D02*
G01*
X158238095Y-73826931D01*
X158396983Y-73911858D01*
X158536249Y-74026151D01*
X158650542Y-74165417D01*
X158735469Y-74324305D01*
X158787767Y-74496706D01*
X158805425Y-74676000D01*
X158787767Y-74855294D01*
X158735469Y-75027695D01*
X158650542Y-75186583D01*
X158536249Y-75325849D01*
X158396983Y-75440142D01*
X158238095Y-75525069D01*
X158065694Y-75577367D01*
X157931331Y-75590600D01*
X157536669Y-75590600D01*
X157402306Y-75577367D01*
X157229905Y-75525069D01*
X157071017Y-75440142D01*
X156931751Y-75325849D01*
X156817458Y-75186583D01*
X156732531Y-75027695D01*
X156680233Y-74855294D01*
X156662575Y-74676000D01*
X156680233Y-74496706D01*
X156732531Y-74324305D01*
X156817458Y-74165417D01*
X156931751Y-74026151D01*
X157071017Y-73911858D01*
X157229905Y-73826931D01*
X157402306Y-73774633D01*
X157536669Y-73761400D01*
X157931331Y-73761400D01*
X158065694Y-73774633D01*
X158065694Y-73774633D01*
G37*
G36*
X163373000Y-75590600D02*
G01*
X161239000Y-75590600D01*
X161239000Y-73761400D01*
X163373000Y-73761400D01*
X163373000Y-75590600D01*
X163373000Y-75590600D01*
G37*
G36*
X166929000Y-75590600D02*
G01*
X164795000Y-75590600D01*
X164795000Y-73761400D01*
X166929000Y-73761400D01*
X166929000Y-75590600D01*
X166929000Y-75590600D01*
G37*
G36*
X80442000Y-75463600D02*
G01*
X78308000Y-75463600D01*
X78308000Y-73634400D01*
X80442000Y-73634400D01*
X80442000Y-75463600D01*
X80442000Y-75463600D01*
G37*
G36*
X141047694Y-73647633D02*
G01*
X141220095Y-73699931D01*
X141378983Y-73784858D01*
X141518249Y-73899151D01*
X141632542Y-74038417D01*
X141717469Y-74197305D01*
X141769767Y-74369706D01*
X141787425Y-74549000D01*
X141769767Y-74728294D01*
X141717469Y-74900695D01*
X141632542Y-75059583D01*
X141518249Y-75198849D01*
X141378983Y-75313142D01*
X141220095Y-75398069D01*
X141047694Y-75450367D01*
X140913331Y-75463600D01*
X140518669Y-75463600D01*
X140384306Y-75450367D01*
X140211905Y-75398069D01*
X140053017Y-75313142D01*
X139913751Y-75198849D01*
X139799458Y-75059583D01*
X139714531Y-74900695D01*
X139662233Y-74728294D01*
X139644575Y-74549000D01*
X139662233Y-74369706D01*
X139714531Y-74197305D01*
X139799458Y-74038417D01*
X139913751Y-73899151D01*
X140053017Y-73784858D01*
X140211905Y-73699931D01*
X140384306Y-73647633D01*
X140518669Y-73634400D01*
X140913331Y-73634400D01*
X141047694Y-73647633D01*
X141047694Y-73647633D01*
G37*
G36*
X102116823Y-73634313D02*
G01*
X102277242Y-73682976D01*
X102308964Y-73699932D01*
X102425078Y-73761996D01*
X102554659Y-73868341D01*
X102661004Y-73997922D01*
X102661005Y-73997924D01*
X102740024Y-74145758D01*
X102788687Y-74306177D01*
X102805117Y-74473000D01*
X102788687Y-74639823D01*
X102740024Y-74800242D01*
X102710598Y-74855294D01*
X102661004Y-74948078D01*
X102554659Y-75077659D01*
X102425078Y-75184004D01*
X102425076Y-75184005D01*
X102277242Y-75263024D01*
X102116823Y-75311687D01*
X101991804Y-75324000D01*
X101208196Y-75324000D01*
X101083177Y-75311687D01*
X100922758Y-75263024D01*
X100774924Y-75184005D01*
X100774922Y-75184004D01*
X100645341Y-75077659D01*
X100538996Y-74948078D01*
X100489402Y-74855294D01*
X100459976Y-74800242D01*
X100411313Y-74639823D01*
X100394883Y-74473000D01*
X100411313Y-74306177D01*
X100459976Y-74145758D01*
X100538995Y-73997924D01*
X100538996Y-73997922D01*
X100645341Y-73868341D01*
X100774922Y-73761996D01*
X100891036Y-73699932D01*
X100922758Y-73682976D01*
X101083177Y-73634313D01*
X101208196Y-73622000D01*
X101991804Y-73622000D01*
X102116823Y-73634313D01*
X102116823Y-73634313D01*
G37*
G36*
X132596823Y-73634313D02*
G01*
X132757242Y-73682976D01*
X132788964Y-73699932D01*
X132905078Y-73761996D01*
X133034659Y-73868341D01*
X133141004Y-73997922D01*
X133141005Y-73997924D01*
X133220024Y-74145758D01*
X133268687Y-74306177D01*
X133285117Y-74473000D01*
X133268687Y-74639823D01*
X133220024Y-74800242D01*
X133190598Y-74855294D01*
X133141004Y-74948078D01*
X133034659Y-75077659D01*
X132905078Y-75184004D01*
X132905076Y-75184005D01*
X132757242Y-75263024D01*
X132596823Y-75311687D01*
X132471804Y-75324000D01*
X131688196Y-75324000D01*
X131563177Y-75311687D01*
X131402758Y-75263024D01*
X131254924Y-75184005D01*
X131254922Y-75184004D01*
X131125341Y-75077659D01*
X131018996Y-74948078D01*
X130969402Y-74855294D01*
X130939976Y-74800242D01*
X130891313Y-74639823D01*
X130874883Y-74473000D01*
X130891313Y-74306177D01*
X130939976Y-74145758D01*
X131018995Y-73997924D01*
X131018996Y-73997922D01*
X131125341Y-73868341D01*
X131254922Y-73761996D01*
X131371036Y-73699932D01*
X131402758Y-73682976D01*
X131563177Y-73634313D01*
X131688196Y-73622000D01*
X132471804Y-73622000D01*
X132596823Y-73634313D01*
X132596823Y-73634313D01*
G37*
G36*
X141783000Y-72923600D02*
G01*
X139649000Y-72923600D01*
X139649000Y-71094400D01*
X141783000Y-71094400D01*
X141783000Y-72923600D01*
X141783000Y-72923600D01*
G37*
G36*
X89691564Y-69474389D02*
G01*
X89882833Y-69553615D01*
X89882835Y-69553616D01*
X90054973Y-69668635D01*
X90201365Y-69815027D01*
X90316385Y-69987167D01*
X90395611Y-70178436D01*
X90436000Y-70381484D01*
X90436000Y-70588516D01*
X90395611Y-70791564D01*
X90316385Y-70982833D01*
X90316384Y-70982835D01*
X90201365Y-71154973D01*
X90054973Y-71301365D01*
X89882835Y-71416384D01*
X89882834Y-71416385D01*
X89882833Y-71416385D01*
X89691564Y-71495611D01*
X89488516Y-71536000D01*
X89281484Y-71536000D01*
X89078436Y-71495611D01*
X88887167Y-71416385D01*
X88887166Y-71416385D01*
X88887165Y-71416384D01*
X88715027Y-71301365D01*
X88568635Y-71154973D01*
X88453616Y-70982835D01*
X88453615Y-70982833D01*
X88374389Y-70791564D01*
X88334000Y-70588516D01*
X88334000Y-70381484D01*
X88374389Y-70178436D01*
X88453615Y-69987167D01*
X88568635Y-69815027D01*
X88715027Y-69668635D01*
X88887165Y-69553616D01*
X88887167Y-69553615D01*
X89078436Y-69474389D01*
X89281484Y-69434000D01*
X89488516Y-69434000D01*
X89691564Y-69474389D01*
X89691564Y-69474389D01*
G37*
G36*
X96191564Y-69474389D02*
G01*
X96382833Y-69553615D01*
X96382835Y-69553616D01*
X96554973Y-69668635D01*
X96701365Y-69815027D01*
X96816385Y-69987167D01*
X96895611Y-70178436D01*
X96936000Y-70381484D01*
X96936000Y-70588516D01*
X96895611Y-70791564D01*
X96816385Y-70982833D01*
X96816384Y-70982835D01*
X96701365Y-71154973D01*
X96554973Y-71301365D01*
X96382835Y-71416384D01*
X96382834Y-71416385D01*
X96382833Y-71416385D01*
X96191564Y-71495611D01*
X95988516Y-71536000D01*
X95781484Y-71536000D01*
X95578436Y-71495611D01*
X95387167Y-71416385D01*
X95387166Y-71416385D01*
X95387165Y-71416384D01*
X95215027Y-71301365D01*
X95068635Y-71154973D01*
X94953616Y-70982835D01*
X94953615Y-70982833D01*
X94874389Y-70791564D01*
X94834000Y-70588516D01*
X94834000Y-70381484D01*
X94874389Y-70178436D01*
X94953615Y-69987167D01*
X95068635Y-69815027D01*
X95215027Y-69668635D01*
X95387165Y-69553616D01*
X95387167Y-69553615D01*
X95578436Y-69474389D01*
X95781484Y-69434000D01*
X95988516Y-69434000D01*
X96191564Y-69474389D01*
X96191564Y-69474389D01*
G37*
G36*
X155079000Y-70277000D02*
G01*
X153277000Y-70277000D01*
X153277000Y-69275000D01*
X155079000Y-69275000D01*
X155079000Y-70277000D01*
X155079000Y-70277000D01*
G37*
G36*
X158635000Y-70277000D02*
G01*
X156833000Y-70277000D01*
X156833000Y-69275000D01*
X158635000Y-69275000D01*
X158635000Y-70277000D01*
X158635000Y-70277000D01*
G37*
G36*
X101485000Y-69515000D02*
G01*
X99683000Y-69515000D01*
X99683000Y-68513000D01*
X101485000Y-68513000D01*
X101485000Y-69515000D01*
X101485000Y-69515000D01*
G37*
G36*
X155079000Y-67377000D02*
G01*
X153277000Y-67377000D01*
X153277000Y-66375000D01*
X155079000Y-66375000D01*
X155079000Y-67377000D01*
X155079000Y-67377000D01*
G37*
G36*
X158635000Y-67377000D02*
G01*
X156833000Y-67377000D01*
X156833000Y-66375000D01*
X158635000Y-66375000D01*
X158635000Y-67377000D01*
X158635000Y-67377000D01*
G37*
G36*
X89691564Y-64974389D02*
G01*
X89882833Y-65053615D01*
X89882835Y-65053616D01*
X90054973Y-65168635D01*
X90201365Y-65315027D01*
X90316385Y-65487167D01*
X90395611Y-65678436D01*
X90436000Y-65881484D01*
X90436000Y-66088516D01*
X90395611Y-66291564D01*
X90316385Y-66482833D01*
X90316384Y-66482835D01*
X90201365Y-66654973D01*
X90054973Y-66801365D01*
X89882835Y-66916384D01*
X89882834Y-66916385D01*
X89882833Y-66916385D01*
X89691564Y-66995611D01*
X89488516Y-67036000D01*
X89281484Y-67036000D01*
X89078436Y-66995611D01*
X88887167Y-66916385D01*
X88887166Y-66916385D01*
X88887165Y-66916384D01*
X88715027Y-66801365D01*
X88568635Y-66654973D01*
X88453616Y-66482835D01*
X88453615Y-66482833D01*
X88374389Y-66291564D01*
X88334000Y-66088516D01*
X88334000Y-65881484D01*
X88374389Y-65678436D01*
X88453615Y-65487167D01*
X88568635Y-65315027D01*
X88715027Y-65168635D01*
X88887165Y-65053616D01*
X88887167Y-65053615D01*
X89078436Y-64974389D01*
X89281484Y-64934000D01*
X89488516Y-64934000D01*
X89691564Y-64974389D01*
X89691564Y-64974389D01*
G37*
G36*
X96191564Y-64974389D02*
G01*
X96382833Y-65053615D01*
X96382835Y-65053616D01*
X96554973Y-65168635D01*
X96701365Y-65315027D01*
X96816385Y-65487167D01*
X96895611Y-65678436D01*
X96936000Y-65881484D01*
X96936000Y-66088516D01*
X96895611Y-66291564D01*
X96816385Y-66482833D01*
X96816384Y-66482835D01*
X96701365Y-66654973D01*
X96554973Y-66801365D01*
X96382835Y-66916384D01*
X96382834Y-66916385D01*
X96382833Y-66916385D01*
X96191564Y-66995611D01*
X95988516Y-67036000D01*
X95781484Y-67036000D01*
X95578436Y-66995611D01*
X95387167Y-66916385D01*
X95387166Y-66916385D01*
X95387165Y-66916384D01*
X95215027Y-66801365D01*
X95068635Y-66654973D01*
X94953616Y-66482835D01*
X94953615Y-66482833D01*
X94874389Y-66291564D01*
X94834000Y-66088516D01*
X94834000Y-65881484D01*
X94874389Y-65678436D01*
X94953615Y-65487167D01*
X95068635Y-65315027D01*
X95215027Y-65168635D01*
X95387165Y-65053616D01*
X95387167Y-65053615D01*
X95578436Y-64974389D01*
X95781484Y-64934000D01*
X95988516Y-64934000D01*
X96191564Y-64974389D01*
X96191564Y-64974389D01*
G37*
G36*
X101485000Y-66615000D02*
G01*
X99683000Y-66615000D01*
X99683000Y-65613000D01*
X101485000Y-65613000D01*
X101485000Y-66615000D01*
X101485000Y-66615000D01*
G37*
G36*
X114850110Y-64959430D02*
G01*
X113150450Y-64959430D01*
X113150450Y-63056570D01*
X114850110Y-63056570D01*
X114850110Y-64959430D01*
X114850110Y-64959430D01*
G37*
G36*
X117689830Y-64959430D02*
G01*
X115990170Y-64959430D01*
X115990170Y-63056570D01*
X117689830Y-63056570D01*
X117689830Y-64959430D01*
X117689830Y-64959430D01*
G37*
G36*
X124887000Y-64909000D02*
G01*
X123885000Y-64909000D01*
X123885000Y-63107000D01*
X124887000Y-63107000D01*
X124887000Y-64909000D01*
X124887000Y-64909000D01*
G37*
G36*
X121987000Y-64909000D02*
G01*
X120985000Y-64909000D01*
X120985000Y-63107000D01*
X121987000Y-63107000D01*
X121987000Y-64909000D01*
X121987000Y-64909000D01*
G37*
G36*
X104751000Y-62358000D02*
G01*
X103529000Y-62358000D01*
X103529000Y-59816000D01*
X104751000Y-59816000D01*
X104751000Y-62358000D01*
X104751000Y-62358000D01*
G37*
G36*
X107291000Y-62358000D02*
G01*
X106069000Y-62358000D01*
X106069000Y-59816000D01*
X107291000Y-59816000D01*
X107291000Y-62358000D01*
X107291000Y-62358000D01*
G37*
G36*
X102211000Y-62358000D02*
G01*
X100989000Y-62358000D01*
X100989000Y-59816000D01*
X102211000Y-59816000D01*
X102211000Y-62358000D01*
X102211000Y-62358000D01*
G37*
G36*
X168638098Y-54951033D02*
G01*
X169102350Y-55143332D01*
X169102352Y-55143333D01*
X169520168Y-55422509D01*
X169875491Y-55777832D01*
X170029284Y-56008000D01*
X170154668Y-56195650D01*
X170346967Y-56659902D01*
X170445000Y-57152747D01*
X170445000Y-57655253D01*
X170346967Y-58148098D01*
X170218698Y-58457767D01*
X170154667Y-58612352D01*
X169875491Y-59030168D01*
X169520168Y-59385491D01*
X169102352Y-59664667D01*
X169102351Y-59664668D01*
X169102350Y-59664668D01*
X168638098Y-59856967D01*
X168145253Y-59955000D01*
X167642747Y-59955000D01*
X167149902Y-59856967D01*
X166685650Y-59664668D01*
X166685649Y-59664668D01*
X166685648Y-59664667D01*
X166267832Y-59385491D01*
X165912509Y-59030168D01*
X165633333Y-58612352D01*
X165569302Y-58457767D01*
X165441033Y-58148098D01*
X165343000Y-57655253D01*
X165343000Y-57152747D01*
X165441033Y-56659902D01*
X165633332Y-56195650D01*
X165758716Y-56008000D01*
X165912509Y-55777832D01*
X166267832Y-55422509D01*
X166685648Y-55143333D01*
X166685650Y-55143332D01*
X167149902Y-54951033D01*
X167642747Y-54853000D01*
X168145253Y-54853000D01*
X168638098Y-54951033D01*
X168638098Y-54951033D01*
G37*
G36*
X82532098Y-54951033D02*
G01*
X82996350Y-55143332D01*
X82996352Y-55143333D01*
X83414168Y-55422509D01*
X83769491Y-55777832D01*
X83923284Y-56008000D01*
X84048668Y-56195650D01*
X84240967Y-56659902D01*
X84339000Y-57152747D01*
X84339000Y-57655253D01*
X84240967Y-58148098D01*
X84112698Y-58457767D01*
X84048667Y-58612352D01*
X83769491Y-59030168D01*
X83414168Y-59385491D01*
X82996352Y-59664667D01*
X82996351Y-59664668D01*
X82996350Y-59664668D01*
X82532098Y-59856967D01*
X82039253Y-59955000D01*
X81536747Y-59955000D01*
X81043902Y-59856967D01*
X80579650Y-59664668D01*
X80579649Y-59664668D01*
X80579648Y-59664667D01*
X80161832Y-59385491D01*
X79806509Y-59030168D01*
X79527333Y-58612352D01*
X79463302Y-58457767D01*
X79335033Y-58148098D01*
X79237000Y-57655253D01*
X79237000Y-57152747D01*
X79335033Y-56659902D01*
X79527332Y-56195650D01*
X79652716Y-56008000D01*
X79806509Y-55777832D01*
X80161832Y-55422509D01*
X80579648Y-55143333D01*
X80579650Y-55143332D01*
X81043902Y-54951033D01*
X81536747Y-54853000D01*
X82039253Y-54853000D01*
X82532098Y-54951033D01*
X82532098Y-54951033D01*
G37*
G36*
X91047114Y-57486176D02*
G01*
X91141168Y-57495439D01*
X91342299Y-57556451D01*
X91426253Y-57601326D01*
X91527661Y-57655529D01*
X91690133Y-57788867D01*
X91823471Y-57951339D01*
X91876682Y-58050890D01*
X91922549Y-58136701D01*
X91983561Y-58337832D01*
X92004162Y-58547000D01*
X91983561Y-58756168D01*
X91922549Y-58957299D01*
X91883600Y-59030167D01*
X91823471Y-59142661D01*
X91690133Y-59305133D01*
X91527661Y-59438471D01*
X91436869Y-59487000D01*
X91342299Y-59537549D01*
X91141168Y-59598561D01*
X91047114Y-59607824D01*
X90984413Y-59614000D01*
X90879587Y-59614000D01*
X90816886Y-59607824D01*
X90722832Y-59598561D01*
X90521701Y-59537549D01*
X90427131Y-59487000D01*
X90336339Y-59438471D01*
X90173867Y-59305133D01*
X90040529Y-59142661D01*
X89980400Y-59030167D01*
X89941451Y-58957299D01*
X89880439Y-58756168D01*
X89859838Y-58547000D01*
X89880439Y-58337832D01*
X89941451Y-58136701D01*
X89987318Y-58050890D01*
X90040529Y-57951339D01*
X90173867Y-57788867D01*
X90336339Y-57655529D01*
X90437747Y-57601326D01*
X90521701Y-57556451D01*
X90722832Y-57495439D01*
X90816886Y-57486176D01*
X90879587Y-57480000D01*
X90984413Y-57480000D01*
X91047114Y-57486176D01*
X91047114Y-57486176D01*
G37*
G36*
X131623000Y-59487000D02*
G01*
X129489000Y-59487000D01*
X129489000Y-57353000D01*
X131623000Y-57353000D01*
X131623000Y-59487000D01*
X131623000Y-59487000D01*
G37*
G36*
X123394473Y-57832938D02*
G01*
X123522049Y-57885782D01*
X123636859Y-57962495D01*
X123734505Y-58060141D01*
X123811218Y-58174951D01*
X123864062Y-58302527D01*
X123891000Y-58437956D01*
X123891000Y-58576044D01*
X123864062Y-58711473D01*
X123811218Y-58839049D01*
X123734505Y-58953859D01*
X123636859Y-59051505D01*
X123522049Y-59128218D01*
X123394473Y-59181062D01*
X123259044Y-59208000D01*
X123120956Y-59208000D01*
X122985527Y-59181062D01*
X122857951Y-59128218D01*
X122743141Y-59051505D01*
X122645495Y-58953859D01*
X122568782Y-58839049D01*
X122515938Y-58711473D01*
X122489000Y-58576044D01*
X122489000Y-58437956D01*
X122515938Y-58302527D01*
X122568782Y-58174951D01*
X122645495Y-58060141D01*
X122743141Y-57962495D01*
X122857951Y-57885782D01*
X122985527Y-57832938D01*
X123120956Y-57806000D01*
X123259044Y-57806000D01*
X123394473Y-57832938D01*
X123394473Y-57832938D01*
G37*
G36*
X114504473Y-57832938D02*
G01*
X114632049Y-57885782D01*
X114746859Y-57962495D01*
X114844505Y-58060141D01*
X114921218Y-58174951D01*
X114974062Y-58302527D01*
X115001000Y-58437956D01*
X115001000Y-58576044D01*
X114974062Y-58711473D01*
X114921218Y-58839049D01*
X114844505Y-58953859D01*
X114746859Y-59051505D01*
X114632049Y-59128218D01*
X114504473Y-59181062D01*
X114369044Y-59208000D01*
X114230956Y-59208000D01*
X114095527Y-59181062D01*
X113967951Y-59128218D01*
X113853141Y-59051505D01*
X113755495Y-58953859D01*
X113678782Y-58839049D01*
X113625938Y-58711473D01*
X113599000Y-58576044D01*
X113599000Y-58437956D01*
X113625938Y-58302527D01*
X113678782Y-58174951D01*
X113755495Y-58060141D01*
X113853141Y-57962495D01*
X113967951Y-57885782D01*
X114095527Y-57832938D01*
X114230956Y-57806000D01*
X114369044Y-57806000D01*
X114504473Y-57832938D01*
X114504473Y-57832938D01*
G37*
G36*
X155119293Y-56350233D02*
G01*
X155291694Y-56402531D01*
X155450583Y-56487458D01*
X155589849Y-56601751D01*
X155704142Y-56741017D01*
X155789069Y-56899905D01*
X155841367Y-57072306D01*
X155854600Y-57206669D01*
X155854600Y-57601330D01*
X155841367Y-57735693D01*
X155789069Y-57908094D01*
X155704142Y-58066983D01*
X155589849Y-58206249D01*
X155450583Y-58320542D01*
X155291695Y-58405469D01*
X155119294Y-58457767D01*
X154940000Y-58475425D01*
X154760707Y-58457767D01*
X154588306Y-58405469D01*
X154429418Y-58320542D01*
X154290152Y-58206249D01*
X154175858Y-58066982D01*
X154090931Y-57908095D01*
X154038633Y-57735694D01*
X154025400Y-57601331D01*
X154025400Y-57206670D01*
X154038633Y-57072307D01*
X154090931Y-56899906D01*
X154175858Y-56741017D01*
X154290151Y-56601751D01*
X154429417Y-56487458D01*
X154588305Y-56402531D01*
X154760706Y-56350233D01*
X154940000Y-56332575D01*
X155119293Y-56350233D01*
X155119293Y-56350233D01*
G37*
G36*
X157659293Y-56350233D02*
G01*
X157831694Y-56402531D01*
X157990583Y-56487458D01*
X158129849Y-56601751D01*
X158244142Y-56741017D01*
X158329069Y-56899905D01*
X158381367Y-57072306D01*
X158394600Y-57206669D01*
X158394600Y-57601330D01*
X158381367Y-57735693D01*
X158329069Y-57908094D01*
X158244142Y-58066983D01*
X158129849Y-58206249D01*
X157990583Y-58320542D01*
X157831695Y-58405469D01*
X157659294Y-58457767D01*
X157480000Y-58475425D01*
X157300707Y-58457767D01*
X157128306Y-58405469D01*
X156969418Y-58320542D01*
X156830152Y-58206249D01*
X156715858Y-58066982D01*
X156630931Y-57908095D01*
X156578633Y-57735694D01*
X156565400Y-57601331D01*
X156565400Y-57206670D01*
X156578633Y-57072307D01*
X156630931Y-56899906D01*
X156715858Y-56741017D01*
X156830151Y-56601751D01*
X156969417Y-56487458D01*
X157128305Y-56402531D01*
X157300706Y-56350233D01*
X157480000Y-56332575D01*
X157659293Y-56350233D01*
X157659293Y-56350233D01*
G37*
G36*
X160199293Y-56350233D02*
G01*
X160371694Y-56402531D01*
X160530583Y-56487458D01*
X160669849Y-56601751D01*
X160784142Y-56741017D01*
X160869069Y-56899905D01*
X160921367Y-57072306D01*
X160934600Y-57206669D01*
X160934600Y-57601330D01*
X160921367Y-57735693D01*
X160869069Y-57908094D01*
X160784142Y-58066983D01*
X160669849Y-58206249D01*
X160530583Y-58320542D01*
X160371695Y-58405469D01*
X160199294Y-58457767D01*
X160020000Y-58475425D01*
X159840707Y-58457767D01*
X159668306Y-58405469D01*
X159509418Y-58320542D01*
X159370152Y-58206249D01*
X159255858Y-58066982D01*
X159170931Y-57908095D01*
X159118633Y-57735694D01*
X159105400Y-57601331D01*
X159105400Y-57206670D01*
X159118633Y-57072307D01*
X159170931Y-56899906D01*
X159255858Y-56741017D01*
X159370151Y-56601751D01*
X159509417Y-56487458D01*
X159668305Y-56402531D01*
X159840706Y-56350233D01*
X160020000Y-56332575D01*
X160199293Y-56350233D01*
X160199293Y-56350233D01*
G37*
G36*
X153314600Y-58471000D02*
G01*
X151485400Y-58471000D01*
X151485400Y-56337000D01*
X153314600Y-56337000D01*
X153314600Y-58471000D01*
X153314600Y-58471000D01*
G37*
G36*
X91999000Y-57074000D02*
G01*
X89865000Y-57074000D01*
X89865000Y-54940000D01*
X91999000Y-54940000D01*
X91999000Y-57074000D01*
X91999000Y-57074000D01*
G37*
G36*
X130671114Y-54819176D02*
G01*
X130765168Y-54828439D01*
X130966299Y-54889451D01*
X131052110Y-54935318D01*
X131151661Y-54988529D01*
X131314133Y-55121867D01*
X131447471Y-55284339D01*
X131500682Y-55383890D01*
X131546549Y-55469701D01*
X131607561Y-55670832D01*
X131628162Y-55880000D01*
X131607561Y-56089168D01*
X131546549Y-56290299D01*
X131514513Y-56350233D01*
X131447471Y-56475661D01*
X131314133Y-56638133D01*
X131151661Y-56771471D01*
X131052110Y-56824682D01*
X130966299Y-56870549D01*
X130765168Y-56931561D01*
X130671114Y-56940824D01*
X130608413Y-56947000D01*
X130503587Y-56947000D01*
X130440886Y-56940824D01*
X130346832Y-56931561D01*
X130145701Y-56870549D01*
X130059890Y-56824682D01*
X129960339Y-56771471D01*
X129797867Y-56638133D01*
X129664529Y-56475661D01*
X129597487Y-56350233D01*
X129565451Y-56290299D01*
X129504439Y-56089168D01*
X129483838Y-55880000D01*
X129504439Y-55670832D01*
X129565451Y-55469701D01*
X129611318Y-55383890D01*
X129664529Y-55284339D01*
X129797867Y-55121867D01*
X129960339Y-54988529D01*
X130059890Y-54935318D01*
X130145701Y-54889451D01*
X130346832Y-54828439D01*
X130440886Y-54819176D01*
X130503587Y-54813000D01*
X130608413Y-54813000D01*
X130671114Y-54819176D01*
X130671114Y-54819176D01*
G37*
G36*
X123891000Y-56708000D02*
G01*
X122489000Y-56708000D01*
X122489000Y-55306000D01*
X123891000Y-55306000D01*
X123891000Y-56708000D01*
X123891000Y-56708000D01*
G37*
G36*
X115001000Y-56708000D02*
G01*
X113599000Y-56708000D01*
X113599000Y-55306000D01*
X115001000Y-55306000D01*
X115001000Y-56708000D01*
X115001000Y-56708000D01*
G37*
G36*
X107291000Y-56008000D02*
G01*
X106069000Y-56008000D01*
X106069000Y-53466000D01*
X107291000Y-53466000D01*
X107291000Y-56008000D01*
X107291000Y-56008000D01*
G37*
G36*
X104751000Y-56008000D02*
G01*
X103529000Y-56008000D01*
X103529000Y-53466000D01*
X104751000Y-53466000D01*
X104751000Y-56008000D01*
X104751000Y-56008000D01*
G37*
G36*
X102211000Y-56008000D02*
G01*
X100989000Y-56008000D01*
X100989000Y-53466000D01*
X102211000Y-53466000D01*
X102211000Y-56008000D01*
X102211000Y-56008000D01*
G37*
M02*
