G04 #@! TF.GenerationSoftware,KiCad,Pcbnew,(5.1.2-1)-1*
G04 #@! TF.CreationDate,2019-07-12T12:11:03+02:00*
G04 #@! TF.ProjectId,ATMEGA328PB Proto Board,41544d45-4741-4333-9238-50422050726f,rev?*
G04 #@! TF.SameCoordinates,Original*
G04 #@! TF.FileFunction,Legend,Top*
G04 #@! TF.FilePolarity,Positive*
%FSLAX46Y46*%
G04 Gerber Fmt 4.6, Leading zero omitted, Abs format (unit mm)*
G04 Created by KiCad (PCBNEW (5.1.2-1)-1) date 2019-07-12 12:11:03*
%MOMM*%
%LPD*%
G04 APERTURE LIST*
%ADD10C,0.100000*%
%ADD11C,0.120000*%
%ADD12C,0.200000*%
%ADD13C,0.300000*%
%ADD14C,0.150000*%
G04 APERTURE END LIST*
D10*
X79930571Y-96542142D02*
X79987714Y-96599285D01*
X80044857Y-96770714D01*
X80044857Y-96885000D01*
X79987714Y-97056428D01*
X79873428Y-97170714D01*
X79759142Y-97227857D01*
X79530571Y-97285000D01*
X79359142Y-97285000D01*
X79130571Y-97227857D01*
X79016285Y-97170714D01*
X78902000Y-97056428D01*
X78844857Y-96885000D01*
X78844857Y-96770714D01*
X78902000Y-96599285D01*
X78959142Y-96542142D01*
X78844857Y-96199285D02*
X78844857Y-95513571D01*
X80044857Y-95856428D02*
X78844857Y-95856428D01*
X79987714Y-95170714D02*
X80044857Y-94999285D01*
X80044857Y-94713571D01*
X79987714Y-94599285D01*
X79930571Y-94542142D01*
X79816285Y-94485000D01*
X79702000Y-94485000D01*
X79587714Y-94542142D01*
X79530571Y-94599285D01*
X79473428Y-94713571D01*
X79416285Y-94942142D01*
X79359142Y-95056428D01*
X79302000Y-95113571D01*
X79187714Y-95170714D01*
X79073428Y-95170714D01*
X78959142Y-95113571D01*
X78902000Y-95056428D01*
X78844857Y-94942142D01*
X78844857Y-94656428D01*
X78902000Y-94485000D01*
X82854857Y-82381714D02*
X83769142Y-82381714D01*
D11*
X85598000Y-81280000D02*
X85598000Y-88646000D01*
D10*
X82397714Y-86649000D02*
X82283428Y-86591857D01*
X82112000Y-86591857D01*
X81940571Y-86649000D01*
X81826285Y-86763285D01*
X81769142Y-86877571D01*
X81712000Y-87106142D01*
X81712000Y-87277571D01*
X81769142Y-87506142D01*
X81826285Y-87620428D01*
X81940571Y-87734714D01*
X82112000Y-87791857D01*
X82226285Y-87791857D01*
X82397714Y-87734714D01*
X82454857Y-87677571D01*
X82454857Y-87277571D01*
X82226285Y-87277571D01*
X82969142Y-87791857D02*
X82969142Y-86591857D01*
X83654857Y-87791857D01*
X83654857Y-86591857D01*
X84226285Y-87791857D02*
X84226285Y-86591857D01*
X84512000Y-86591857D01*
X84683428Y-86649000D01*
X84797714Y-86763285D01*
X84854857Y-86877571D01*
X84912000Y-87106142D01*
X84912000Y-87277571D01*
X84854857Y-87506142D01*
X84797714Y-87620428D01*
X84683428Y-87734714D01*
X84512000Y-87791857D01*
X84226285Y-87791857D01*
X82527857Y-85137571D02*
X82470714Y-85194714D01*
X82299285Y-85251857D01*
X82185000Y-85251857D01*
X82013571Y-85194714D01*
X81899285Y-85080428D01*
X81842142Y-84966142D01*
X81785000Y-84737571D01*
X81785000Y-84566142D01*
X81842142Y-84337571D01*
X81899285Y-84223285D01*
X82013571Y-84109000D01*
X82185000Y-84051857D01*
X82299285Y-84051857D01*
X82470714Y-84109000D01*
X82527857Y-84166142D01*
X82870714Y-84051857D02*
X83556428Y-84051857D01*
X83213571Y-85251857D02*
X83213571Y-84051857D01*
X83899285Y-85194714D02*
X84070714Y-85251857D01*
X84356428Y-85251857D01*
X84470714Y-85194714D01*
X84527857Y-85137571D01*
X84585000Y-85023285D01*
X84585000Y-84909000D01*
X84527857Y-84794714D01*
X84470714Y-84737571D01*
X84356428Y-84680428D01*
X84127857Y-84623285D01*
X84013571Y-84566142D01*
X83956428Y-84509000D01*
X83899285Y-84394714D01*
X83899285Y-84280428D01*
X83956428Y-84166142D01*
X84013571Y-84109000D01*
X84127857Y-84051857D01*
X84413571Y-84051857D01*
X84585000Y-84109000D01*
X82711857Y-96542142D02*
X82140428Y-96942142D01*
X82711857Y-97227857D02*
X81511857Y-97227857D01*
X81511857Y-96770714D01*
X81569000Y-96656428D01*
X81626142Y-96599285D01*
X81740428Y-96542142D01*
X81911857Y-96542142D01*
X82026142Y-96599285D01*
X82083285Y-96656428D01*
X82140428Y-96770714D01*
X82140428Y-97227857D01*
X81511857Y-96199285D02*
X81511857Y-95513571D01*
X82711857Y-95856428D02*
X81511857Y-95856428D01*
X82654714Y-95170714D02*
X82711857Y-94999285D01*
X82711857Y-94713571D01*
X82654714Y-94599285D01*
X82597571Y-94542142D01*
X82483285Y-94485000D01*
X82369000Y-94485000D01*
X82254714Y-94542142D01*
X82197571Y-94599285D01*
X82140428Y-94713571D01*
X82083285Y-94942142D01*
X82026142Y-95056428D01*
X81969000Y-95113571D01*
X81854714Y-95170714D01*
X81740428Y-95170714D01*
X81626142Y-95113571D01*
X81569000Y-95056428D01*
X81511857Y-94942142D01*
X81511857Y-94656428D01*
X81569000Y-94485000D01*
X82654857Y-75091857D02*
X82254857Y-74520428D01*
X81969142Y-75091857D02*
X81969142Y-73891857D01*
X82426285Y-73891857D01*
X82540571Y-73949000D01*
X82597714Y-74006142D01*
X82654857Y-74120428D01*
X82654857Y-74291857D01*
X82597714Y-74406142D01*
X82540571Y-74463285D01*
X82426285Y-74520428D01*
X81969142Y-74520428D01*
X82997714Y-73891857D02*
X83683428Y-73891857D01*
X83340571Y-75091857D02*
X83340571Y-73891857D01*
X84026285Y-75034714D02*
X84197714Y-75091857D01*
X84483428Y-75091857D01*
X84597714Y-75034714D01*
X84654857Y-74977571D01*
X84712000Y-74863285D01*
X84712000Y-74749000D01*
X84654857Y-74634714D01*
X84597714Y-74577571D01*
X84483428Y-74520428D01*
X84254857Y-74463285D01*
X84140571Y-74406142D01*
X84083428Y-74349000D01*
X84026285Y-74234714D01*
X84026285Y-74120428D01*
X84083428Y-74006142D01*
X84140571Y-73949000D01*
X84254857Y-73891857D01*
X84540571Y-73891857D01*
X84712000Y-73949000D01*
D11*
X83312000Y-112268000D02*
X83820000Y-113030000D01*
X83820000Y-113030000D02*
X84582000Y-110998000D01*
X94996000Y-113030000D02*
X95758000Y-110998000D01*
X94488000Y-112268000D02*
X94996000Y-113030000D01*
D10*
X83574000Y-108398571D02*
X84574000Y-109898571D01*
X84574000Y-108398571D02*
X83574000Y-109898571D01*
X94242000Y-108398571D02*
X95242000Y-109898571D01*
X95242000Y-108398571D02*
X94242000Y-109898571D01*
X116459047Y-54681428D02*
X117220952Y-54681428D01*
X116840000Y-55062380D02*
X116840000Y-54300476D01*
X125349047Y-54681428D02*
X126110952Y-54681428D01*
X125730000Y-55062380D02*
X125730000Y-54300476D01*
D11*
X91948000Y-120904000D02*
X91948000Y-119914000D01*
X86868000Y-120904000D02*
X91948000Y-120904000D01*
X86868000Y-119634000D02*
X86868000Y-120904000D01*
X91948000Y-115824000D02*
X91948000Y-116814000D01*
X86868000Y-115824000D02*
X91948000Y-115824000D01*
X86868000Y-117094000D02*
X86868000Y-115824000D01*
D10*
X159932857Y-127221142D02*
X158732857Y-127221142D01*
X159590000Y-126821142D01*
X158732857Y-126421142D01*
X159932857Y-126421142D01*
X159932857Y-125335428D02*
X159304285Y-125335428D01*
X159190000Y-125392571D01*
X159132857Y-125506857D01*
X159132857Y-125735428D01*
X159190000Y-125849714D01*
X159875714Y-125335428D02*
X159932857Y-125449714D01*
X159932857Y-125735428D01*
X159875714Y-125849714D01*
X159761428Y-125906857D01*
X159647142Y-125906857D01*
X159532857Y-125849714D01*
X159475714Y-125735428D01*
X159475714Y-125449714D01*
X159418571Y-125335428D01*
X159875714Y-124249714D02*
X159932857Y-124364000D01*
X159932857Y-124592571D01*
X159875714Y-124706857D01*
X159818571Y-124764000D01*
X159704285Y-124821142D01*
X159361428Y-124821142D01*
X159247142Y-124764000D01*
X159190000Y-124706857D01*
X159132857Y-124592571D01*
X159132857Y-124364000D01*
X159190000Y-124249714D01*
X159932857Y-123735428D02*
X158732857Y-123735428D01*
X159932857Y-123221142D02*
X159304285Y-123221142D01*
X159190000Y-123278285D01*
X159132857Y-123392571D01*
X159132857Y-123564000D01*
X159190000Y-123678285D01*
X159247142Y-123735428D01*
X159932857Y-122649714D02*
X159132857Y-122649714D01*
X158732857Y-122649714D02*
X158790000Y-122706857D01*
X158847142Y-122649714D01*
X158790000Y-122592571D01*
X158732857Y-122649714D01*
X158847142Y-122649714D01*
X159132857Y-122078285D02*
X159932857Y-122078285D01*
X159247142Y-122078285D02*
X159190000Y-122021142D01*
X159132857Y-121906857D01*
X159132857Y-121735428D01*
X159190000Y-121621142D01*
X159304285Y-121564000D01*
X159932857Y-121564000D01*
X159932857Y-120478285D02*
X159304285Y-120478285D01*
X159190000Y-120535428D01*
X159132857Y-120649714D01*
X159132857Y-120878285D01*
X159190000Y-120992571D01*
X159875714Y-120478285D02*
X159932857Y-120592571D01*
X159932857Y-120878285D01*
X159875714Y-120992571D01*
X159761428Y-121049714D01*
X159647142Y-121049714D01*
X159532857Y-120992571D01*
X159475714Y-120878285D01*
X159475714Y-120592571D01*
X159418571Y-120478285D01*
X159875714Y-119049714D02*
X159932857Y-118878285D01*
X159932857Y-118592571D01*
X159875714Y-118478285D01*
X159818571Y-118421142D01*
X159704285Y-118364000D01*
X159590000Y-118364000D01*
X159475714Y-118421142D01*
X159418571Y-118478285D01*
X159361428Y-118592571D01*
X159304285Y-118821142D01*
X159247142Y-118935428D01*
X159190000Y-118992571D01*
X159075714Y-119049714D01*
X158961428Y-119049714D01*
X158847142Y-118992571D01*
X158790000Y-118935428D01*
X158732857Y-118821142D01*
X158732857Y-118535428D01*
X158790000Y-118364000D01*
X159132857Y-117849714D02*
X160332857Y-117849714D01*
X159190000Y-117849714D02*
X159132857Y-117735428D01*
X159132857Y-117506857D01*
X159190000Y-117392571D01*
X159247142Y-117335428D01*
X159361428Y-117278285D01*
X159704285Y-117278285D01*
X159818571Y-117335428D01*
X159875714Y-117392571D01*
X159932857Y-117506857D01*
X159932857Y-117735428D01*
X159875714Y-117849714D01*
X159875714Y-116306857D02*
X159932857Y-116421142D01*
X159932857Y-116649714D01*
X159875714Y-116764000D01*
X159761428Y-116821142D01*
X159304285Y-116821142D01*
X159190000Y-116764000D01*
X159132857Y-116649714D01*
X159132857Y-116421142D01*
X159190000Y-116306857D01*
X159304285Y-116249714D01*
X159418571Y-116249714D01*
X159532857Y-116821142D01*
X159875714Y-115221142D02*
X159932857Y-115335428D01*
X159932857Y-115564000D01*
X159875714Y-115678285D01*
X159818571Y-115735428D01*
X159704285Y-115792571D01*
X159361428Y-115792571D01*
X159247142Y-115735428D01*
X159190000Y-115678285D01*
X159132857Y-115564000D01*
X159132857Y-115335428D01*
X159190000Y-115221142D01*
X159132857Y-114192571D02*
X159932857Y-114192571D01*
X159132857Y-114706857D02*
X159761428Y-114706857D01*
X159875714Y-114649714D01*
X159932857Y-114535428D01*
X159932857Y-114364000D01*
X159875714Y-114249714D01*
X159818571Y-114192571D01*
X159932857Y-113449714D02*
X159875714Y-113564000D01*
X159761428Y-113621142D01*
X158732857Y-113621142D01*
X159932857Y-112478285D02*
X159304285Y-112478285D01*
X159190000Y-112535428D01*
X159132857Y-112649714D01*
X159132857Y-112878285D01*
X159190000Y-112992571D01*
X159875714Y-112478285D02*
X159932857Y-112592571D01*
X159932857Y-112878285D01*
X159875714Y-112992571D01*
X159761428Y-113049714D01*
X159647142Y-113049714D01*
X159532857Y-112992571D01*
X159475714Y-112878285D01*
X159475714Y-112592571D01*
X159418571Y-112478285D01*
X159132857Y-112078285D02*
X159132857Y-111621142D01*
X158732857Y-111906857D02*
X159761428Y-111906857D01*
X159875714Y-111849714D01*
X159932857Y-111735428D01*
X159932857Y-111621142D01*
X159932857Y-111221142D02*
X159132857Y-111221142D01*
X159361428Y-111221142D02*
X159247142Y-111164000D01*
X159190000Y-111106857D01*
X159132857Y-110992571D01*
X159132857Y-110878285D01*
X159932857Y-110478285D02*
X159132857Y-110478285D01*
X158732857Y-110478285D02*
X158790000Y-110535428D01*
X158847142Y-110478285D01*
X158790000Y-110421142D01*
X158732857Y-110478285D01*
X158847142Y-110478285D01*
X159932857Y-110021142D02*
X159132857Y-109392571D01*
X159132857Y-110021142D02*
X159932857Y-109392571D01*
X161490000Y-127221142D02*
X161490000Y-126649714D01*
X161832857Y-127335428D02*
X160632857Y-126935428D01*
X161832857Y-126535428D01*
X160632857Y-126306857D02*
X160632857Y-125621142D01*
X161832857Y-125964000D02*
X160632857Y-125964000D01*
X161832857Y-125221142D02*
X160632857Y-125221142D01*
X161490000Y-124821142D01*
X160632857Y-124421142D01*
X161832857Y-124421142D01*
X161204285Y-123849714D02*
X161204285Y-123449714D01*
X161832857Y-123278285D02*
X161832857Y-123849714D01*
X160632857Y-123849714D01*
X160632857Y-123278285D01*
X160690000Y-122135428D02*
X160632857Y-122249714D01*
X160632857Y-122421142D01*
X160690000Y-122592571D01*
X160804285Y-122706857D01*
X160918571Y-122764000D01*
X161147142Y-122821142D01*
X161318571Y-122821142D01*
X161547142Y-122764000D01*
X161661428Y-122706857D01*
X161775714Y-122592571D01*
X161832857Y-122421142D01*
X161832857Y-122306857D01*
X161775714Y-122135428D01*
X161718571Y-122078285D01*
X161318571Y-122078285D01*
X161318571Y-122306857D01*
X161490000Y-121621142D02*
X161490000Y-121049714D01*
X161832857Y-121735428D02*
X160632857Y-121335428D01*
X161832857Y-120935428D01*
X160632857Y-120649714D02*
X160632857Y-119906857D01*
X161090000Y-120306857D01*
X161090000Y-120135428D01*
X161147142Y-120021142D01*
X161204285Y-119964000D01*
X161318571Y-119906857D01*
X161604285Y-119906857D01*
X161718571Y-119964000D01*
X161775714Y-120021142D01*
X161832857Y-120135428D01*
X161832857Y-120478285D01*
X161775714Y-120592571D01*
X161718571Y-120649714D01*
X160747142Y-119449714D02*
X160690000Y-119392571D01*
X160632857Y-119278285D01*
X160632857Y-118992571D01*
X160690000Y-118878285D01*
X160747142Y-118821142D01*
X160861428Y-118764000D01*
X160975714Y-118764000D01*
X161147142Y-118821142D01*
X161832857Y-119506857D01*
X161832857Y-118764000D01*
X161147142Y-118078285D02*
X161090000Y-118192571D01*
X161032857Y-118249714D01*
X160918571Y-118306857D01*
X160861428Y-118306857D01*
X160747142Y-118249714D01*
X160690000Y-118192571D01*
X160632857Y-118078285D01*
X160632857Y-117849714D01*
X160690000Y-117735428D01*
X160747142Y-117678285D01*
X160861428Y-117621142D01*
X160918571Y-117621142D01*
X161032857Y-117678285D01*
X161090000Y-117735428D01*
X161147142Y-117849714D01*
X161147142Y-118078285D01*
X161204285Y-118192571D01*
X161261428Y-118249714D01*
X161375714Y-118306857D01*
X161604285Y-118306857D01*
X161718571Y-118249714D01*
X161775714Y-118192571D01*
X161832857Y-118078285D01*
X161832857Y-117849714D01*
X161775714Y-117735428D01*
X161718571Y-117678285D01*
X161604285Y-117621142D01*
X161375714Y-117621142D01*
X161261428Y-117678285D01*
X161204285Y-117735428D01*
X161147142Y-117849714D01*
X161832857Y-117106857D02*
X160632857Y-117106857D01*
X160632857Y-116649714D01*
X160690000Y-116535428D01*
X160747142Y-116478285D01*
X160861428Y-116421142D01*
X161032857Y-116421142D01*
X161147142Y-116478285D01*
X161204285Y-116535428D01*
X161261428Y-116649714D01*
X161261428Y-117106857D01*
X161204285Y-115506857D02*
X161261428Y-115335428D01*
X161318571Y-115278285D01*
X161432857Y-115221142D01*
X161604285Y-115221142D01*
X161718571Y-115278285D01*
X161775714Y-115335428D01*
X161832857Y-115449714D01*
X161832857Y-115906857D01*
X160632857Y-115906857D01*
X160632857Y-115506857D01*
X160690000Y-115392571D01*
X160747142Y-115335428D01*
X160861428Y-115278285D01*
X160975714Y-115278285D01*
X161090000Y-115335428D01*
X161147142Y-115392571D01*
X161204285Y-115506857D01*
X161204285Y-115906857D01*
X161832857Y-113792571D02*
X160632857Y-113792571D01*
X160632857Y-113335428D01*
X160690000Y-113221142D01*
X160747142Y-113164000D01*
X160861428Y-113106857D01*
X161032857Y-113106857D01*
X161147142Y-113164000D01*
X161204285Y-113221142D01*
X161261428Y-113335428D01*
X161261428Y-113792571D01*
X161832857Y-112592571D02*
X161032857Y-112592571D01*
X161261428Y-112592571D02*
X161147142Y-112535428D01*
X161090000Y-112478285D01*
X161032857Y-112364000D01*
X161032857Y-112249714D01*
X161832857Y-111678285D02*
X161775714Y-111792571D01*
X161718571Y-111849714D01*
X161604285Y-111906857D01*
X161261428Y-111906857D01*
X161147142Y-111849714D01*
X161090000Y-111792571D01*
X161032857Y-111678285D01*
X161032857Y-111506857D01*
X161090000Y-111392571D01*
X161147142Y-111335428D01*
X161261428Y-111278285D01*
X161604285Y-111278285D01*
X161718571Y-111335428D01*
X161775714Y-111392571D01*
X161832857Y-111506857D01*
X161832857Y-111678285D01*
X161032857Y-110935428D02*
X161032857Y-110478285D01*
X160632857Y-110764000D02*
X161661428Y-110764000D01*
X161775714Y-110706857D01*
X161832857Y-110592571D01*
X161832857Y-110478285D01*
X161832857Y-109906857D02*
X161775714Y-110021142D01*
X161718571Y-110078285D01*
X161604285Y-110135428D01*
X161261428Y-110135428D01*
X161147142Y-110078285D01*
X161090000Y-110021142D01*
X161032857Y-109906857D01*
X161032857Y-109735428D01*
X161090000Y-109621142D01*
X161147142Y-109564000D01*
X161261428Y-109506857D01*
X161604285Y-109506857D01*
X161718571Y-109564000D01*
X161775714Y-109621142D01*
X161832857Y-109735428D01*
X161832857Y-109906857D01*
X162532857Y-124706857D02*
X163732857Y-124306857D01*
X162532857Y-123906857D01*
X163732857Y-122878285D02*
X163732857Y-123564000D01*
X163732857Y-123221142D02*
X162532857Y-123221142D01*
X162704285Y-123335428D01*
X162818571Y-123449714D01*
X162875714Y-123564000D01*
X163618571Y-122364000D02*
X163675714Y-122306857D01*
X163732857Y-122364000D01*
X163675714Y-122421142D01*
X163618571Y-122364000D01*
X163732857Y-122364000D01*
X162532857Y-121564000D02*
X162532857Y-121449714D01*
X162590000Y-121335428D01*
X162647142Y-121278285D01*
X162761428Y-121221142D01*
X162990000Y-121164000D01*
X163275714Y-121164000D01*
X163504285Y-121221142D01*
X163618571Y-121278285D01*
X163675714Y-121335428D01*
X163732857Y-121449714D01*
X163732857Y-121564000D01*
X163675714Y-121678285D01*
X163618571Y-121735428D01*
X163504285Y-121792571D01*
X163275714Y-121849714D01*
X162990000Y-121849714D01*
X162761428Y-121792571D01*
X162647142Y-121735428D01*
X162590000Y-121678285D01*
X162532857Y-121564000D01*
X162532857Y-119392571D02*
X163390000Y-119392571D01*
X163561428Y-119449714D01*
X163675714Y-119564000D01*
X163732857Y-119735428D01*
X163732857Y-119849714D01*
X162932857Y-118306857D02*
X163732857Y-118306857D01*
X162932857Y-118821142D02*
X163561428Y-118821142D01*
X163675714Y-118764000D01*
X163732857Y-118649714D01*
X163732857Y-118478285D01*
X163675714Y-118364000D01*
X163618571Y-118306857D01*
X163732857Y-117564000D02*
X163675714Y-117678285D01*
X163561428Y-117735428D01*
X162532857Y-117735428D01*
X162647142Y-116249714D02*
X162590000Y-116192571D01*
X162532857Y-116078285D01*
X162532857Y-115792571D01*
X162590000Y-115678285D01*
X162647142Y-115621142D01*
X162761428Y-115564000D01*
X162875714Y-115564000D01*
X163047142Y-115621142D01*
X163732857Y-116306857D01*
X163732857Y-115564000D01*
X162532857Y-114821142D02*
X162532857Y-114706857D01*
X162590000Y-114592571D01*
X162647142Y-114535428D01*
X162761428Y-114478285D01*
X162990000Y-114421142D01*
X163275714Y-114421142D01*
X163504285Y-114478285D01*
X163618571Y-114535428D01*
X163675714Y-114592571D01*
X163732857Y-114706857D01*
X163732857Y-114821142D01*
X163675714Y-114935428D01*
X163618571Y-114992571D01*
X163504285Y-115049714D01*
X163275714Y-115106857D01*
X162990000Y-115106857D01*
X162761428Y-115049714D01*
X162647142Y-114992571D01*
X162590000Y-114935428D01*
X162532857Y-114821142D01*
X163732857Y-113278285D02*
X163732857Y-113964000D01*
X163732857Y-113621142D02*
X162532857Y-113621142D01*
X162704285Y-113735428D01*
X162818571Y-113849714D01*
X162875714Y-113964000D01*
X163732857Y-112706857D02*
X163732857Y-112478285D01*
X163675714Y-112364000D01*
X163618571Y-112306857D01*
X163447142Y-112192571D01*
X163218571Y-112135428D01*
X162761428Y-112135428D01*
X162647142Y-112192571D01*
X162590000Y-112249714D01*
X162532857Y-112364000D01*
X162532857Y-112592571D01*
X162590000Y-112706857D01*
X162647142Y-112764000D01*
X162761428Y-112821142D01*
X163047142Y-112821142D01*
X163161428Y-112764000D01*
X163218571Y-112706857D01*
X163275714Y-112592571D01*
X163275714Y-112364000D01*
X163218571Y-112249714D01*
X163161428Y-112192571D01*
X163047142Y-112135428D01*
D12*
X154828666Y-102341333D02*
X155495333Y-102341333D01*
X154695333Y-102741333D02*
X155162000Y-101341333D01*
X155628666Y-102741333D01*
X156895333Y-102741333D02*
X156428666Y-102074666D01*
X156095333Y-102741333D02*
X156095333Y-101341333D01*
X156628666Y-101341333D01*
X156762000Y-101408000D01*
X156828666Y-101474666D01*
X156895333Y-101608000D01*
X156895333Y-101808000D01*
X156828666Y-101941333D01*
X156762000Y-102008000D01*
X156628666Y-102074666D01*
X156095333Y-102074666D01*
X157495333Y-102008000D02*
X157962000Y-102008000D01*
X158162000Y-102741333D02*
X157495333Y-102741333D01*
X157495333Y-101341333D01*
X158162000Y-101341333D01*
X159228666Y-102008000D02*
X158762000Y-102008000D01*
X158762000Y-102741333D02*
X158762000Y-101341333D01*
X159428666Y-101341333D01*
X154895333Y-100201333D02*
X154895333Y-98801333D01*
X155428666Y-98801333D01*
X155562000Y-98868000D01*
X155628666Y-98934666D01*
X155695333Y-99068000D01*
X155695333Y-99268000D01*
X155628666Y-99401333D01*
X155562000Y-99468000D01*
X155428666Y-99534666D01*
X154895333Y-99534666D01*
X156295333Y-99468000D02*
X156762000Y-99468000D01*
X156962000Y-100201333D02*
X156295333Y-100201333D01*
X156295333Y-98801333D01*
X156962000Y-98801333D01*
X157428666Y-98801333D02*
X158295333Y-98801333D01*
X157828666Y-99334666D01*
X158028666Y-99334666D01*
X158162000Y-99401333D01*
X158228666Y-99468000D01*
X158295333Y-99601333D01*
X158295333Y-99934666D01*
X158228666Y-100068000D01*
X158162000Y-100134666D01*
X158028666Y-100201333D01*
X157628666Y-100201333D01*
X157495333Y-100134666D01*
X157428666Y-100068000D01*
X154895333Y-97661333D02*
X154895333Y-96261333D01*
X155428666Y-96261333D01*
X155562000Y-96328000D01*
X155628666Y-96394666D01*
X155695333Y-96528000D01*
X155695333Y-96728000D01*
X155628666Y-96861333D01*
X155562000Y-96928000D01*
X155428666Y-96994666D01*
X154895333Y-96994666D01*
X156295333Y-96928000D02*
X156762000Y-96928000D01*
X156962000Y-97661333D02*
X156295333Y-97661333D01*
X156295333Y-96261333D01*
X156962000Y-96261333D01*
X157495333Y-96394666D02*
X157562000Y-96328000D01*
X157695333Y-96261333D01*
X158028666Y-96261333D01*
X158162000Y-96328000D01*
X158228666Y-96394666D01*
X158295333Y-96528000D01*
X158295333Y-96661333D01*
X158228666Y-96861333D01*
X157428666Y-97661333D01*
X158295333Y-97661333D01*
X154895333Y-95121333D02*
X154895333Y-93721333D01*
X155428666Y-93721333D01*
X155562000Y-93788000D01*
X155628666Y-93854666D01*
X155695333Y-93988000D01*
X155695333Y-94188000D01*
X155628666Y-94321333D01*
X155562000Y-94388000D01*
X155428666Y-94454666D01*
X154895333Y-94454666D01*
X156295333Y-94388000D02*
X156762000Y-94388000D01*
X156962000Y-95121333D02*
X156295333Y-95121333D01*
X156295333Y-93721333D01*
X156962000Y-93721333D01*
X158295333Y-95121333D02*
X157495333Y-95121333D01*
X157895333Y-95121333D02*
X157895333Y-93721333D01*
X157762000Y-93921333D01*
X157628666Y-94054666D01*
X157495333Y-94121333D01*
X154895333Y-92581333D02*
X154895333Y-91181333D01*
X155428666Y-91181333D01*
X155562000Y-91248000D01*
X155628666Y-91314666D01*
X155695333Y-91448000D01*
X155695333Y-91648000D01*
X155628666Y-91781333D01*
X155562000Y-91848000D01*
X155428666Y-91914666D01*
X154895333Y-91914666D01*
X156295333Y-91848000D02*
X156762000Y-91848000D01*
X156962000Y-92581333D02*
X156295333Y-92581333D01*
X156295333Y-91181333D01*
X156962000Y-91181333D01*
X157828666Y-91181333D02*
X157962000Y-91181333D01*
X158095333Y-91248000D01*
X158162000Y-91314666D01*
X158228666Y-91448000D01*
X158295333Y-91714666D01*
X158295333Y-92048000D01*
X158228666Y-92314666D01*
X158162000Y-92448000D01*
X158095333Y-92514666D01*
X157962000Y-92581333D01*
X157828666Y-92581333D01*
X157695333Y-92514666D01*
X157628666Y-92448000D01*
X157562000Y-92314666D01*
X157495333Y-92048000D01*
X157495333Y-91714666D01*
X157562000Y-91448000D01*
X157628666Y-91314666D01*
X157695333Y-91248000D01*
X157828666Y-91181333D01*
X144735333Y-108837333D02*
X144735333Y-107437333D01*
X145268666Y-107437333D01*
X145402000Y-107504000D01*
X145468666Y-107570666D01*
X145535333Y-107704000D01*
X145535333Y-107904000D01*
X145468666Y-108037333D01*
X145402000Y-108104000D01*
X145268666Y-108170666D01*
X144735333Y-108170666D01*
X146602000Y-108104000D02*
X146802000Y-108170666D01*
X146868666Y-108237333D01*
X146935333Y-108370666D01*
X146935333Y-108570666D01*
X146868666Y-108704000D01*
X146802000Y-108770666D01*
X146668666Y-108837333D01*
X146135333Y-108837333D01*
X146135333Y-107437333D01*
X146602000Y-107437333D01*
X146735333Y-107504000D01*
X146802000Y-107570666D01*
X146868666Y-107704000D01*
X146868666Y-107837333D01*
X146802000Y-107970666D01*
X146735333Y-108037333D01*
X146602000Y-108104000D01*
X146135333Y-108104000D01*
X147402000Y-107437333D02*
X148335333Y-107437333D01*
X147735333Y-108837333D01*
X144735333Y-111377333D02*
X144735333Y-109977333D01*
X145268666Y-109977333D01*
X145402000Y-110044000D01*
X145468666Y-110110666D01*
X145535333Y-110244000D01*
X145535333Y-110444000D01*
X145468666Y-110577333D01*
X145402000Y-110644000D01*
X145268666Y-110710666D01*
X144735333Y-110710666D01*
X146602000Y-110644000D02*
X146802000Y-110710666D01*
X146868666Y-110777333D01*
X146935333Y-110910666D01*
X146935333Y-111110666D01*
X146868666Y-111244000D01*
X146802000Y-111310666D01*
X146668666Y-111377333D01*
X146135333Y-111377333D01*
X146135333Y-109977333D01*
X146602000Y-109977333D01*
X146735333Y-110044000D01*
X146802000Y-110110666D01*
X146868666Y-110244000D01*
X146868666Y-110377333D01*
X146802000Y-110510666D01*
X146735333Y-110577333D01*
X146602000Y-110644000D01*
X146135333Y-110644000D01*
X148135333Y-109977333D02*
X147868666Y-109977333D01*
X147735333Y-110044000D01*
X147668666Y-110110666D01*
X147535333Y-110310666D01*
X147468666Y-110577333D01*
X147468666Y-111110666D01*
X147535333Y-111244000D01*
X147602000Y-111310666D01*
X147735333Y-111377333D01*
X148002000Y-111377333D01*
X148135333Y-111310666D01*
X148202000Y-111244000D01*
X148268666Y-111110666D01*
X148268666Y-110777333D01*
X148202000Y-110644000D01*
X148135333Y-110577333D01*
X148002000Y-110510666D01*
X147735333Y-110510666D01*
X147602000Y-110577333D01*
X147535333Y-110644000D01*
X147468666Y-110777333D01*
X144735333Y-113917333D02*
X144735333Y-112517333D01*
X145268666Y-112517333D01*
X145402000Y-112584000D01*
X145468666Y-112650666D01*
X145535333Y-112784000D01*
X145535333Y-112984000D01*
X145468666Y-113117333D01*
X145402000Y-113184000D01*
X145268666Y-113250666D01*
X144735333Y-113250666D01*
X146602000Y-113184000D02*
X146802000Y-113250666D01*
X146868666Y-113317333D01*
X146935333Y-113450666D01*
X146935333Y-113650666D01*
X146868666Y-113784000D01*
X146802000Y-113850666D01*
X146668666Y-113917333D01*
X146135333Y-113917333D01*
X146135333Y-112517333D01*
X146602000Y-112517333D01*
X146735333Y-112584000D01*
X146802000Y-112650666D01*
X146868666Y-112784000D01*
X146868666Y-112917333D01*
X146802000Y-113050666D01*
X146735333Y-113117333D01*
X146602000Y-113184000D01*
X146135333Y-113184000D01*
X148202000Y-112517333D02*
X147535333Y-112517333D01*
X147468666Y-113184000D01*
X147535333Y-113117333D01*
X147668666Y-113050666D01*
X148002000Y-113050666D01*
X148135333Y-113117333D01*
X148202000Y-113184000D01*
X148268666Y-113317333D01*
X148268666Y-113650666D01*
X148202000Y-113784000D01*
X148135333Y-113850666D01*
X148002000Y-113917333D01*
X147668666Y-113917333D01*
X147535333Y-113850666D01*
X147468666Y-113784000D01*
X150935333Y-113850666D02*
X151135333Y-113917333D01*
X151468666Y-113917333D01*
X151602000Y-113850666D01*
X151668666Y-113784000D01*
X151735333Y-113650666D01*
X151735333Y-113517333D01*
X151668666Y-113384000D01*
X151602000Y-113317333D01*
X151468666Y-113250666D01*
X151202000Y-113184000D01*
X151068666Y-113117333D01*
X151002000Y-113050666D01*
X150935333Y-112917333D01*
X150935333Y-112784000D01*
X151002000Y-112650666D01*
X151068666Y-112584000D01*
X151202000Y-112517333D01*
X151535333Y-112517333D01*
X151735333Y-112584000D01*
X153135333Y-113784000D02*
X153068666Y-113850666D01*
X152868666Y-113917333D01*
X152735333Y-113917333D01*
X152535333Y-113850666D01*
X152402000Y-113717333D01*
X152335333Y-113584000D01*
X152268666Y-113317333D01*
X152268666Y-113117333D01*
X152335333Y-112850666D01*
X152402000Y-112717333D01*
X152535333Y-112584000D01*
X152735333Y-112517333D01*
X152868666Y-112517333D01*
X153068666Y-112584000D01*
X153135333Y-112650666D01*
X153735333Y-113917333D02*
X153735333Y-112517333D01*
X154535333Y-113917333D02*
X153935333Y-113117333D01*
X154535333Y-112517333D02*
X153735333Y-113317333D01*
X144735333Y-116457333D02*
X144735333Y-115057333D01*
X145268666Y-115057333D01*
X145402000Y-115124000D01*
X145468666Y-115190666D01*
X145535333Y-115324000D01*
X145535333Y-115524000D01*
X145468666Y-115657333D01*
X145402000Y-115724000D01*
X145268666Y-115790666D01*
X144735333Y-115790666D01*
X146602000Y-115724000D02*
X146802000Y-115790666D01*
X146868666Y-115857333D01*
X146935333Y-115990666D01*
X146935333Y-116190666D01*
X146868666Y-116324000D01*
X146802000Y-116390666D01*
X146668666Y-116457333D01*
X146135333Y-116457333D01*
X146135333Y-115057333D01*
X146602000Y-115057333D01*
X146735333Y-115124000D01*
X146802000Y-115190666D01*
X146868666Y-115324000D01*
X146868666Y-115457333D01*
X146802000Y-115590666D01*
X146735333Y-115657333D01*
X146602000Y-115724000D01*
X146135333Y-115724000D01*
X148135333Y-115524000D02*
X148135333Y-116457333D01*
X147802000Y-114990666D02*
X147468666Y-115990666D01*
X148335333Y-115990666D01*
X151002000Y-116457333D02*
X151002000Y-115057333D01*
X151468666Y-116057333D01*
X151935333Y-115057333D01*
X151935333Y-116457333D01*
X152602000Y-116457333D02*
X152602000Y-115057333D01*
X153202000Y-116390666D02*
X153402000Y-116457333D01*
X153735333Y-116457333D01*
X153868666Y-116390666D01*
X153935333Y-116324000D01*
X154002000Y-116190666D01*
X154002000Y-116057333D01*
X153935333Y-115924000D01*
X153868666Y-115857333D01*
X153735333Y-115790666D01*
X153468666Y-115724000D01*
X153335333Y-115657333D01*
X153268666Y-115590666D01*
X153202000Y-115457333D01*
X153202000Y-115324000D01*
X153268666Y-115190666D01*
X153335333Y-115124000D01*
X153468666Y-115057333D01*
X153802000Y-115057333D01*
X154002000Y-115124000D01*
X154868666Y-115057333D02*
X155135333Y-115057333D01*
X155268666Y-115124000D01*
X155402000Y-115257333D01*
X155468666Y-115524000D01*
X155468666Y-115990666D01*
X155402000Y-116257333D01*
X155268666Y-116390666D01*
X155135333Y-116457333D01*
X154868666Y-116457333D01*
X154735333Y-116390666D01*
X154602000Y-116257333D01*
X154535333Y-115990666D01*
X154535333Y-115524000D01*
X154602000Y-115257333D01*
X154735333Y-115124000D01*
X154868666Y-115057333D01*
X144735333Y-118997333D02*
X144735333Y-117597333D01*
X145268666Y-117597333D01*
X145402000Y-117664000D01*
X145468666Y-117730666D01*
X145535333Y-117864000D01*
X145535333Y-118064000D01*
X145468666Y-118197333D01*
X145402000Y-118264000D01*
X145268666Y-118330666D01*
X144735333Y-118330666D01*
X146602000Y-118264000D02*
X146802000Y-118330666D01*
X146868666Y-118397333D01*
X146935333Y-118530666D01*
X146935333Y-118730666D01*
X146868666Y-118864000D01*
X146802000Y-118930666D01*
X146668666Y-118997333D01*
X146135333Y-118997333D01*
X146135333Y-117597333D01*
X146602000Y-117597333D01*
X146735333Y-117664000D01*
X146802000Y-117730666D01*
X146868666Y-117864000D01*
X146868666Y-117997333D01*
X146802000Y-118130666D01*
X146735333Y-118197333D01*
X146602000Y-118264000D01*
X146135333Y-118264000D01*
X147402000Y-117597333D02*
X148268666Y-117597333D01*
X147802000Y-118130666D01*
X148002000Y-118130666D01*
X148135333Y-118197333D01*
X148202000Y-118264000D01*
X148268666Y-118397333D01*
X148268666Y-118730666D01*
X148202000Y-118864000D01*
X148135333Y-118930666D01*
X148002000Y-118997333D01*
X147602000Y-118997333D01*
X147468666Y-118930666D01*
X147402000Y-118864000D01*
X151002000Y-118997333D02*
X151002000Y-117597333D01*
X151468666Y-118597333D01*
X151935333Y-117597333D01*
X151935333Y-118997333D01*
X152868666Y-117597333D02*
X153135333Y-117597333D01*
X153268666Y-117664000D01*
X153402000Y-117797333D01*
X153468666Y-118064000D01*
X153468666Y-118530666D01*
X153402000Y-118797333D01*
X153268666Y-118930666D01*
X153135333Y-118997333D01*
X152868666Y-118997333D01*
X152735333Y-118930666D01*
X152602000Y-118797333D01*
X152535333Y-118530666D01*
X152535333Y-118064000D01*
X152602000Y-117797333D01*
X152735333Y-117664000D01*
X152868666Y-117597333D01*
X154002000Y-118930666D02*
X154202000Y-118997333D01*
X154535333Y-118997333D01*
X154668666Y-118930666D01*
X154735333Y-118864000D01*
X154802000Y-118730666D01*
X154802000Y-118597333D01*
X154735333Y-118464000D01*
X154668666Y-118397333D01*
X154535333Y-118330666D01*
X154268666Y-118264000D01*
X154135333Y-118197333D01*
X154068666Y-118130666D01*
X154002000Y-117997333D01*
X154002000Y-117864000D01*
X154068666Y-117730666D01*
X154135333Y-117664000D01*
X154268666Y-117597333D01*
X154602000Y-117597333D01*
X154802000Y-117664000D01*
X155402000Y-118997333D02*
X155402000Y-117597333D01*
X144735333Y-126617333D02*
X144735333Y-125217333D01*
X145268666Y-125217333D01*
X145402000Y-125284000D01*
X145468666Y-125350666D01*
X145535333Y-125484000D01*
X145535333Y-125684000D01*
X145468666Y-125817333D01*
X145402000Y-125884000D01*
X145268666Y-125950666D01*
X144735333Y-125950666D01*
X146602000Y-125884000D02*
X146802000Y-125950666D01*
X146868666Y-126017333D01*
X146935333Y-126150666D01*
X146935333Y-126350666D01*
X146868666Y-126484000D01*
X146802000Y-126550666D01*
X146668666Y-126617333D01*
X146135333Y-126617333D01*
X146135333Y-125217333D01*
X146602000Y-125217333D01*
X146735333Y-125284000D01*
X146802000Y-125350666D01*
X146868666Y-125484000D01*
X146868666Y-125617333D01*
X146802000Y-125750666D01*
X146735333Y-125817333D01*
X146602000Y-125884000D01*
X146135333Y-125884000D01*
X147802000Y-125217333D02*
X147935333Y-125217333D01*
X148068666Y-125284000D01*
X148135333Y-125350666D01*
X148202000Y-125484000D01*
X148268666Y-125750666D01*
X148268666Y-126084000D01*
X148202000Y-126350666D01*
X148135333Y-126484000D01*
X148068666Y-126550666D01*
X147935333Y-126617333D01*
X147802000Y-126617333D01*
X147668666Y-126550666D01*
X147602000Y-126484000D01*
X147535333Y-126350666D01*
X147468666Y-126084000D01*
X147468666Y-125750666D01*
X147535333Y-125484000D01*
X147602000Y-125350666D01*
X147668666Y-125284000D01*
X147802000Y-125217333D01*
X144735333Y-124077333D02*
X144735333Y-122677333D01*
X145268666Y-122677333D01*
X145402000Y-122744000D01*
X145468666Y-122810666D01*
X145535333Y-122944000D01*
X145535333Y-123144000D01*
X145468666Y-123277333D01*
X145402000Y-123344000D01*
X145268666Y-123410666D01*
X144735333Y-123410666D01*
X146602000Y-123344000D02*
X146802000Y-123410666D01*
X146868666Y-123477333D01*
X146935333Y-123610666D01*
X146935333Y-123810666D01*
X146868666Y-123944000D01*
X146802000Y-124010666D01*
X146668666Y-124077333D01*
X146135333Y-124077333D01*
X146135333Y-122677333D01*
X146602000Y-122677333D01*
X146735333Y-122744000D01*
X146802000Y-122810666D01*
X146868666Y-122944000D01*
X146868666Y-123077333D01*
X146802000Y-123210666D01*
X146735333Y-123277333D01*
X146602000Y-123344000D01*
X146135333Y-123344000D01*
X148268666Y-124077333D02*
X147468666Y-124077333D01*
X147868666Y-124077333D02*
X147868666Y-122677333D01*
X147735333Y-122877333D01*
X147602000Y-123010666D01*
X147468666Y-123077333D01*
X144735333Y-121537333D02*
X144735333Y-120137333D01*
X145268666Y-120137333D01*
X145402000Y-120204000D01*
X145468666Y-120270666D01*
X145535333Y-120404000D01*
X145535333Y-120604000D01*
X145468666Y-120737333D01*
X145402000Y-120804000D01*
X145268666Y-120870666D01*
X144735333Y-120870666D01*
X146602000Y-120804000D02*
X146802000Y-120870666D01*
X146868666Y-120937333D01*
X146935333Y-121070666D01*
X146935333Y-121270666D01*
X146868666Y-121404000D01*
X146802000Y-121470666D01*
X146668666Y-121537333D01*
X146135333Y-121537333D01*
X146135333Y-120137333D01*
X146602000Y-120137333D01*
X146735333Y-120204000D01*
X146802000Y-120270666D01*
X146868666Y-120404000D01*
X146868666Y-120537333D01*
X146802000Y-120670666D01*
X146735333Y-120737333D01*
X146602000Y-120804000D01*
X146135333Y-120804000D01*
X147468666Y-120270666D02*
X147535333Y-120204000D01*
X147668666Y-120137333D01*
X148002000Y-120137333D01*
X148135333Y-120204000D01*
X148202000Y-120270666D01*
X148268666Y-120404000D01*
X148268666Y-120537333D01*
X148202000Y-120737333D01*
X147402000Y-121537333D01*
X148268666Y-121537333D01*
X143211333Y-88009333D02*
X143211333Y-86609333D01*
X143744666Y-86609333D01*
X143878000Y-86676000D01*
X143944666Y-86742666D01*
X144011333Y-86876000D01*
X144011333Y-87076000D01*
X143944666Y-87209333D01*
X143878000Y-87276000D01*
X143744666Y-87342666D01*
X143211333Y-87342666D01*
X145411333Y-87876000D02*
X145344666Y-87942666D01*
X145144666Y-88009333D01*
X145011333Y-88009333D01*
X144811333Y-87942666D01*
X144678000Y-87809333D01*
X144611333Y-87676000D01*
X144544666Y-87409333D01*
X144544666Y-87209333D01*
X144611333Y-86942666D01*
X144678000Y-86809333D01*
X144811333Y-86676000D01*
X145011333Y-86609333D01*
X145144666Y-86609333D01*
X145344666Y-86676000D01*
X145411333Y-86742666D01*
X146278000Y-86609333D02*
X146411333Y-86609333D01*
X146544666Y-86676000D01*
X146611333Y-86742666D01*
X146678000Y-86876000D01*
X146744666Y-87142666D01*
X146744666Y-87476000D01*
X146678000Y-87742666D01*
X146611333Y-87876000D01*
X146544666Y-87942666D01*
X146411333Y-88009333D01*
X146278000Y-88009333D01*
X146144666Y-87942666D01*
X146078000Y-87876000D01*
X146011333Y-87742666D01*
X145944666Y-87476000D01*
X145944666Y-87142666D01*
X146011333Y-86876000D01*
X146078000Y-86742666D01*
X146144666Y-86676000D01*
X146278000Y-86609333D01*
X143211333Y-85469333D02*
X143211333Y-84069333D01*
X143744666Y-84069333D01*
X143878000Y-84136000D01*
X143944666Y-84202666D01*
X144011333Y-84336000D01*
X144011333Y-84536000D01*
X143944666Y-84669333D01*
X143878000Y-84736000D01*
X143744666Y-84802666D01*
X143211333Y-84802666D01*
X145411333Y-85336000D02*
X145344666Y-85402666D01*
X145144666Y-85469333D01*
X145011333Y-85469333D01*
X144811333Y-85402666D01*
X144678000Y-85269333D01*
X144611333Y-85136000D01*
X144544666Y-84869333D01*
X144544666Y-84669333D01*
X144611333Y-84402666D01*
X144678000Y-84269333D01*
X144811333Y-84136000D01*
X145011333Y-84069333D01*
X145144666Y-84069333D01*
X145344666Y-84136000D01*
X145411333Y-84202666D01*
X146744666Y-85469333D02*
X145944666Y-85469333D01*
X146344666Y-85469333D02*
X146344666Y-84069333D01*
X146211333Y-84269333D01*
X146078000Y-84402666D01*
X145944666Y-84469333D01*
X143211333Y-82929333D02*
X143211333Y-81529333D01*
X143744666Y-81529333D01*
X143878000Y-81596000D01*
X143944666Y-81662666D01*
X144011333Y-81796000D01*
X144011333Y-81996000D01*
X143944666Y-82129333D01*
X143878000Y-82196000D01*
X143744666Y-82262666D01*
X143211333Y-82262666D01*
X145411333Y-82796000D02*
X145344666Y-82862666D01*
X145144666Y-82929333D01*
X145011333Y-82929333D01*
X144811333Y-82862666D01*
X144678000Y-82729333D01*
X144611333Y-82596000D01*
X144544666Y-82329333D01*
X144544666Y-82129333D01*
X144611333Y-81862666D01*
X144678000Y-81729333D01*
X144811333Y-81596000D01*
X145011333Y-81529333D01*
X145144666Y-81529333D01*
X145344666Y-81596000D01*
X145411333Y-81662666D01*
X145944666Y-81662666D02*
X146011333Y-81596000D01*
X146144666Y-81529333D01*
X146478000Y-81529333D01*
X146611333Y-81596000D01*
X146678000Y-81662666D01*
X146744666Y-81796000D01*
X146744666Y-81929333D01*
X146678000Y-82129333D01*
X145878000Y-82929333D01*
X146744666Y-82929333D01*
X143211333Y-80389333D02*
X143211333Y-78989333D01*
X143744666Y-78989333D01*
X143878000Y-79056000D01*
X143944666Y-79122666D01*
X144011333Y-79256000D01*
X144011333Y-79456000D01*
X143944666Y-79589333D01*
X143878000Y-79656000D01*
X143744666Y-79722666D01*
X143211333Y-79722666D01*
X145411333Y-80256000D02*
X145344666Y-80322666D01*
X145144666Y-80389333D01*
X145011333Y-80389333D01*
X144811333Y-80322666D01*
X144678000Y-80189333D01*
X144611333Y-80056000D01*
X144544666Y-79789333D01*
X144544666Y-79589333D01*
X144611333Y-79322666D01*
X144678000Y-79189333D01*
X144811333Y-79056000D01*
X145011333Y-78989333D01*
X145144666Y-78989333D01*
X145344666Y-79056000D01*
X145411333Y-79122666D01*
X145878000Y-78989333D02*
X146744666Y-78989333D01*
X146278000Y-79522666D01*
X146478000Y-79522666D01*
X146611333Y-79589333D01*
X146678000Y-79656000D01*
X146744666Y-79789333D01*
X146744666Y-80122666D01*
X146678000Y-80256000D01*
X146611333Y-80322666D01*
X146478000Y-80389333D01*
X146078000Y-80389333D01*
X145944666Y-80322666D01*
X145878000Y-80256000D01*
X143211333Y-77849333D02*
X143211333Y-76449333D01*
X143744666Y-76449333D01*
X143878000Y-76516000D01*
X143944666Y-76582666D01*
X144011333Y-76716000D01*
X144011333Y-76916000D01*
X143944666Y-77049333D01*
X143878000Y-77116000D01*
X143744666Y-77182666D01*
X143211333Y-77182666D01*
X145411333Y-77716000D02*
X145344666Y-77782666D01*
X145144666Y-77849333D01*
X145011333Y-77849333D01*
X144811333Y-77782666D01*
X144678000Y-77649333D01*
X144611333Y-77516000D01*
X144544666Y-77249333D01*
X144544666Y-77049333D01*
X144611333Y-76782666D01*
X144678000Y-76649333D01*
X144811333Y-76516000D01*
X145011333Y-76449333D01*
X145144666Y-76449333D01*
X145344666Y-76516000D01*
X145411333Y-76582666D01*
X146611333Y-76916000D02*
X146611333Y-77849333D01*
X146278000Y-76382666D02*
X145944666Y-77382666D01*
X146811333Y-77382666D01*
X148344666Y-77782666D02*
X148544666Y-77849333D01*
X148878000Y-77849333D01*
X149011333Y-77782666D01*
X149078000Y-77716000D01*
X149144666Y-77582666D01*
X149144666Y-77449333D01*
X149078000Y-77316000D01*
X149011333Y-77249333D01*
X148878000Y-77182666D01*
X148611333Y-77116000D01*
X148478000Y-77049333D01*
X148411333Y-76982666D01*
X148344666Y-76849333D01*
X148344666Y-76716000D01*
X148411333Y-76582666D01*
X148478000Y-76516000D01*
X148611333Y-76449333D01*
X148944666Y-76449333D01*
X149144666Y-76516000D01*
X149744666Y-77849333D02*
X149744666Y-76449333D01*
X150078000Y-76449333D01*
X150278000Y-76516000D01*
X150411333Y-76649333D01*
X150478000Y-76782666D01*
X150544666Y-77049333D01*
X150544666Y-77249333D01*
X150478000Y-77516000D01*
X150411333Y-77649333D01*
X150278000Y-77782666D01*
X150078000Y-77849333D01*
X149744666Y-77849333D01*
X151078000Y-77449333D02*
X151744666Y-77449333D01*
X150944666Y-77849333D02*
X151411333Y-76449333D01*
X151878000Y-77849333D01*
X143211333Y-75309333D02*
X143211333Y-73909333D01*
X143744666Y-73909333D01*
X143878000Y-73976000D01*
X143944666Y-74042666D01*
X144011333Y-74176000D01*
X144011333Y-74376000D01*
X143944666Y-74509333D01*
X143878000Y-74576000D01*
X143744666Y-74642666D01*
X143211333Y-74642666D01*
X145411333Y-75176000D02*
X145344666Y-75242666D01*
X145144666Y-75309333D01*
X145011333Y-75309333D01*
X144811333Y-75242666D01*
X144678000Y-75109333D01*
X144611333Y-74976000D01*
X144544666Y-74709333D01*
X144544666Y-74509333D01*
X144611333Y-74242666D01*
X144678000Y-74109333D01*
X144811333Y-73976000D01*
X145011333Y-73909333D01*
X145144666Y-73909333D01*
X145344666Y-73976000D01*
X145411333Y-74042666D01*
X146678000Y-73909333D02*
X146011333Y-73909333D01*
X145944666Y-74576000D01*
X146011333Y-74509333D01*
X146144666Y-74442666D01*
X146478000Y-74442666D01*
X146611333Y-74509333D01*
X146678000Y-74576000D01*
X146744666Y-74709333D01*
X146744666Y-75042666D01*
X146678000Y-75176000D01*
X146611333Y-75242666D01*
X146478000Y-75309333D01*
X146144666Y-75309333D01*
X146011333Y-75242666D01*
X145944666Y-75176000D01*
X148344666Y-75242666D02*
X148544666Y-75309333D01*
X148878000Y-75309333D01*
X149011333Y-75242666D01*
X149078000Y-75176000D01*
X149144666Y-75042666D01*
X149144666Y-74909333D01*
X149078000Y-74776000D01*
X149011333Y-74709333D01*
X148878000Y-74642666D01*
X148611333Y-74576000D01*
X148478000Y-74509333D01*
X148411333Y-74442666D01*
X148344666Y-74309333D01*
X148344666Y-74176000D01*
X148411333Y-74042666D01*
X148478000Y-73976000D01*
X148611333Y-73909333D01*
X148944666Y-73909333D01*
X149144666Y-73976000D01*
X150544666Y-75176000D02*
X150478000Y-75242666D01*
X150278000Y-75309333D01*
X150144666Y-75309333D01*
X149944666Y-75242666D01*
X149811333Y-75109333D01*
X149744666Y-74976000D01*
X149678000Y-74709333D01*
X149678000Y-74509333D01*
X149744666Y-74242666D01*
X149811333Y-74109333D01*
X149944666Y-73976000D01*
X150144666Y-73909333D01*
X150278000Y-73909333D01*
X150478000Y-73976000D01*
X150544666Y-74042666D01*
X151811333Y-75309333D02*
X151144666Y-75309333D01*
X151144666Y-73909333D01*
X143211333Y-72769333D02*
X143211333Y-71369333D01*
X143744666Y-71369333D01*
X143878000Y-71436000D01*
X143944666Y-71502666D01*
X144011333Y-71636000D01*
X144011333Y-71836000D01*
X143944666Y-71969333D01*
X143878000Y-72036000D01*
X143744666Y-72102666D01*
X143211333Y-72102666D01*
X145411333Y-72636000D02*
X145344666Y-72702666D01*
X145144666Y-72769333D01*
X145011333Y-72769333D01*
X144811333Y-72702666D01*
X144678000Y-72569333D01*
X144611333Y-72436000D01*
X144544666Y-72169333D01*
X144544666Y-71969333D01*
X144611333Y-71702666D01*
X144678000Y-71569333D01*
X144811333Y-71436000D01*
X145011333Y-71369333D01*
X145144666Y-71369333D01*
X145344666Y-71436000D01*
X145411333Y-71502666D01*
X146611333Y-71369333D02*
X146344666Y-71369333D01*
X146211333Y-71436000D01*
X146144666Y-71502666D01*
X146011333Y-71702666D01*
X145944666Y-71969333D01*
X145944666Y-72502666D01*
X146011333Y-72636000D01*
X146078000Y-72702666D01*
X146211333Y-72769333D01*
X146478000Y-72769333D01*
X146611333Y-72702666D01*
X146678000Y-72636000D01*
X146744666Y-72502666D01*
X146744666Y-72169333D01*
X146678000Y-72036000D01*
X146611333Y-71969333D01*
X146478000Y-71902666D01*
X146211333Y-71902666D01*
X146078000Y-71969333D01*
X146011333Y-72036000D01*
X145944666Y-72169333D01*
X148078000Y-70868000D02*
X149478000Y-70868000D01*
X149211333Y-72769333D02*
X148744666Y-72102666D01*
X148411333Y-72769333D02*
X148411333Y-71369333D01*
X148944666Y-71369333D01*
X149078000Y-71436000D01*
X149144666Y-71502666D01*
X149211333Y-71636000D01*
X149211333Y-71836000D01*
X149144666Y-71969333D01*
X149078000Y-72036000D01*
X148944666Y-72102666D01*
X148411333Y-72102666D01*
X149478000Y-70868000D02*
X150811333Y-70868000D01*
X149744666Y-72702666D02*
X149944666Y-72769333D01*
X150278000Y-72769333D01*
X150411333Y-72702666D01*
X150478000Y-72636000D01*
X150544666Y-72502666D01*
X150544666Y-72369333D01*
X150478000Y-72236000D01*
X150411333Y-72169333D01*
X150278000Y-72102666D01*
X150011333Y-72036000D01*
X149878000Y-71969333D01*
X149811333Y-71902666D01*
X149744666Y-71769333D01*
X149744666Y-71636000D01*
X149811333Y-71502666D01*
X149878000Y-71436000D01*
X150011333Y-71369333D01*
X150344666Y-71369333D01*
X150544666Y-71436000D01*
X150811333Y-70868000D02*
X151878000Y-70868000D01*
X150944666Y-71369333D02*
X151744666Y-71369333D01*
X151344666Y-72769333D02*
X151344666Y-71369333D01*
X87002000Y-95629333D02*
X87002000Y-94229333D01*
X87535333Y-94229333D01*
X87668666Y-94296000D01*
X87735333Y-94362666D01*
X87802000Y-94496000D01*
X87802000Y-94696000D01*
X87735333Y-94829333D01*
X87668666Y-94896000D01*
X87535333Y-94962666D01*
X87002000Y-94962666D01*
X88402000Y-95629333D02*
X88402000Y-94229333D01*
X88735333Y-94229333D01*
X88935333Y-94296000D01*
X89068666Y-94429333D01*
X89135333Y-94562666D01*
X89202000Y-94829333D01*
X89202000Y-95029333D01*
X89135333Y-95296000D01*
X89068666Y-95429333D01*
X88935333Y-95562666D01*
X88735333Y-95629333D01*
X88402000Y-95629333D01*
X89668666Y-94229333D02*
X90602000Y-94229333D01*
X90002000Y-95629333D01*
X87002000Y-93089333D02*
X87002000Y-91689333D01*
X87535333Y-91689333D01*
X87668666Y-91756000D01*
X87735333Y-91822666D01*
X87802000Y-91956000D01*
X87802000Y-92156000D01*
X87735333Y-92289333D01*
X87668666Y-92356000D01*
X87535333Y-92422666D01*
X87002000Y-92422666D01*
X88402000Y-93089333D02*
X88402000Y-91689333D01*
X88735333Y-91689333D01*
X88935333Y-91756000D01*
X89068666Y-91889333D01*
X89135333Y-92022666D01*
X89202000Y-92289333D01*
X89202000Y-92489333D01*
X89135333Y-92756000D01*
X89068666Y-92889333D01*
X88935333Y-93022666D01*
X88735333Y-93089333D01*
X88402000Y-93089333D01*
X90402000Y-91689333D02*
X90135333Y-91689333D01*
X90002000Y-91756000D01*
X89935333Y-91822666D01*
X89802000Y-92022666D01*
X89735333Y-92289333D01*
X89735333Y-92822666D01*
X89802000Y-92956000D01*
X89868666Y-93022666D01*
X90002000Y-93089333D01*
X90268666Y-93089333D01*
X90402000Y-93022666D01*
X90468666Y-92956000D01*
X90535333Y-92822666D01*
X90535333Y-92489333D01*
X90468666Y-92356000D01*
X90402000Y-92289333D01*
X90268666Y-92222666D01*
X90002000Y-92222666D01*
X89868666Y-92289333D01*
X89802000Y-92356000D01*
X89735333Y-92489333D01*
X87002000Y-90549333D02*
X87002000Y-89149333D01*
X87535333Y-89149333D01*
X87668666Y-89216000D01*
X87735333Y-89282666D01*
X87802000Y-89416000D01*
X87802000Y-89616000D01*
X87735333Y-89749333D01*
X87668666Y-89816000D01*
X87535333Y-89882666D01*
X87002000Y-89882666D01*
X88402000Y-90549333D02*
X88402000Y-89149333D01*
X88735333Y-89149333D01*
X88935333Y-89216000D01*
X89068666Y-89349333D01*
X89135333Y-89482666D01*
X89202000Y-89749333D01*
X89202000Y-89949333D01*
X89135333Y-90216000D01*
X89068666Y-90349333D01*
X88935333Y-90482666D01*
X88735333Y-90549333D01*
X88402000Y-90549333D01*
X90468666Y-89149333D02*
X89802000Y-89149333D01*
X89735333Y-89816000D01*
X89802000Y-89749333D01*
X89935333Y-89682666D01*
X90268666Y-89682666D01*
X90402000Y-89749333D01*
X90468666Y-89816000D01*
X90535333Y-89949333D01*
X90535333Y-90282666D01*
X90468666Y-90416000D01*
X90402000Y-90482666D01*
X90268666Y-90549333D01*
X89935333Y-90549333D01*
X89802000Y-90482666D01*
X89735333Y-90416000D01*
X87002000Y-88009333D02*
X87002000Y-86609333D01*
X87535333Y-86609333D01*
X87668666Y-86676000D01*
X87735333Y-86742666D01*
X87802000Y-86876000D01*
X87802000Y-87076000D01*
X87735333Y-87209333D01*
X87668666Y-87276000D01*
X87535333Y-87342666D01*
X87002000Y-87342666D01*
X88402000Y-88009333D02*
X88402000Y-86609333D01*
X88735333Y-86609333D01*
X88935333Y-86676000D01*
X89068666Y-86809333D01*
X89135333Y-86942666D01*
X89202000Y-87209333D01*
X89202000Y-87409333D01*
X89135333Y-87676000D01*
X89068666Y-87809333D01*
X88935333Y-87942666D01*
X88735333Y-88009333D01*
X88402000Y-88009333D01*
X90402000Y-87076000D02*
X90402000Y-88009333D01*
X90068666Y-86542666D02*
X89735333Y-87542666D01*
X90602000Y-87542666D01*
X87002000Y-85469333D02*
X87002000Y-84069333D01*
X87535333Y-84069333D01*
X87668666Y-84136000D01*
X87735333Y-84202666D01*
X87802000Y-84336000D01*
X87802000Y-84536000D01*
X87735333Y-84669333D01*
X87668666Y-84736000D01*
X87535333Y-84802666D01*
X87002000Y-84802666D01*
X88402000Y-85469333D02*
X88402000Y-84069333D01*
X88735333Y-84069333D01*
X88935333Y-84136000D01*
X89068666Y-84269333D01*
X89135333Y-84402666D01*
X89202000Y-84669333D01*
X89202000Y-84869333D01*
X89135333Y-85136000D01*
X89068666Y-85269333D01*
X88935333Y-85402666D01*
X88735333Y-85469333D01*
X88402000Y-85469333D01*
X89668666Y-84069333D02*
X90535333Y-84069333D01*
X90068666Y-84602666D01*
X90268666Y-84602666D01*
X90402000Y-84669333D01*
X90468666Y-84736000D01*
X90535333Y-84869333D01*
X90535333Y-85202666D01*
X90468666Y-85336000D01*
X90402000Y-85402666D01*
X90268666Y-85469333D01*
X89868666Y-85469333D01*
X89735333Y-85402666D01*
X89668666Y-85336000D01*
X87002000Y-82929333D02*
X87002000Y-81529333D01*
X87535333Y-81529333D01*
X87668666Y-81596000D01*
X87735333Y-81662666D01*
X87802000Y-81796000D01*
X87802000Y-81996000D01*
X87735333Y-82129333D01*
X87668666Y-82196000D01*
X87535333Y-82262666D01*
X87002000Y-82262666D01*
X88402000Y-82929333D02*
X88402000Y-81529333D01*
X88735333Y-81529333D01*
X88935333Y-81596000D01*
X89068666Y-81729333D01*
X89135333Y-81862666D01*
X89202000Y-82129333D01*
X89202000Y-82329333D01*
X89135333Y-82596000D01*
X89068666Y-82729333D01*
X88935333Y-82862666D01*
X88735333Y-82929333D01*
X88402000Y-82929333D01*
X89735333Y-81662666D02*
X89802000Y-81596000D01*
X89935333Y-81529333D01*
X90268666Y-81529333D01*
X90402000Y-81596000D01*
X90468666Y-81662666D01*
X90535333Y-81796000D01*
X90535333Y-81929333D01*
X90468666Y-82129333D01*
X89668666Y-82929333D01*
X90535333Y-82929333D01*
X82268666Y-78989333D02*
X83068666Y-78989333D01*
X82668666Y-80389333D02*
X82668666Y-78989333D01*
X83402000Y-78989333D02*
X84335333Y-80389333D01*
X84335333Y-78989333D02*
X83402000Y-80389333D01*
X87002000Y-80389333D02*
X87002000Y-78989333D01*
X87535333Y-78989333D01*
X87668666Y-79056000D01*
X87735333Y-79122666D01*
X87802000Y-79256000D01*
X87802000Y-79456000D01*
X87735333Y-79589333D01*
X87668666Y-79656000D01*
X87535333Y-79722666D01*
X87002000Y-79722666D01*
X88402000Y-80389333D02*
X88402000Y-78989333D01*
X88735333Y-78989333D01*
X88935333Y-79056000D01*
X89068666Y-79189333D01*
X89135333Y-79322666D01*
X89202000Y-79589333D01*
X89202000Y-79789333D01*
X89135333Y-80056000D01*
X89068666Y-80189333D01*
X88935333Y-80322666D01*
X88735333Y-80389333D01*
X88402000Y-80389333D01*
X90535333Y-80389333D02*
X89735333Y-80389333D01*
X90135333Y-80389333D02*
X90135333Y-78989333D01*
X90002000Y-79189333D01*
X89868666Y-79322666D01*
X89735333Y-79389333D01*
X82935333Y-77849333D02*
X82468666Y-77182666D01*
X82135333Y-77849333D02*
X82135333Y-76449333D01*
X82668666Y-76449333D01*
X82802000Y-76516000D01*
X82868666Y-76582666D01*
X82935333Y-76716000D01*
X82935333Y-76916000D01*
X82868666Y-77049333D01*
X82802000Y-77116000D01*
X82668666Y-77182666D01*
X82135333Y-77182666D01*
X83402000Y-76449333D02*
X84335333Y-77849333D01*
X84335333Y-76449333D02*
X83402000Y-77849333D01*
X87002000Y-77849333D02*
X87002000Y-76449333D01*
X87535333Y-76449333D01*
X87668666Y-76516000D01*
X87735333Y-76582666D01*
X87802000Y-76716000D01*
X87802000Y-76916000D01*
X87735333Y-77049333D01*
X87668666Y-77116000D01*
X87535333Y-77182666D01*
X87002000Y-77182666D01*
X88402000Y-77849333D02*
X88402000Y-76449333D01*
X88735333Y-76449333D01*
X88935333Y-76516000D01*
X89068666Y-76649333D01*
X89135333Y-76782666D01*
X89202000Y-77049333D01*
X89202000Y-77249333D01*
X89135333Y-77516000D01*
X89068666Y-77649333D01*
X88935333Y-77782666D01*
X88735333Y-77849333D01*
X88402000Y-77849333D01*
X90068666Y-76449333D02*
X90202000Y-76449333D01*
X90335333Y-76516000D01*
X90402000Y-76582666D01*
X90468666Y-76716000D01*
X90535333Y-76982666D01*
X90535333Y-77316000D01*
X90468666Y-77582666D01*
X90402000Y-77716000D01*
X90335333Y-77782666D01*
X90202000Y-77849333D01*
X90068666Y-77849333D01*
X89935333Y-77782666D01*
X89868666Y-77716000D01*
X89802000Y-77582666D01*
X89735333Y-77316000D01*
X89735333Y-76982666D01*
X89802000Y-76716000D01*
X89868666Y-76582666D01*
X89935333Y-76516000D01*
X90068666Y-76449333D01*
X168563714Y-75283142D02*
X168778000Y-75354571D01*
X169135142Y-75354571D01*
X169278000Y-75283142D01*
X169349428Y-75211714D01*
X169420857Y-75068857D01*
X169420857Y-74926000D01*
X169349428Y-74783142D01*
X169278000Y-74711714D01*
X169135142Y-74640285D01*
X168849428Y-74568857D01*
X168706571Y-74497428D01*
X168635142Y-74426000D01*
X168563714Y-74283142D01*
X168563714Y-74140285D01*
X168635142Y-73997428D01*
X168706571Y-73926000D01*
X168849428Y-73854571D01*
X169206571Y-73854571D01*
X169420857Y-73926000D01*
X170920857Y-75211714D02*
X170849428Y-75283142D01*
X170635142Y-75354571D01*
X170492285Y-75354571D01*
X170278000Y-75283142D01*
X170135142Y-75140285D01*
X170063714Y-74997428D01*
X169992285Y-74711714D01*
X169992285Y-74497428D01*
X170063714Y-74211714D01*
X170135142Y-74068857D01*
X170278000Y-73926000D01*
X170492285Y-73854571D01*
X170635142Y-73854571D01*
X170849428Y-73926000D01*
X170920857Y-73997428D01*
X172278000Y-75354571D02*
X171563714Y-75354571D01*
X171563714Y-73854571D01*
X168563714Y-77823142D02*
X168778000Y-77894571D01*
X169135142Y-77894571D01*
X169278000Y-77823142D01*
X169349428Y-77751714D01*
X169420857Y-77608857D01*
X169420857Y-77466000D01*
X169349428Y-77323142D01*
X169278000Y-77251714D01*
X169135142Y-77180285D01*
X168849428Y-77108857D01*
X168706571Y-77037428D01*
X168635142Y-76966000D01*
X168563714Y-76823142D01*
X168563714Y-76680285D01*
X168635142Y-76537428D01*
X168706571Y-76466000D01*
X168849428Y-76394571D01*
X169206571Y-76394571D01*
X169420857Y-76466000D01*
X170063714Y-77894571D02*
X170063714Y-76394571D01*
X170420857Y-76394571D01*
X170635142Y-76466000D01*
X170778000Y-76608857D01*
X170849428Y-76751714D01*
X170920857Y-77037428D01*
X170920857Y-77251714D01*
X170849428Y-77537428D01*
X170778000Y-77680285D01*
X170635142Y-77823142D01*
X170420857Y-77894571D01*
X170063714Y-77894571D01*
X171492285Y-77466000D02*
X172206571Y-77466000D01*
X171349428Y-77894571D02*
X171849428Y-76394571D01*
X172349428Y-77894571D01*
X169420857Y-79006000D02*
X169278000Y-78934571D01*
X169063714Y-78934571D01*
X168849428Y-79006000D01*
X168706571Y-79148857D01*
X168635142Y-79291714D01*
X168563714Y-79577428D01*
X168563714Y-79791714D01*
X168635142Y-80077428D01*
X168706571Y-80220285D01*
X168849428Y-80363142D01*
X169063714Y-80434571D01*
X169206571Y-80434571D01*
X169420857Y-80363142D01*
X169492285Y-80291714D01*
X169492285Y-79791714D01*
X169206571Y-79791714D01*
X170135142Y-80434571D02*
X170135142Y-78934571D01*
X170992285Y-80434571D01*
X170992285Y-78934571D01*
X171706571Y-80434571D02*
X171706571Y-78934571D01*
X172063714Y-78934571D01*
X172278000Y-79006000D01*
X172420857Y-79148857D01*
X172492285Y-79291714D01*
X172563714Y-79577428D01*
X172563714Y-79791714D01*
X172492285Y-80077428D01*
X172420857Y-80220285D01*
X172278000Y-80363142D01*
X172063714Y-80434571D01*
X171706571Y-80434571D01*
X168381142Y-82403142D02*
X169524000Y-82403142D01*
X168952571Y-82974571D02*
X168952571Y-81831714D01*
X170952571Y-81474571D02*
X170238285Y-81474571D01*
X170166857Y-82188857D01*
X170238285Y-82117428D01*
X170381142Y-82046000D01*
X170738285Y-82046000D01*
X170881142Y-82117428D01*
X170952571Y-82188857D01*
X171024000Y-82331714D01*
X171024000Y-82688857D01*
X170952571Y-82831714D01*
X170881142Y-82903142D01*
X170738285Y-82974571D01*
X170381142Y-82974571D01*
X170238285Y-82903142D01*
X170166857Y-82831714D01*
X171452571Y-81474571D02*
X171952571Y-82974571D01*
X172452571Y-81474571D01*
D13*
X133731142Y-57797000D02*
X133588285Y-57725571D01*
X133374000Y-57725571D01*
X133159714Y-57797000D01*
X133016857Y-57939857D01*
X132945428Y-58082714D01*
X132874000Y-58368428D01*
X132874000Y-58582714D01*
X132945428Y-58868428D01*
X133016857Y-59011285D01*
X133159714Y-59154142D01*
X133374000Y-59225571D01*
X133516857Y-59225571D01*
X133731142Y-59154142D01*
X133802571Y-59082714D01*
X133802571Y-58582714D01*
X133516857Y-58582714D01*
X134445428Y-59225571D02*
X134445428Y-57725571D01*
X135302571Y-59225571D01*
X135302571Y-57725571D01*
X136016857Y-59225571D02*
X136016857Y-57725571D01*
X136374000Y-57725571D01*
X136588285Y-57797000D01*
X136731142Y-57939857D01*
X136802571Y-58082714D01*
X136874000Y-58368428D01*
X136874000Y-58582714D01*
X136802571Y-58868428D01*
X136731142Y-59011285D01*
X136588285Y-59154142D01*
X136374000Y-59225571D01*
X136016857Y-59225571D01*
X132945428Y-55606142D02*
X134088285Y-55606142D01*
X133516857Y-56177571D02*
X133516857Y-55034714D01*
X135516857Y-54677571D02*
X134802571Y-54677571D01*
X134731142Y-55391857D01*
X134802571Y-55320428D01*
X134945428Y-55249000D01*
X135302571Y-55249000D01*
X135445428Y-55320428D01*
X135516857Y-55391857D01*
X135588285Y-55534714D01*
X135588285Y-55891857D01*
X135516857Y-56034714D01*
X135445428Y-56106142D01*
X135302571Y-56177571D01*
X134945428Y-56177571D01*
X134802571Y-56106142D01*
X134731142Y-56034714D01*
X136016857Y-54677571D02*
X136516857Y-56177571D01*
X137016857Y-54677571D01*
X95885142Y-57797000D02*
X95742285Y-57725571D01*
X95528000Y-57725571D01*
X95313714Y-57797000D01*
X95170857Y-57939857D01*
X95099428Y-58082714D01*
X95028000Y-58368428D01*
X95028000Y-58582714D01*
X95099428Y-58868428D01*
X95170857Y-59011285D01*
X95313714Y-59154142D01*
X95528000Y-59225571D01*
X95670857Y-59225571D01*
X95885142Y-59154142D01*
X95956571Y-59082714D01*
X95956571Y-58582714D01*
X95670857Y-58582714D01*
X96599428Y-59225571D02*
X96599428Y-57725571D01*
X97456571Y-59225571D01*
X97456571Y-57725571D01*
X98170857Y-59225571D02*
X98170857Y-57725571D01*
X98528000Y-57725571D01*
X98742285Y-57797000D01*
X98885142Y-57939857D01*
X98956571Y-58082714D01*
X99028000Y-58368428D01*
X99028000Y-58582714D01*
X98956571Y-58868428D01*
X98885142Y-59011285D01*
X98742285Y-59154142D01*
X98528000Y-59225571D01*
X98170857Y-59225571D01*
X95099428Y-56114142D02*
X96242285Y-56114142D01*
X95670857Y-56685571D02*
X95670857Y-55542714D01*
X97670857Y-55185571D02*
X96956571Y-55185571D01*
X96885142Y-55899857D01*
X96956571Y-55828428D01*
X97099428Y-55757000D01*
X97456571Y-55757000D01*
X97599428Y-55828428D01*
X97670857Y-55899857D01*
X97742285Y-56042714D01*
X97742285Y-56399857D01*
X97670857Y-56542714D01*
X97599428Y-56614142D01*
X97456571Y-56685571D01*
X97099428Y-56685571D01*
X96956571Y-56614142D01*
X96885142Y-56542714D01*
X98170857Y-55185571D02*
X98670857Y-56685571D01*
X99170857Y-55185571D01*
D14*
X164312000Y-73126000D02*
X167412000Y-73126000D01*
X164312000Y-74676000D02*
X164312000Y-73126000D01*
X167132000Y-75946000D02*
X164592000Y-75946000D01*
X164592000Y-83566000D02*
X167132000Y-83566000D01*
X167412000Y-73126000D02*
X167412000Y-74676000D01*
X167132000Y-75946000D02*
X167132000Y-83566000D01*
X164592000Y-75946000D02*
X164592000Y-83566000D01*
X160756000Y-73126000D02*
X163856000Y-73126000D01*
X160756000Y-74676000D02*
X160756000Y-73126000D01*
X163576000Y-75946000D02*
X161036000Y-75946000D01*
X161036000Y-83566000D02*
X163576000Y-83566000D01*
X163856000Y-73126000D02*
X163856000Y-74676000D01*
X163576000Y-75946000D02*
X163576000Y-83566000D01*
X161036000Y-75946000D02*
X161036000Y-83566000D01*
X78460000Y-103098000D02*
X81560000Y-103098000D01*
X78460000Y-104648000D02*
X78460000Y-103098000D01*
X81280000Y-105918000D02*
X78740000Y-105918000D01*
X78740000Y-113538000D02*
X81280000Y-113538000D01*
X81560000Y-103098000D02*
X81560000Y-104648000D01*
X81280000Y-105918000D02*
X81280000Y-113538000D01*
X78740000Y-105918000D02*
X78740000Y-113538000D01*
X83312000Y-93472000D02*
X83312000Y-90932000D01*
X80772000Y-93472000D02*
X83312000Y-93472000D01*
X77952000Y-93752000D02*
X77952000Y-90652000D01*
X79502000Y-93752000D02*
X77952000Y-93752000D01*
X80772000Y-90932000D02*
X80772000Y-93472000D01*
X77952000Y-90652000D02*
X79502000Y-90652000D01*
X80772000Y-90932000D02*
X83312000Y-90932000D01*
X77825000Y-72999000D02*
X80925000Y-72999000D01*
X77825000Y-74549000D02*
X77825000Y-72999000D01*
X80645000Y-75819000D02*
X78105000Y-75819000D01*
X80925000Y-72999000D02*
X80925000Y-74549000D01*
X78105000Y-88519000D02*
X78105000Y-75819000D01*
X80645000Y-88519000D02*
X78105000Y-88519000D01*
X80645000Y-75819000D02*
X80645000Y-88519000D01*
X84328000Y-128270000D02*
G75*
G03X84328000Y-128270000I-2540000J0D01*
G01*
X170434000Y-128270000D02*
G75*
G03X170434000Y-128270000I-2540000J0D01*
G01*
X84328000Y-57404000D02*
G75*
G03X84328000Y-57404000I-2540000J0D01*
G01*
X170434000Y-57404000D02*
G75*
G03X170434000Y-57404000I-2540000J0D01*
G01*
X162036000Y-84827000D02*
X160036000Y-84827000D01*
X160036000Y-86877000D02*
X162036000Y-86877000D01*
X109236000Y-118881000D02*
X111236000Y-118881000D01*
X111236000Y-116831000D02*
X109236000Y-116831000D01*
D11*
X106045000Y-57912000D02*
X107315000Y-57912000D01*
X106045000Y-56102000D02*
X106045000Y-59722000D01*
X107315000Y-56102000D02*
X106045000Y-56102000D01*
X107315000Y-59722000D02*
X107315000Y-56102000D01*
X106045000Y-59722000D02*
X107315000Y-59722000D01*
X103505000Y-57912000D02*
X104775000Y-57912000D01*
X103505000Y-56102000D02*
X103505000Y-59722000D01*
X104775000Y-56102000D02*
X103505000Y-56102000D01*
X104775000Y-59722000D02*
X104775000Y-56102000D01*
X103505000Y-59722000D02*
X104775000Y-59722000D01*
X100965000Y-57912000D02*
X102235000Y-57912000D01*
X100965000Y-56102000D02*
X100965000Y-59722000D01*
X102235000Y-56102000D02*
X100965000Y-56102000D01*
X102235000Y-59722000D02*
X102235000Y-56102000D01*
X100965000Y-59722000D02*
X102235000Y-59722000D01*
X107950000Y-59817000D02*
X100330000Y-59817000D01*
X107950000Y-56007000D02*
X107950000Y-59817000D01*
X100330000Y-56007000D02*
X107950000Y-56007000D01*
X100330000Y-59817000D02*
X100330000Y-56007000D01*
D14*
X125095000Y-112573000D02*
X125095000Y-111303000D01*
X108585000Y-112573000D02*
X125095000Y-112573000D01*
X108585000Y-111303000D02*
X108585000Y-112573000D01*
X108585000Y-111303000D02*
X108585000Y-102413000D01*
X125095000Y-111303000D02*
X108585000Y-111303000D01*
X125095000Y-102413000D02*
X125095000Y-111303000D01*
X108585000Y-102413000D02*
X125095000Y-102413000D01*
X99695000Y-115113000D02*
X133985000Y-115113000D01*
X99695000Y-71933000D02*
X133985000Y-71933000D01*
X99695000Y-115113000D02*
X99695000Y-113843000D01*
X133985000Y-115113000D02*
X133985000Y-113843000D01*
X133985000Y-71933000D02*
X133985000Y-73203000D01*
X99695000Y-71933000D02*
X99695000Y-73203000D01*
X89135000Y-67485000D02*
X89135000Y-68985000D01*
X90385000Y-71485000D02*
X94885000Y-71485000D01*
X96135000Y-68985000D02*
X96135000Y-67485000D01*
X94885000Y-64985000D02*
X90385000Y-64985000D01*
X121936000Y-62933000D02*
X123936000Y-62933000D01*
X123936000Y-65083000D02*
X121936000Y-65083000D01*
X101659000Y-66564000D02*
X101659000Y-68564000D01*
X99509000Y-68564000D02*
X99509000Y-66564000D01*
X158809000Y-67326000D02*
X158809000Y-69326000D01*
X156659000Y-69326000D02*
X156659000Y-67326000D01*
X155253000Y-67326000D02*
X155253000Y-69326000D01*
X153103000Y-69326000D02*
X153103000Y-67326000D01*
D11*
X140684000Y-102568000D02*
X141684000Y-101568000D01*
X140684000Y-102568000D02*
X136684000Y-102568000D01*
X140734000Y-96568000D02*
X141684000Y-97568000D01*
X136584000Y-96568000D02*
X140684000Y-96568000D01*
X136634000Y-96568000D02*
X135684000Y-97518000D01*
X136634000Y-102568000D02*
X135684000Y-101568000D01*
D14*
X150850000Y-58954000D02*
X150850000Y-55854000D01*
X152400000Y-58954000D02*
X150850000Y-58954000D01*
X153670000Y-56134000D02*
X153670000Y-58674000D01*
X161290000Y-58674000D02*
X161290000Y-56134000D01*
X150850000Y-55854000D02*
X152400000Y-55854000D01*
X153670000Y-56134000D02*
X161290000Y-56134000D01*
X153670000Y-58674000D02*
X161290000Y-58674000D01*
X164872000Y-106706000D02*
X161772000Y-106706000D01*
X164872000Y-105156000D02*
X164872000Y-106706000D01*
X162052000Y-103886000D02*
X164592000Y-103886000D01*
X164592000Y-96266000D02*
X162052000Y-96266000D01*
X161772000Y-106706000D02*
X161772000Y-105156000D01*
X162052000Y-103886000D02*
X162052000Y-96266000D01*
X164592000Y-103886000D02*
X164592000Y-96266000D01*
X93498000Y-114834000D02*
X90398000Y-114834000D01*
X93498000Y-113284000D02*
X93498000Y-114834000D01*
X90678000Y-112014000D02*
X93218000Y-112014000D01*
X90398000Y-114834000D02*
X90398000Y-113284000D01*
X90678000Y-106934000D02*
X90678000Y-112014000D01*
X93218000Y-106934000D02*
X90678000Y-106934000D01*
X93218000Y-112014000D02*
X93218000Y-106934000D01*
X93498000Y-116814000D02*
X93498000Y-119914000D01*
X91948000Y-116814000D02*
X93498000Y-116814000D01*
X90678000Y-119634000D02*
X90678000Y-117094000D01*
X93498000Y-119914000D02*
X91948000Y-119914000D01*
X85598000Y-119634000D02*
X90678000Y-119634000D01*
X85598000Y-117094000D02*
X85598000Y-119634000D01*
X90678000Y-117094000D02*
X85598000Y-117094000D01*
X85318000Y-106654000D02*
X88418000Y-106654000D01*
X85318000Y-108204000D02*
X85318000Y-106654000D01*
X88138000Y-109474000D02*
X85598000Y-109474000D01*
X88418000Y-106654000D02*
X88418000Y-108204000D01*
X88138000Y-114554000D02*
X88138000Y-109474000D01*
X85598000Y-114554000D02*
X88138000Y-114554000D01*
X85598000Y-109474000D02*
X85598000Y-114554000D01*
X131826000Y-54610000D02*
X129286000Y-54610000D01*
X131826000Y-57150000D02*
X131826000Y-54610000D01*
X132106000Y-59970000D02*
X129006000Y-59970000D01*
X132106000Y-58420000D02*
X132106000Y-59970000D01*
X129286000Y-57150000D02*
X131826000Y-57150000D01*
X129006000Y-59970000D02*
X129006000Y-58420000D01*
X129286000Y-57150000D02*
X129286000Y-54610000D01*
X159284000Y-81306000D02*
X156184000Y-81306000D01*
X159284000Y-79756000D02*
X159284000Y-81306000D01*
X156464000Y-78486000D02*
X159004000Y-78486000D01*
X156184000Y-81306000D02*
X156184000Y-79756000D01*
X156464000Y-73406000D02*
X156464000Y-78486000D01*
X159004000Y-73406000D02*
X156464000Y-73406000D01*
X159004000Y-78486000D02*
X159004000Y-73406000D01*
X152628000Y-73126000D02*
X155728000Y-73126000D01*
X152628000Y-74676000D02*
X152628000Y-73126000D01*
X155448000Y-75946000D02*
X152908000Y-75946000D01*
X155728000Y-73126000D02*
X155728000Y-74676000D01*
X155448000Y-81026000D02*
X155448000Y-75946000D01*
X152908000Y-81026000D02*
X155448000Y-81026000D01*
X152908000Y-75946000D02*
X152908000Y-81026000D01*
X151130000Y-100838000D02*
X153670000Y-100838000D01*
X153670000Y-90678000D02*
X153670000Y-100838000D01*
X151130000Y-90678000D02*
X153670000Y-90678000D01*
X151130000Y-100838000D02*
X151130000Y-90678000D01*
X150850000Y-103658000D02*
X150850000Y-102108000D01*
X153950000Y-103658000D02*
X150850000Y-103658000D01*
X153950000Y-102108000D02*
X153950000Y-103658000D01*
X94514000Y-96419000D02*
X91414000Y-96419000D01*
X94514000Y-94869000D02*
X94514000Y-96419000D01*
X91694000Y-93599000D02*
X94234000Y-93599000D01*
X91414000Y-96419000D02*
X91414000Y-94869000D01*
X94234000Y-75819000D02*
X94234000Y-93599000D01*
X91694000Y-75819000D02*
X94234000Y-75819000D01*
X91694000Y-93599000D02*
X91694000Y-75819000D01*
X139166000Y-70459000D02*
X142266000Y-70459000D01*
X139166000Y-72009000D02*
X139166000Y-70459000D01*
X141986000Y-73279000D02*
X139446000Y-73279000D01*
X142266000Y-70459000D02*
X142266000Y-72009000D01*
X139446000Y-88519000D02*
X139446000Y-73279000D01*
X141986000Y-88519000D02*
X139446000Y-88519000D01*
X141986000Y-73279000D02*
X141986000Y-88519000D01*
X143790000Y-127534000D02*
X140690000Y-127534000D01*
X143790000Y-125984000D02*
X143790000Y-127534000D01*
X140970000Y-124714000D02*
X143510000Y-124714000D01*
X140690000Y-127534000D02*
X140690000Y-125984000D01*
X143510000Y-106934000D02*
X143510000Y-124714000D01*
X140970000Y-106934000D02*
X143510000Y-106934000D01*
X140970000Y-124714000D02*
X140970000Y-106934000D01*
X89662000Y-59817000D02*
X92202000Y-59817000D01*
X89662000Y-57277000D02*
X89662000Y-59817000D01*
X89382000Y-54457000D02*
X92482000Y-54457000D01*
X89382000Y-56007000D02*
X89382000Y-54457000D01*
X92202000Y-57277000D02*
X89662000Y-57277000D01*
X92482000Y-54457000D02*
X92482000Y-56007000D01*
X92202000Y-57277000D02*
X92202000Y-59817000D01*
X115420140Y-63508000D02*
X115920140Y-64008000D01*
X115420140Y-64508000D02*
X115420140Y-63508000D01*
X115920140Y-64008000D02*
X115420140Y-64508000D01*
X115420140Y-64008000D02*
X114920140Y-64008000D01*
X115920140Y-64508000D02*
X115920140Y-63508000D01*
X115620140Y-63958000D02*
X115670140Y-64008000D01*
X115620140Y-64208000D02*
X115620140Y-63958000D01*
X115820140Y-64008000D02*
X115620140Y-64208000D01*
X115520140Y-63708000D02*
X115820140Y-64008000D01*
X115520140Y-64308000D02*
X115520140Y-63708000D01*
X117570140Y-65058000D02*
X113970140Y-65058000D01*
X117570140Y-62958000D02*
X113970140Y-62958000D01*
X115570000Y-121920000D02*
X113030000Y-121920000D01*
X113030000Y-121920000D02*
X113030000Y-124460000D01*
X112750000Y-127280000D02*
X114300000Y-127280000D01*
X120650000Y-121920000D02*
X115570000Y-121920000D01*
X120650000Y-127000000D02*
X120650000Y-121920000D01*
X115570000Y-124460000D02*
X115570000Y-127000000D01*
X113030000Y-124460000D02*
X115570000Y-124460000D01*
X112750000Y-127280000D02*
X112750000Y-125730000D01*
X115570000Y-127000000D02*
X120650000Y-127000000D01*
X115570000Y-129032000D02*
X109347000Y-129032000D01*
X109347000Y-129032000D02*
X109347000Y-119888000D01*
X109347000Y-119888000D02*
X124333000Y-119888000D01*
X124333000Y-119888000D02*
X124333000Y-129032000D01*
X124333000Y-129032000D02*
X118110000Y-129032000D01*
X166132000Y-86877000D02*
X168132000Y-86877000D01*
X168132000Y-84827000D02*
X166132000Y-84827000D01*
X90923000Y-122952000D02*
X90923000Y-124952000D01*
X92973000Y-124952000D02*
X92973000Y-122952000D01*
X85843000Y-122952000D02*
X85843000Y-124952000D01*
X87893000Y-124952000D02*
X87893000Y-122952000D01*
X145297000Y-104124000D02*
X145297000Y-102124000D01*
X143247000Y-102124000D02*
X143247000Y-104124000D01*
X125727500Y-57257000D02*
G75*
G03X125727500Y-57257000I-2537500J0D01*
G01*
X124090000Y-58507000D02*
G75*
G03X124090000Y-58507000I-900000J0D01*
G01*
X123662000Y-59712000D02*
X122718000Y-59712000D01*
X124134000Y-59572000D02*
X122246000Y-59572000D01*
X124423000Y-59432000D02*
X121957000Y-59432000D01*
X122750000Y-59292000D02*
X121738000Y-59292000D01*
X124642000Y-59292000D02*
X123630000Y-59292000D01*
X122562000Y-59152000D02*
X121559000Y-59152000D01*
X124821000Y-59152000D02*
X123818000Y-59152000D01*
X122445000Y-59012000D02*
X121410000Y-59012000D01*
X124970000Y-59012000D02*
X123935000Y-59012000D01*
X122367000Y-58872000D02*
X121282000Y-58872000D01*
X125098000Y-58872000D02*
X124013000Y-58872000D01*
X122319000Y-58732000D02*
X121171000Y-58732000D01*
X125209000Y-58732000D02*
X124061000Y-58732000D01*
X122294000Y-58592000D02*
X121076000Y-58592000D01*
X125304000Y-58592000D02*
X124086000Y-58592000D01*
X122292000Y-58452000D02*
X120994000Y-58452000D01*
X125386000Y-58452000D02*
X124088000Y-58452000D01*
X122311000Y-58312000D02*
X120924000Y-58312000D01*
X125456000Y-58312000D02*
X124069000Y-58312000D01*
X122355000Y-58172000D02*
X120863000Y-58172000D01*
X125517000Y-58172000D02*
X124025000Y-58172000D01*
X122426000Y-58032000D02*
X120813000Y-58032000D01*
X125567000Y-58032000D02*
X123954000Y-58032000D01*
X122533000Y-57892000D02*
X120772000Y-57892000D01*
X125608000Y-57892000D02*
X123847000Y-57892000D01*
X122700000Y-57752000D02*
X120739000Y-57752000D01*
X125641000Y-57752000D02*
X123680000Y-57752000D01*
X123095000Y-57612000D02*
X120715000Y-57612000D01*
X125665000Y-57612000D02*
X123285000Y-57612000D01*
X125681000Y-57472000D02*
X120699000Y-57472000D01*
X125689000Y-57332000D02*
X120691000Y-57332000D01*
X116837500Y-57257000D02*
G75*
G03X116837500Y-57257000I-2537500J0D01*
G01*
X115200000Y-58507000D02*
G75*
G03X115200000Y-58507000I-900000J0D01*
G01*
X114772000Y-59712000D02*
X113828000Y-59712000D01*
X115244000Y-59572000D02*
X113356000Y-59572000D01*
X115533000Y-59432000D02*
X113067000Y-59432000D01*
X113860000Y-59292000D02*
X112848000Y-59292000D01*
X115752000Y-59292000D02*
X114740000Y-59292000D01*
X113672000Y-59152000D02*
X112669000Y-59152000D01*
X115931000Y-59152000D02*
X114928000Y-59152000D01*
X113555000Y-59012000D02*
X112520000Y-59012000D01*
X116080000Y-59012000D02*
X115045000Y-59012000D01*
X113477000Y-58872000D02*
X112392000Y-58872000D01*
X116208000Y-58872000D02*
X115123000Y-58872000D01*
X113429000Y-58732000D02*
X112281000Y-58732000D01*
X116319000Y-58732000D02*
X115171000Y-58732000D01*
X113404000Y-58592000D02*
X112186000Y-58592000D01*
X116414000Y-58592000D02*
X115196000Y-58592000D01*
X113402000Y-58452000D02*
X112104000Y-58452000D01*
X116496000Y-58452000D02*
X115198000Y-58452000D01*
X113421000Y-58312000D02*
X112034000Y-58312000D01*
X116566000Y-58312000D02*
X115179000Y-58312000D01*
X113465000Y-58172000D02*
X111973000Y-58172000D01*
X116627000Y-58172000D02*
X115135000Y-58172000D01*
X113536000Y-58032000D02*
X111923000Y-58032000D01*
X116677000Y-58032000D02*
X115064000Y-58032000D01*
X113643000Y-57892000D02*
X111882000Y-57892000D01*
X116718000Y-57892000D02*
X114957000Y-57892000D01*
X113810000Y-57752000D02*
X111849000Y-57752000D01*
X116751000Y-57752000D02*
X114790000Y-57752000D01*
X114205000Y-57612000D02*
X111825000Y-57612000D01*
X116775000Y-57612000D02*
X114395000Y-57612000D01*
X116791000Y-57472000D02*
X111809000Y-57472000D01*
X116799000Y-57332000D02*
X111801000Y-57332000D01*
X96511000Y-93996000D02*
X96511000Y-95996000D01*
X98561000Y-95996000D02*
X98561000Y-93996000D01*
X163166571Y-72118857D02*
X163166571Y-70918857D01*
X163680857Y-71033142D02*
X163738000Y-70976000D01*
X163852285Y-70918857D01*
X164138000Y-70918857D01*
X164252285Y-70976000D01*
X164309428Y-71033142D01*
X164366571Y-71147428D01*
X164366571Y-71261714D01*
X164309428Y-71433142D01*
X163623714Y-72118857D01*
X164366571Y-72118857D01*
X165566571Y-72004571D02*
X165509428Y-72061714D01*
X165338000Y-72118857D01*
X165223714Y-72118857D01*
X165052285Y-72061714D01*
X164938000Y-71947428D01*
X164880857Y-71833142D01*
X164823714Y-71604571D01*
X164823714Y-71433142D01*
X164880857Y-71204571D01*
X164938000Y-71090285D01*
X165052285Y-70976000D01*
X165223714Y-70918857D01*
X165338000Y-70918857D01*
X165509428Y-70976000D01*
X165566571Y-71033142D01*
X76462000Y-112275428D02*
X76414380Y-112370666D01*
X76414380Y-112513523D01*
X76462000Y-112656380D01*
X76557238Y-112751619D01*
X76652476Y-112799238D01*
X76842952Y-112846857D01*
X76985809Y-112846857D01*
X77176285Y-112799238D01*
X77271523Y-112751619D01*
X77366761Y-112656380D01*
X77414380Y-112513523D01*
X77414380Y-112418285D01*
X77366761Y-112275428D01*
X77319142Y-112227809D01*
X76985809Y-112227809D01*
X76985809Y-112418285D01*
X77414380Y-111799238D02*
X76414380Y-111799238D01*
X77414380Y-111227809D01*
X76414380Y-111227809D01*
X77414380Y-110751619D02*
X76414380Y-110751619D01*
X76414380Y-110513523D01*
X76462000Y-110370666D01*
X76557238Y-110275428D01*
X76652476Y-110227809D01*
X76842952Y-110180190D01*
X76985809Y-110180190D01*
X77176285Y-110227809D01*
X77271523Y-110275428D01*
X77366761Y-110370666D01*
X77414380Y-110513523D01*
X77414380Y-110751619D01*
X76747714Y-109132571D02*
X76747714Y-108751619D01*
X76414380Y-108989714D02*
X77271523Y-108989714D01*
X77366761Y-108942095D01*
X77414380Y-108846857D01*
X77414380Y-108751619D01*
X77366761Y-108037333D02*
X77414380Y-108132571D01*
X77414380Y-108323047D01*
X77366761Y-108418285D01*
X77271523Y-108465904D01*
X76890571Y-108465904D01*
X76795333Y-108418285D01*
X76747714Y-108323047D01*
X76747714Y-108132571D01*
X76795333Y-108037333D01*
X76890571Y-107989714D01*
X76985809Y-107989714D01*
X77081047Y-108465904D01*
X77366761Y-107608761D02*
X77414380Y-107513523D01*
X77414380Y-107323047D01*
X77366761Y-107227809D01*
X77271523Y-107180190D01*
X77223904Y-107180190D01*
X77128666Y-107227809D01*
X77081047Y-107323047D01*
X77081047Y-107465904D01*
X77033428Y-107561142D01*
X76938190Y-107608761D01*
X76890571Y-107608761D01*
X76795333Y-107561142D01*
X76747714Y-107465904D01*
X76747714Y-107323047D01*
X76795333Y-107227809D01*
X76747714Y-106894476D02*
X76747714Y-106513523D01*
X76414380Y-106751619D02*
X77271523Y-106751619D01*
X77366761Y-106704000D01*
X77414380Y-106608761D01*
X77414380Y-106513523D01*
X76747714Y-105418285D02*
X77747714Y-105418285D01*
X76795333Y-105418285D02*
X76747714Y-105323047D01*
X76747714Y-105132571D01*
X76795333Y-105037333D01*
X76842952Y-104989714D01*
X76938190Y-104942095D01*
X77223904Y-104942095D01*
X77319142Y-104989714D01*
X77366761Y-105037333D01*
X77414380Y-105132571D01*
X77414380Y-105323047D01*
X77366761Y-105418285D01*
X76747714Y-104656380D02*
X76747714Y-104275428D01*
X76414380Y-104513523D02*
X77271523Y-104513523D01*
X77366761Y-104465904D01*
X77414380Y-104370666D01*
X77414380Y-104275428D01*
X77366761Y-103989714D02*
X77414380Y-103894476D01*
X77414380Y-103704000D01*
X77366761Y-103608761D01*
X77271523Y-103561142D01*
X77223904Y-103561142D01*
X77128666Y-103608761D01*
X77081047Y-103704000D01*
X77081047Y-103846857D01*
X77033428Y-103942095D01*
X76938190Y-103989714D01*
X76890571Y-103989714D01*
X76795333Y-103942095D01*
X76747714Y-103846857D01*
X76747714Y-103704000D01*
X76795333Y-103608761D01*
X77629238Y-72032761D02*
X77772095Y-72080380D01*
X78010190Y-72080380D01*
X78105428Y-72032761D01*
X78153047Y-71985142D01*
X78200666Y-71889904D01*
X78200666Y-71794666D01*
X78153047Y-71699428D01*
X78105428Y-71651809D01*
X78010190Y-71604190D01*
X77819714Y-71556571D01*
X77724476Y-71508952D01*
X77676857Y-71461333D01*
X77629238Y-71366095D01*
X77629238Y-71270857D01*
X77676857Y-71175619D01*
X77724476Y-71128000D01*
X77819714Y-71080380D01*
X78057809Y-71080380D01*
X78200666Y-71128000D01*
X79010190Y-72032761D02*
X78914952Y-72080380D01*
X78724476Y-72080380D01*
X78629238Y-72032761D01*
X78581619Y-71937523D01*
X78581619Y-71556571D01*
X78629238Y-71461333D01*
X78724476Y-71413714D01*
X78914952Y-71413714D01*
X79010190Y-71461333D01*
X79057809Y-71556571D01*
X79057809Y-71651809D01*
X78581619Y-71747047D01*
X79486380Y-72080380D02*
X79486380Y-71413714D01*
X79486380Y-71604190D02*
X79534000Y-71508952D01*
X79581619Y-71461333D01*
X79676857Y-71413714D01*
X79772095Y-71413714D01*
X80105428Y-72080380D02*
X80105428Y-71413714D01*
X80105428Y-71080380D02*
X80057809Y-71128000D01*
X80105428Y-71175619D01*
X80153047Y-71128000D01*
X80105428Y-71080380D01*
X80105428Y-71175619D01*
X81010190Y-72080380D02*
X81010190Y-71556571D01*
X80962571Y-71461333D01*
X80867333Y-71413714D01*
X80676857Y-71413714D01*
X80581619Y-71461333D01*
X81010190Y-72032761D02*
X80914952Y-72080380D01*
X80676857Y-72080380D01*
X80581619Y-72032761D01*
X80534000Y-71937523D01*
X80534000Y-71842285D01*
X80581619Y-71747047D01*
X80676857Y-71699428D01*
X80914952Y-71699428D01*
X81010190Y-71651809D01*
X81629238Y-72080380D02*
X81534000Y-72032761D01*
X81486380Y-71937523D01*
X81486380Y-71080380D01*
X81772095Y-72175619D02*
X82534000Y-72175619D01*
X82772095Y-72080380D02*
X82772095Y-71080380D01*
X83153047Y-71080380D01*
X83248285Y-71128000D01*
X83295904Y-71175619D01*
X83343523Y-71270857D01*
X83343523Y-71413714D01*
X83295904Y-71508952D01*
X83248285Y-71556571D01*
X83153047Y-71604190D01*
X82772095Y-71604190D01*
X83914952Y-72080380D02*
X83819714Y-72032761D01*
X83772095Y-71985142D01*
X83724476Y-71889904D01*
X83724476Y-71604190D01*
X83772095Y-71508952D01*
X83819714Y-71461333D01*
X83914952Y-71413714D01*
X84057809Y-71413714D01*
X84153047Y-71461333D01*
X84200666Y-71508952D01*
X84248285Y-71604190D01*
X84248285Y-71889904D01*
X84200666Y-71985142D01*
X84153047Y-72032761D01*
X84057809Y-72080380D01*
X83914952Y-72080380D01*
X84676857Y-72080380D02*
X84676857Y-71413714D01*
X84676857Y-71604190D02*
X84724476Y-71508952D01*
X84772095Y-71461333D01*
X84867333Y-71413714D01*
X84962571Y-71413714D01*
X85153047Y-71413714D02*
X85534000Y-71413714D01*
X85295904Y-71080380D02*
X85295904Y-71937523D01*
X85343523Y-72032761D01*
X85438761Y-72080380D01*
X85534000Y-72080380D01*
X157059333Y-86209142D02*
X157011714Y-86256761D01*
X156868857Y-86304380D01*
X156773619Y-86304380D01*
X156630761Y-86256761D01*
X156535523Y-86161523D01*
X156487904Y-86066285D01*
X156440285Y-85875809D01*
X156440285Y-85732952D01*
X156487904Y-85542476D01*
X156535523Y-85447238D01*
X156630761Y-85352000D01*
X156773619Y-85304380D01*
X156868857Y-85304380D01*
X157011714Y-85352000D01*
X157059333Y-85399619D01*
X157535523Y-86304380D02*
X157726000Y-86304380D01*
X157821238Y-86256761D01*
X157868857Y-86209142D01*
X157964095Y-86066285D01*
X158011714Y-85875809D01*
X158011714Y-85494857D01*
X157964095Y-85399619D01*
X157916476Y-85352000D01*
X157821238Y-85304380D01*
X157630761Y-85304380D01*
X157535523Y-85352000D01*
X157487904Y-85399619D01*
X157440285Y-85494857D01*
X157440285Y-85732952D01*
X157487904Y-85828190D01*
X157535523Y-85875809D01*
X157630761Y-85923428D01*
X157821238Y-85923428D01*
X157916476Y-85875809D01*
X157964095Y-85828190D01*
X158011714Y-85732952D01*
X160369333Y-88590380D02*
X159797904Y-88590380D01*
X160083619Y-88590380D02*
X160083619Y-87590380D01*
X159988380Y-87733238D01*
X159893142Y-87828476D01*
X159797904Y-87876095D01*
X160797904Y-87923714D02*
X160797904Y-88923714D01*
X161274095Y-88447523D02*
X161321714Y-88542761D01*
X161416952Y-88590380D01*
X160797904Y-88447523D02*
X160845523Y-88542761D01*
X160940761Y-88590380D01*
X161131238Y-88590380D01*
X161226476Y-88542761D01*
X161274095Y-88447523D01*
X161274095Y-87923714D01*
X162178857Y-88066571D02*
X161845523Y-88066571D01*
X161845523Y-88590380D02*
X161845523Y-87590380D01*
X162321714Y-87590380D01*
X105751333Y-119991142D02*
X105703714Y-120038761D01*
X105560857Y-120086380D01*
X105465619Y-120086380D01*
X105322761Y-120038761D01*
X105227523Y-119943523D01*
X105179904Y-119848285D01*
X105132285Y-119657809D01*
X105132285Y-119514952D01*
X105179904Y-119324476D01*
X105227523Y-119229238D01*
X105322761Y-119134000D01*
X105465619Y-119086380D01*
X105560857Y-119086380D01*
X105703714Y-119134000D01*
X105751333Y-119181619D01*
X106322761Y-119514952D02*
X106227523Y-119467333D01*
X106179904Y-119419714D01*
X106132285Y-119324476D01*
X106132285Y-119276857D01*
X106179904Y-119181619D01*
X106227523Y-119134000D01*
X106322761Y-119086380D01*
X106513238Y-119086380D01*
X106608476Y-119134000D01*
X106656095Y-119181619D01*
X106703714Y-119276857D01*
X106703714Y-119324476D01*
X106656095Y-119419714D01*
X106608476Y-119467333D01*
X106513238Y-119514952D01*
X106322761Y-119514952D01*
X106227523Y-119562571D01*
X106179904Y-119610190D01*
X106132285Y-119705428D01*
X106132285Y-119895904D01*
X106179904Y-119991142D01*
X106227523Y-120038761D01*
X106322761Y-120086380D01*
X106513238Y-120086380D01*
X106608476Y-120038761D01*
X106656095Y-119991142D01*
X106703714Y-119895904D01*
X106703714Y-119705428D01*
X106656095Y-119610190D01*
X106608476Y-119562571D01*
X106513238Y-119514952D01*
X105251333Y-118054380D02*
X104679904Y-118054380D01*
X104965619Y-118054380D02*
X104965619Y-117054380D01*
X104870380Y-117197238D01*
X104775142Y-117292476D01*
X104679904Y-117340095D01*
X105679904Y-117387714D02*
X105679904Y-118387714D01*
X106156095Y-117911523D02*
X106203714Y-118006761D01*
X106298952Y-118054380D01*
X105679904Y-117911523D02*
X105727523Y-118006761D01*
X105822761Y-118054380D01*
X106013238Y-118054380D01*
X106108476Y-118006761D01*
X106156095Y-117911523D01*
X106156095Y-117387714D01*
X107060857Y-117530571D02*
X106727523Y-117530571D01*
X106727523Y-118054380D02*
X106727523Y-117054380D01*
X107203714Y-117054380D01*
X110132761Y-58737333D02*
X110180380Y-58594476D01*
X110180380Y-58356380D01*
X110132761Y-58261142D01*
X110085142Y-58213523D01*
X109989904Y-58165904D01*
X109894666Y-58165904D01*
X109799428Y-58213523D01*
X109751809Y-58261142D01*
X109704190Y-58356380D01*
X109656571Y-58546857D01*
X109608952Y-58642095D01*
X109561333Y-58689714D01*
X109466095Y-58737333D01*
X109370857Y-58737333D01*
X109275619Y-58689714D01*
X109228000Y-58642095D01*
X109180380Y-58546857D01*
X109180380Y-58308761D01*
X109228000Y-58165904D01*
X109180380Y-57832571D02*
X110180380Y-57594476D01*
X109466095Y-57404000D01*
X110180380Y-57213523D01*
X109180380Y-56975428D01*
X110180380Y-56070666D02*
X110180380Y-56642095D01*
X110180380Y-56356380D02*
X109180380Y-56356380D01*
X109323238Y-56451619D01*
X109418476Y-56546857D01*
X109466095Y-56642095D01*
X116713095Y-91705380D02*
X116713095Y-92514904D01*
X116760714Y-92610142D01*
X116808333Y-92657761D01*
X116903571Y-92705380D01*
X117094047Y-92705380D01*
X117189285Y-92657761D01*
X117236904Y-92610142D01*
X117284523Y-92514904D01*
X117284523Y-91705380D01*
X118284523Y-92705380D02*
X117713095Y-92705380D01*
X117998809Y-92705380D02*
X117998809Y-91705380D01*
X117903571Y-91848238D01*
X117808333Y-91943476D01*
X117713095Y-91991095D01*
X111840000Y-83529666D02*
X112316190Y-83529666D01*
X111744761Y-83815380D02*
X112078095Y-82815380D01*
X112411428Y-83815380D01*
X112601904Y-82815380D02*
X113173333Y-82815380D01*
X112887619Y-83815380D02*
X112887619Y-82815380D01*
X113506666Y-83815380D02*
X113506666Y-82815380D01*
X113840000Y-83529666D01*
X114173333Y-82815380D01*
X114173333Y-83815380D01*
X114649523Y-83291571D02*
X114982857Y-83291571D01*
X115125714Y-83815380D02*
X114649523Y-83815380D01*
X114649523Y-82815380D01*
X115125714Y-82815380D01*
X116078095Y-82863000D02*
X115982857Y-82815380D01*
X115840000Y-82815380D01*
X115697142Y-82863000D01*
X115601904Y-82958238D01*
X115554285Y-83053476D01*
X115506666Y-83243952D01*
X115506666Y-83386809D01*
X115554285Y-83577285D01*
X115601904Y-83672523D01*
X115697142Y-83767761D01*
X115840000Y-83815380D01*
X115935238Y-83815380D01*
X116078095Y-83767761D01*
X116125714Y-83720142D01*
X116125714Y-83386809D01*
X115935238Y-83386809D01*
X116506666Y-83529666D02*
X116982857Y-83529666D01*
X116411428Y-83815380D02*
X116744761Y-82815380D01*
X117078095Y-83815380D01*
X117316190Y-82815380D02*
X117935238Y-82815380D01*
X117601904Y-83196333D01*
X117744761Y-83196333D01*
X117840000Y-83243952D01*
X117887619Y-83291571D01*
X117935238Y-83386809D01*
X117935238Y-83624904D01*
X117887619Y-83720142D01*
X117840000Y-83767761D01*
X117744761Y-83815380D01*
X117459047Y-83815380D01*
X117363809Y-83767761D01*
X117316190Y-83720142D01*
X118316190Y-82910619D02*
X118363809Y-82863000D01*
X118459047Y-82815380D01*
X118697142Y-82815380D01*
X118792380Y-82863000D01*
X118840000Y-82910619D01*
X118887619Y-83005857D01*
X118887619Y-83101095D01*
X118840000Y-83243952D01*
X118268571Y-83815380D01*
X118887619Y-83815380D01*
X119459047Y-83243952D02*
X119363809Y-83196333D01*
X119316190Y-83148714D01*
X119268571Y-83053476D01*
X119268571Y-83005857D01*
X119316190Y-82910619D01*
X119363809Y-82863000D01*
X119459047Y-82815380D01*
X119649523Y-82815380D01*
X119744761Y-82863000D01*
X119792380Y-82910619D01*
X119840000Y-83005857D01*
X119840000Y-83053476D01*
X119792380Y-83148714D01*
X119744761Y-83196333D01*
X119649523Y-83243952D01*
X119459047Y-83243952D01*
X119363809Y-83291571D01*
X119316190Y-83339190D01*
X119268571Y-83434428D01*
X119268571Y-83624904D01*
X119316190Y-83720142D01*
X119363809Y-83767761D01*
X119459047Y-83815380D01*
X119649523Y-83815380D01*
X119744761Y-83767761D01*
X119792380Y-83720142D01*
X119840000Y-83624904D01*
X119840000Y-83434428D01*
X119792380Y-83339190D01*
X119744761Y-83291571D01*
X119649523Y-83243952D01*
X120268571Y-83815380D02*
X120268571Y-82815380D01*
X120649523Y-82815380D01*
X120744761Y-82863000D01*
X120792380Y-82910619D01*
X120840000Y-83005857D01*
X120840000Y-83148714D01*
X120792380Y-83243952D01*
X120744761Y-83291571D01*
X120649523Y-83339190D01*
X120268571Y-83339190D01*
X121601904Y-83291571D02*
X121744761Y-83339190D01*
X121792380Y-83386809D01*
X121840000Y-83482047D01*
X121840000Y-83624904D01*
X121792380Y-83720142D01*
X121744761Y-83767761D01*
X121649523Y-83815380D01*
X121268571Y-83815380D01*
X121268571Y-82815380D01*
X121601904Y-82815380D01*
X121697142Y-82863000D01*
X121744761Y-82910619D01*
X121792380Y-83005857D01*
X121792380Y-83101095D01*
X121744761Y-83196333D01*
X121697142Y-83243952D01*
X121601904Y-83291571D01*
X121268571Y-83291571D01*
X112070238Y-110485380D02*
X111594047Y-110485380D01*
X111594047Y-109485380D01*
X112832142Y-110485380D02*
X112832142Y-109961571D01*
X112784523Y-109866333D01*
X112689285Y-109818714D01*
X112498809Y-109818714D01*
X112403571Y-109866333D01*
X112832142Y-110437761D02*
X112736904Y-110485380D01*
X112498809Y-110485380D01*
X112403571Y-110437761D01*
X112355952Y-110342523D01*
X112355952Y-110247285D01*
X112403571Y-110152047D01*
X112498809Y-110104428D01*
X112736904Y-110104428D01*
X112832142Y-110056809D01*
X113165476Y-109818714D02*
X113546428Y-109818714D01*
X113308333Y-109485380D02*
X113308333Y-110342523D01*
X113355952Y-110437761D01*
X113451190Y-110485380D01*
X113546428Y-110485380D01*
X114308333Y-110437761D02*
X114213095Y-110485380D01*
X114022619Y-110485380D01*
X113927380Y-110437761D01*
X113879761Y-110390142D01*
X113832142Y-110294904D01*
X113832142Y-110009190D01*
X113879761Y-109913952D01*
X113927380Y-109866333D01*
X114022619Y-109818714D01*
X114213095Y-109818714D01*
X114308333Y-109866333D01*
X114736904Y-110485380D02*
X114736904Y-109485380D01*
X115165476Y-110485380D02*
X115165476Y-109961571D01*
X115117857Y-109866333D01*
X115022619Y-109818714D01*
X114879761Y-109818714D01*
X114784523Y-109866333D01*
X114736904Y-109913952D01*
X116832142Y-110485380D02*
X116832142Y-109961571D01*
X116784523Y-109866333D01*
X116689285Y-109818714D01*
X116498809Y-109818714D01*
X116403571Y-109866333D01*
X116832142Y-110437761D02*
X116736904Y-110485380D01*
X116498809Y-110485380D01*
X116403571Y-110437761D01*
X116355952Y-110342523D01*
X116355952Y-110247285D01*
X116403571Y-110152047D01*
X116498809Y-110104428D01*
X116736904Y-110104428D01*
X116832142Y-110056809D01*
X117165476Y-109818714D02*
X117546428Y-109818714D01*
X117308333Y-109485380D02*
X117308333Y-110342523D01*
X117355952Y-110437761D01*
X117451190Y-110485380D01*
X117546428Y-110485380D01*
X118641666Y-110485380D02*
X118641666Y-109485380D01*
X118641666Y-109866333D02*
X118736904Y-109818714D01*
X118927380Y-109818714D01*
X119022619Y-109866333D01*
X119070238Y-109913952D01*
X119117857Y-110009190D01*
X119117857Y-110294904D01*
X119070238Y-110390142D01*
X119022619Y-110437761D01*
X118927380Y-110485380D01*
X118736904Y-110485380D01*
X118641666Y-110437761D01*
X119689285Y-110485380D02*
X119594047Y-110437761D01*
X119546428Y-110390142D01*
X119498809Y-110294904D01*
X119498809Y-110009190D01*
X119546428Y-109913952D01*
X119594047Y-109866333D01*
X119689285Y-109818714D01*
X119832142Y-109818714D01*
X119927380Y-109866333D01*
X119975000Y-109913952D01*
X120022619Y-110009190D01*
X120022619Y-110294904D01*
X119975000Y-110390142D01*
X119927380Y-110437761D01*
X119832142Y-110485380D01*
X119689285Y-110485380D01*
X120308333Y-109818714D02*
X120689285Y-109818714D01*
X120451190Y-109485380D02*
X120451190Y-110342523D01*
X120498809Y-110437761D01*
X120594047Y-110485380D01*
X120689285Y-110485380D01*
X120879761Y-109818714D02*
X121260714Y-109818714D01*
X121022619Y-109485380D02*
X121022619Y-110342523D01*
X121070238Y-110437761D01*
X121165476Y-110485380D01*
X121260714Y-110485380D01*
X121736904Y-110485380D02*
X121641666Y-110437761D01*
X121594047Y-110390142D01*
X121546428Y-110294904D01*
X121546428Y-110009190D01*
X121594047Y-109913952D01*
X121641666Y-109866333D01*
X121736904Y-109818714D01*
X121879761Y-109818714D01*
X121975000Y-109866333D01*
X122022619Y-109913952D01*
X122070238Y-110009190D01*
X122070238Y-110294904D01*
X122022619Y-110390142D01*
X121975000Y-110437761D01*
X121879761Y-110485380D01*
X121736904Y-110485380D01*
X122498809Y-110485380D02*
X122498809Y-109818714D01*
X122498809Y-109913952D02*
X122546428Y-109866333D01*
X122641666Y-109818714D01*
X122784523Y-109818714D01*
X122879761Y-109866333D01*
X122927380Y-109961571D01*
X122927380Y-110485380D01*
X122927380Y-109961571D02*
X122975000Y-109866333D01*
X123070238Y-109818714D01*
X123213095Y-109818714D01*
X123308333Y-109866333D01*
X123355952Y-109961571D01*
X123355952Y-110485380D01*
X91301666Y-72889761D02*
X91444523Y-72937380D01*
X91682619Y-72937380D01*
X91777857Y-72889761D01*
X91825476Y-72842142D01*
X91873095Y-72746904D01*
X91873095Y-72651666D01*
X91825476Y-72556428D01*
X91777857Y-72508809D01*
X91682619Y-72461190D01*
X91492142Y-72413571D01*
X91396904Y-72365952D01*
X91349285Y-72318333D01*
X91301666Y-72223095D01*
X91301666Y-72127857D01*
X91349285Y-72032619D01*
X91396904Y-71985000D01*
X91492142Y-71937380D01*
X91730238Y-71937380D01*
X91873095Y-71985000D01*
X92206428Y-71937380D02*
X92444523Y-72937380D01*
X92635000Y-72223095D01*
X92825476Y-72937380D01*
X93063571Y-71937380D01*
X93396904Y-72032619D02*
X93444523Y-71985000D01*
X93539761Y-71937380D01*
X93777857Y-71937380D01*
X93873095Y-71985000D01*
X93920714Y-72032619D01*
X93968333Y-72127857D01*
X93968333Y-72223095D01*
X93920714Y-72365952D01*
X93349285Y-72937380D01*
X93968333Y-72937380D01*
X90448095Y-62585000D02*
X91448095Y-62585000D01*
X91257619Y-63952380D02*
X90924285Y-63476190D01*
X90686190Y-63952380D02*
X90686190Y-62952380D01*
X91067142Y-62952380D01*
X91162380Y-63000000D01*
X91210000Y-63047619D01*
X91257619Y-63142857D01*
X91257619Y-63285714D01*
X91210000Y-63380952D01*
X91162380Y-63428571D01*
X91067142Y-63476190D01*
X90686190Y-63476190D01*
X91448095Y-62585000D02*
X92352857Y-62585000D01*
X91686190Y-63428571D02*
X92019523Y-63428571D01*
X92162380Y-63952380D02*
X91686190Y-63952380D01*
X91686190Y-62952380D01*
X92162380Y-62952380D01*
X92352857Y-62585000D02*
X93305238Y-62585000D01*
X92543333Y-63904761D02*
X92686190Y-63952380D01*
X92924285Y-63952380D01*
X93019523Y-63904761D01*
X93067142Y-63857142D01*
X93114761Y-63761904D01*
X93114761Y-63666666D01*
X93067142Y-63571428D01*
X93019523Y-63523809D01*
X92924285Y-63476190D01*
X92733809Y-63428571D01*
X92638571Y-63380952D01*
X92590952Y-63333333D01*
X92543333Y-63238095D01*
X92543333Y-63142857D01*
X92590952Y-63047619D01*
X92638571Y-63000000D01*
X92733809Y-62952380D01*
X92971904Y-62952380D01*
X93114761Y-63000000D01*
X93305238Y-62585000D02*
X94210000Y-62585000D01*
X93543333Y-63428571D02*
X93876666Y-63428571D01*
X94019523Y-63952380D02*
X93543333Y-63952380D01*
X93543333Y-62952380D01*
X94019523Y-62952380D01*
X94210000Y-62585000D02*
X94971904Y-62585000D01*
X94305238Y-62952380D02*
X94876666Y-62952380D01*
X94590952Y-63952380D02*
X94590952Y-62952380D01*
X122769333Y-61920380D02*
X122436000Y-61444190D01*
X122197904Y-61920380D02*
X122197904Y-60920380D01*
X122578857Y-60920380D01*
X122674095Y-60968000D01*
X122721714Y-61015619D01*
X122769333Y-61110857D01*
X122769333Y-61253714D01*
X122721714Y-61348952D01*
X122674095Y-61396571D01*
X122578857Y-61444190D01*
X122197904Y-61444190D01*
X123626476Y-61253714D02*
X123626476Y-61920380D01*
X123388380Y-60872761D02*
X123150285Y-61587047D01*
X123769333Y-61587047D01*
X121650285Y-66000380D02*
X122269333Y-66000380D01*
X121936000Y-66381333D01*
X122078857Y-66381333D01*
X122174095Y-66428952D01*
X122221714Y-66476571D01*
X122269333Y-66571809D01*
X122269333Y-66809904D01*
X122221714Y-66905142D01*
X122174095Y-66952761D01*
X122078857Y-67000380D01*
X121793142Y-67000380D01*
X121697904Y-66952761D01*
X121650285Y-66905142D01*
X122602666Y-66000380D02*
X123221714Y-66000380D01*
X122888380Y-66381333D01*
X123031238Y-66381333D01*
X123126476Y-66428952D01*
X123174095Y-66476571D01*
X123221714Y-66571809D01*
X123221714Y-66809904D01*
X123174095Y-66905142D01*
X123126476Y-66952761D01*
X123031238Y-67000380D01*
X122745523Y-67000380D01*
X122650285Y-66952761D01*
X122602666Y-66905142D01*
X123840761Y-66000380D02*
X123936000Y-66000380D01*
X124031238Y-66048000D01*
X124078857Y-66095619D01*
X124126476Y-66190857D01*
X124174095Y-66381333D01*
X124174095Y-66619428D01*
X124126476Y-66809904D01*
X124078857Y-66905142D01*
X124031238Y-66952761D01*
X123936000Y-67000380D01*
X123840761Y-67000380D01*
X123745523Y-66952761D01*
X123697904Y-66905142D01*
X123650285Y-66809904D01*
X123602666Y-66619428D01*
X123602666Y-66381333D01*
X123650285Y-66190857D01*
X123697904Y-66095619D01*
X123745523Y-66048000D01*
X123840761Y-66000380D01*
X103336380Y-67730666D02*
X102860190Y-68064000D01*
X103336380Y-68302095D02*
X102336380Y-68302095D01*
X102336380Y-67921142D01*
X102384000Y-67825904D01*
X102431619Y-67778285D01*
X102526857Y-67730666D01*
X102669714Y-67730666D01*
X102764952Y-67778285D01*
X102812571Y-67825904D01*
X102860190Y-67921142D01*
X102860190Y-68302095D01*
X102336380Y-67397333D02*
X102336380Y-66778285D01*
X102717333Y-67111619D01*
X102717333Y-66968761D01*
X102764952Y-66873523D01*
X102812571Y-66825904D01*
X102907809Y-66778285D01*
X103145904Y-66778285D01*
X103241142Y-66825904D01*
X103288761Y-66873523D01*
X103336380Y-66968761D01*
X103336380Y-67254476D01*
X103288761Y-67349714D01*
X103241142Y-67397333D01*
X98736380Y-68254476D02*
X98736380Y-68825904D01*
X98736380Y-68540190D02*
X97736380Y-68540190D01*
X97879238Y-68635428D01*
X97974476Y-68730666D01*
X98022095Y-68825904D01*
X97736380Y-67635428D02*
X97736380Y-67540190D01*
X97784000Y-67444952D01*
X97831619Y-67397333D01*
X97926857Y-67349714D01*
X98117333Y-67302095D01*
X98355428Y-67302095D01*
X98545904Y-67349714D01*
X98641142Y-67397333D01*
X98688761Y-67444952D01*
X98736380Y-67540190D01*
X98736380Y-67635428D01*
X98688761Y-67730666D01*
X98641142Y-67778285D01*
X98545904Y-67825904D01*
X98355428Y-67873523D01*
X98117333Y-67873523D01*
X97926857Y-67825904D01*
X97831619Y-67778285D01*
X97784000Y-67730666D01*
X97736380Y-67635428D01*
X98736380Y-66873523D02*
X97736380Y-66873523D01*
X98736380Y-66302095D02*
X98164952Y-66730666D01*
X97736380Y-66302095D02*
X98307809Y-66873523D01*
X160486380Y-68492666D02*
X160010190Y-68826000D01*
X160486380Y-69064095D02*
X159486380Y-69064095D01*
X159486380Y-68683142D01*
X159534000Y-68587904D01*
X159581619Y-68540285D01*
X159676857Y-68492666D01*
X159819714Y-68492666D01*
X159914952Y-68540285D01*
X159962571Y-68587904D01*
X160010190Y-68683142D01*
X160010190Y-69064095D01*
X159581619Y-68111714D02*
X159534000Y-68064095D01*
X159486380Y-67968857D01*
X159486380Y-67730761D01*
X159534000Y-67635523D01*
X159581619Y-67587904D01*
X159676857Y-67540285D01*
X159772095Y-67540285D01*
X159914952Y-67587904D01*
X160486380Y-68159333D01*
X160486380Y-67540285D01*
X157043523Y-65476380D02*
X156472095Y-65476380D01*
X156757809Y-65476380D02*
X156757809Y-64476380D01*
X156662571Y-64619238D01*
X156567333Y-64714476D01*
X156472095Y-64762095D01*
X157662571Y-64476380D02*
X157757809Y-64476380D01*
X157853047Y-64524000D01*
X157900666Y-64571619D01*
X157948285Y-64666857D01*
X157995904Y-64857333D01*
X157995904Y-65095428D01*
X157948285Y-65285904D01*
X157900666Y-65381142D01*
X157853047Y-65428761D01*
X157757809Y-65476380D01*
X157662571Y-65476380D01*
X157567333Y-65428761D01*
X157519714Y-65381142D01*
X157472095Y-65285904D01*
X157424476Y-65095428D01*
X157424476Y-64857333D01*
X157472095Y-64666857D01*
X157519714Y-64571619D01*
X157567333Y-64524000D01*
X157662571Y-64476380D01*
X158424476Y-65476380D02*
X158424476Y-64476380D01*
X158995904Y-65476380D02*
X158567333Y-64904952D01*
X158995904Y-64476380D02*
X158424476Y-65047809D01*
X152344380Y-68492666D02*
X151868190Y-68826000D01*
X152344380Y-69064095D02*
X151344380Y-69064095D01*
X151344380Y-68683142D01*
X151392000Y-68587904D01*
X151439619Y-68540285D01*
X151534857Y-68492666D01*
X151677714Y-68492666D01*
X151772952Y-68540285D01*
X151820571Y-68587904D01*
X151868190Y-68683142D01*
X151868190Y-69064095D01*
X152344380Y-67540285D02*
X152344380Y-68111714D01*
X152344380Y-67826000D02*
X151344380Y-67826000D01*
X151487238Y-67921238D01*
X151582476Y-68016476D01*
X151630095Y-68111714D01*
X153487523Y-65476380D02*
X152916095Y-65476380D01*
X153201809Y-65476380D02*
X153201809Y-64476380D01*
X153106571Y-64619238D01*
X153011333Y-64714476D01*
X152916095Y-64762095D01*
X154106571Y-64476380D02*
X154201809Y-64476380D01*
X154297047Y-64524000D01*
X154344666Y-64571619D01*
X154392285Y-64666857D01*
X154439904Y-64857333D01*
X154439904Y-65095428D01*
X154392285Y-65285904D01*
X154344666Y-65381142D01*
X154297047Y-65428761D01*
X154201809Y-65476380D01*
X154106571Y-65476380D01*
X154011333Y-65428761D01*
X153963714Y-65381142D01*
X153916095Y-65285904D01*
X153868476Y-65095428D01*
X153868476Y-64857333D01*
X153916095Y-64666857D01*
X153963714Y-64571619D01*
X154011333Y-64524000D01*
X154106571Y-64476380D01*
X154868476Y-65476380D02*
X154868476Y-64476380D01*
X155439904Y-65476380D02*
X155011333Y-64904952D01*
X155439904Y-64476380D02*
X154868476Y-65047809D01*
X138017333Y-95520380D02*
X137541142Y-95520380D01*
X137541142Y-94520380D01*
X138874476Y-95520380D02*
X138303047Y-95520380D01*
X138588761Y-95520380D02*
X138588761Y-94520380D01*
X138493523Y-94663238D01*
X138398285Y-94758476D01*
X138303047Y-94806095D01*
X137445904Y-104520380D02*
X136874476Y-104520380D01*
X137160190Y-104520380D02*
X137160190Y-103520380D01*
X137064952Y-103663238D01*
X136969714Y-103758476D01*
X136874476Y-103806095D01*
X138064952Y-103520380D02*
X138160190Y-103520380D01*
X138255428Y-103568000D01*
X138303047Y-103615619D01*
X138350666Y-103710857D01*
X138398285Y-103901333D01*
X138398285Y-104139428D01*
X138350666Y-104329904D01*
X138303047Y-104425142D01*
X138255428Y-104472761D01*
X138160190Y-104520380D01*
X138064952Y-104520380D01*
X137969714Y-104472761D01*
X137922095Y-104425142D01*
X137874476Y-104329904D01*
X137826857Y-104139428D01*
X137826857Y-103901333D01*
X137874476Y-103710857D01*
X137922095Y-103615619D01*
X137969714Y-103568000D01*
X138064952Y-103520380D01*
X138826857Y-103853714D02*
X138826857Y-104853714D01*
X139303047Y-104377523D02*
X139350666Y-104472761D01*
X139445904Y-104520380D01*
X138826857Y-104377523D02*
X138874476Y-104472761D01*
X138969714Y-104520380D01*
X139160190Y-104520380D01*
X139255428Y-104472761D01*
X139303047Y-104377523D01*
X139303047Y-103853714D01*
X139874476Y-104520380D02*
X139874476Y-103520380D01*
X139874476Y-103996571D02*
X140445904Y-103996571D01*
X140445904Y-104520380D02*
X140445904Y-103520380D01*
X151884571Y-59952000D02*
X151789333Y-59904380D01*
X151646476Y-59904380D01*
X151503619Y-59952000D01*
X151408380Y-60047238D01*
X151360761Y-60142476D01*
X151313142Y-60332952D01*
X151313142Y-60475809D01*
X151360761Y-60666285D01*
X151408380Y-60761523D01*
X151503619Y-60856761D01*
X151646476Y-60904380D01*
X151741714Y-60904380D01*
X151884571Y-60856761D01*
X151932190Y-60809142D01*
X151932190Y-60475809D01*
X151741714Y-60475809D01*
X152360761Y-60904380D02*
X152360761Y-59904380D01*
X152932190Y-60904380D01*
X152932190Y-59904380D01*
X153408380Y-60904380D02*
X153408380Y-59904380D01*
X153646476Y-59904380D01*
X153789333Y-59952000D01*
X153884571Y-60047238D01*
X153932190Y-60142476D01*
X153979809Y-60332952D01*
X153979809Y-60475809D01*
X153932190Y-60666285D01*
X153884571Y-60761523D01*
X153789333Y-60856761D01*
X153646476Y-60904380D01*
X153408380Y-60904380D01*
X155027428Y-60237714D02*
X155408380Y-60237714D01*
X155170285Y-59904380D02*
X155170285Y-60761523D01*
X155217904Y-60856761D01*
X155313142Y-60904380D01*
X155408380Y-60904380D01*
X156122666Y-60856761D02*
X156027428Y-60904380D01*
X155836952Y-60904380D01*
X155741714Y-60856761D01*
X155694095Y-60761523D01*
X155694095Y-60380571D01*
X155741714Y-60285333D01*
X155836952Y-60237714D01*
X156027428Y-60237714D01*
X156122666Y-60285333D01*
X156170285Y-60380571D01*
X156170285Y-60475809D01*
X155694095Y-60571047D01*
X156551238Y-60856761D02*
X156646476Y-60904380D01*
X156836952Y-60904380D01*
X156932190Y-60856761D01*
X156979809Y-60761523D01*
X156979809Y-60713904D01*
X156932190Y-60618666D01*
X156836952Y-60571047D01*
X156694095Y-60571047D01*
X156598857Y-60523428D01*
X156551238Y-60428190D01*
X156551238Y-60380571D01*
X156598857Y-60285333D01*
X156694095Y-60237714D01*
X156836952Y-60237714D01*
X156932190Y-60285333D01*
X157265523Y-60237714D02*
X157646476Y-60237714D01*
X157408380Y-59904380D02*
X157408380Y-60761523D01*
X157456000Y-60856761D01*
X157551238Y-60904380D01*
X157646476Y-60904380D01*
X158741714Y-60237714D02*
X158741714Y-61237714D01*
X158741714Y-60285333D02*
X158836952Y-60237714D01*
X159027428Y-60237714D01*
X159122666Y-60285333D01*
X159170285Y-60332952D01*
X159217904Y-60428190D01*
X159217904Y-60713904D01*
X159170285Y-60809142D01*
X159122666Y-60856761D01*
X159027428Y-60904380D01*
X158836952Y-60904380D01*
X158741714Y-60856761D01*
X159503619Y-60237714D02*
X159884571Y-60237714D01*
X159646476Y-59904380D02*
X159646476Y-60761523D01*
X159694095Y-60856761D01*
X159789333Y-60904380D01*
X159884571Y-60904380D01*
X160170285Y-60856761D02*
X160265523Y-60904380D01*
X160456000Y-60904380D01*
X160551238Y-60856761D01*
X160598857Y-60761523D01*
X160598857Y-60713904D01*
X160551238Y-60618666D01*
X160456000Y-60571047D01*
X160313142Y-60571047D01*
X160217904Y-60523428D01*
X160170285Y-60428190D01*
X160170285Y-60380571D01*
X160217904Y-60285333D01*
X160313142Y-60237714D01*
X160456000Y-60237714D01*
X160551238Y-60285333D01*
X165870000Y-105163428D02*
X165822380Y-105258666D01*
X165822380Y-105401523D01*
X165870000Y-105544380D01*
X165965238Y-105639619D01*
X166060476Y-105687238D01*
X166250952Y-105734857D01*
X166393809Y-105734857D01*
X166584285Y-105687238D01*
X166679523Y-105639619D01*
X166774761Y-105544380D01*
X166822380Y-105401523D01*
X166822380Y-105306285D01*
X166774761Y-105163428D01*
X166727142Y-105115809D01*
X166393809Y-105115809D01*
X166393809Y-105306285D01*
X166822380Y-104687238D02*
X165822380Y-104687238D01*
X166822380Y-104115809D01*
X165822380Y-104115809D01*
X166822380Y-103639619D02*
X165822380Y-103639619D01*
X165822380Y-103401523D01*
X165870000Y-103258666D01*
X165965238Y-103163428D01*
X166060476Y-103115809D01*
X166250952Y-103068190D01*
X166393809Y-103068190D01*
X166584285Y-103115809D01*
X166679523Y-103163428D01*
X166774761Y-103258666D01*
X166822380Y-103401523D01*
X166822380Y-103639619D01*
X166155714Y-102020571D02*
X166155714Y-101639619D01*
X165822380Y-101877714D02*
X166679523Y-101877714D01*
X166774761Y-101830095D01*
X166822380Y-101734857D01*
X166822380Y-101639619D01*
X166774761Y-100925333D02*
X166822380Y-101020571D01*
X166822380Y-101211047D01*
X166774761Y-101306285D01*
X166679523Y-101353904D01*
X166298571Y-101353904D01*
X166203333Y-101306285D01*
X166155714Y-101211047D01*
X166155714Y-101020571D01*
X166203333Y-100925333D01*
X166298571Y-100877714D01*
X166393809Y-100877714D01*
X166489047Y-101353904D01*
X166774761Y-100496761D02*
X166822380Y-100401523D01*
X166822380Y-100211047D01*
X166774761Y-100115809D01*
X166679523Y-100068190D01*
X166631904Y-100068190D01*
X166536666Y-100115809D01*
X166489047Y-100211047D01*
X166489047Y-100353904D01*
X166441428Y-100449142D01*
X166346190Y-100496761D01*
X166298571Y-100496761D01*
X166203333Y-100449142D01*
X166155714Y-100353904D01*
X166155714Y-100211047D01*
X166203333Y-100115809D01*
X166155714Y-99782476D02*
X166155714Y-99401523D01*
X165822380Y-99639619D02*
X166679523Y-99639619D01*
X166774761Y-99592000D01*
X166822380Y-99496761D01*
X166822380Y-99401523D01*
X166155714Y-98306285D02*
X167155714Y-98306285D01*
X166203333Y-98306285D02*
X166155714Y-98211047D01*
X166155714Y-98020571D01*
X166203333Y-97925333D01*
X166250952Y-97877714D01*
X166346190Y-97830095D01*
X166631904Y-97830095D01*
X166727142Y-97877714D01*
X166774761Y-97925333D01*
X166822380Y-98020571D01*
X166822380Y-98211047D01*
X166774761Y-98306285D01*
X166155714Y-97544380D02*
X166155714Y-97163428D01*
X165822380Y-97401523D02*
X166679523Y-97401523D01*
X166774761Y-97353904D01*
X166822380Y-97258666D01*
X166822380Y-97163428D01*
X166774761Y-96877714D02*
X166822380Y-96782476D01*
X166822380Y-96592000D01*
X166774761Y-96496761D01*
X166679523Y-96449142D01*
X166631904Y-96449142D01*
X166536666Y-96496761D01*
X166489047Y-96592000D01*
X166489047Y-96734857D01*
X166441428Y-96830095D01*
X166346190Y-96877714D01*
X166298571Y-96877714D01*
X166203333Y-96830095D01*
X166155714Y-96734857D01*
X166155714Y-96592000D01*
X166203333Y-96496761D01*
X91138476Y-117836380D02*
X91138476Y-118550666D01*
X91090857Y-118693523D01*
X90995619Y-118788761D01*
X90852761Y-118836380D01*
X90757523Y-118836380D01*
X92138476Y-118836380D02*
X91567047Y-118836380D01*
X91852761Y-118836380D02*
X91852761Y-117836380D01*
X91757523Y-117979238D01*
X91662285Y-118074476D01*
X91567047Y-118122095D01*
X92995619Y-118169714D02*
X92995619Y-118836380D01*
X92757523Y-117788761D02*
X92519428Y-118503047D01*
X93138476Y-118503047D01*
X83018380Y-119657619D02*
X84018380Y-118990952D01*
X83018380Y-118990952D02*
X84018380Y-119657619D01*
X83018380Y-118752857D02*
X83018380Y-118181428D01*
X84018380Y-118467142D02*
X83018380Y-118467142D01*
X83732666Y-117895714D02*
X83732666Y-117419523D01*
X84018380Y-117990952D02*
X83018380Y-117657619D01*
X84018380Y-117324285D01*
X84018380Y-116514761D02*
X84018380Y-116990952D01*
X83018380Y-116990952D01*
X86535047Y-104862380D02*
X87201714Y-105862380D01*
X87201714Y-104862380D02*
X86535047Y-105862380D01*
X87439809Y-104862380D02*
X88011238Y-104862380D01*
X87725523Y-105862380D02*
X87725523Y-104862380D01*
X88296952Y-105576666D02*
X88773142Y-105576666D01*
X88201714Y-105862380D02*
X88535047Y-104862380D01*
X88868380Y-105862380D01*
X89677904Y-105862380D02*
X89201714Y-105862380D01*
X89201714Y-104862380D01*
X89773142Y-105957619D02*
X90535047Y-105957619D01*
X91058857Y-104862380D02*
X91058857Y-105576666D01*
X91011238Y-105719523D01*
X90916000Y-105814761D01*
X90773142Y-105862380D01*
X90677904Y-105862380D01*
X91535047Y-105862380D02*
X91535047Y-104862380D01*
X91868380Y-105576666D01*
X92201714Y-104862380D01*
X92201714Y-105862380D01*
X92677904Y-105862380D02*
X92677904Y-104862380D01*
X93058857Y-104862380D01*
X93154095Y-104910000D01*
X93201714Y-104957619D01*
X93249333Y-105052857D01*
X93249333Y-105195714D01*
X93201714Y-105290952D01*
X93154095Y-105338571D01*
X93058857Y-105386190D01*
X92677904Y-105386190D01*
X127393142Y-61972380D02*
X127393142Y-60972380D01*
X127774095Y-60972380D01*
X127869333Y-61020000D01*
X127916952Y-61067619D01*
X127964571Y-61162857D01*
X127964571Y-61305714D01*
X127916952Y-61400952D01*
X127869333Y-61448571D01*
X127774095Y-61496190D01*
X127393142Y-61496190D01*
X128297904Y-60972380D02*
X128536000Y-61972380D01*
X128726476Y-61258095D01*
X128916952Y-61972380D01*
X129155047Y-60972380D01*
X130107428Y-61972380D02*
X129774095Y-61496190D01*
X129536000Y-61972380D02*
X129536000Y-60972380D01*
X129916952Y-60972380D01*
X130012190Y-61020000D01*
X130059809Y-61067619D01*
X130107428Y-61162857D01*
X130107428Y-61305714D01*
X130059809Y-61400952D01*
X130012190Y-61448571D01*
X129916952Y-61496190D01*
X129536000Y-61496190D01*
X130297904Y-62067619D02*
X131059809Y-62067619D01*
X131488380Y-60972380D02*
X131678857Y-60972380D01*
X131774095Y-61020000D01*
X131869333Y-61115238D01*
X131916952Y-61305714D01*
X131916952Y-61639047D01*
X131869333Y-61829523D01*
X131774095Y-61924761D01*
X131678857Y-61972380D01*
X131488380Y-61972380D01*
X131393142Y-61924761D01*
X131297904Y-61829523D01*
X131250285Y-61639047D01*
X131250285Y-61305714D01*
X131297904Y-61115238D01*
X131393142Y-61020000D01*
X131488380Y-60972380D01*
X132345523Y-60972380D02*
X132345523Y-61781904D01*
X132393142Y-61877142D01*
X132440761Y-61924761D01*
X132536000Y-61972380D01*
X132726476Y-61972380D01*
X132821714Y-61924761D01*
X132869333Y-61877142D01*
X132916952Y-61781904D01*
X132916952Y-60972380D01*
X133250285Y-60972380D02*
X133821714Y-60972380D01*
X133536000Y-61972380D02*
X133536000Y-60972380D01*
X153829047Y-83256380D02*
X153829047Y-82256380D01*
X154257619Y-82351619D02*
X154305238Y-82304000D01*
X154400476Y-82256380D01*
X154638571Y-82256380D01*
X154733809Y-82304000D01*
X154781428Y-82351619D01*
X154829047Y-82446857D01*
X154829047Y-82542095D01*
X154781428Y-82684952D01*
X154210000Y-83256380D01*
X154829047Y-83256380D01*
X155829047Y-83161142D02*
X155781428Y-83208761D01*
X155638571Y-83256380D01*
X155543333Y-83256380D01*
X155400476Y-83208761D01*
X155305238Y-83113523D01*
X155257619Y-83018285D01*
X155210000Y-82827809D01*
X155210000Y-82684952D01*
X155257619Y-82494476D01*
X155305238Y-82399238D01*
X155400476Y-82304000D01*
X155543333Y-82256380D01*
X155638571Y-82256380D01*
X155781428Y-82304000D01*
X155829047Y-82351619D01*
X156019523Y-83351619D02*
X156781428Y-83351619D01*
X157019523Y-83256380D02*
X157019523Y-82256380D01*
X157400476Y-82256380D01*
X157495714Y-82304000D01*
X157543333Y-82351619D01*
X157590952Y-82446857D01*
X157590952Y-82589714D01*
X157543333Y-82684952D01*
X157495714Y-82732571D01*
X157400476Y-82780190D01*
X157019523Y-82780190D01*
X158019523Y-82256380D02*
X158019523Y-83065904D01*
X158067142Y-83161142D01*
X158114761Y-83208761D01*
X158210000Y-83256380D01*
X158400476Y-83256380D01*
X158495714Y-83208761D01*
X158543333Y-83161142D01*
X158590952Y-83065904D01*
X158590952Y-82256380D01*
D12*
X149748761Y-100758000D02*
X147748761Y-100758000D01*
X147748761Y-99996095D01*
X147844000Y-99805619D01*
X147939238Y-99710380D01*
X148129714Y-99615142D01*
X148415428Y-99615142D01*
X148605904Y-99710380D01*
X148701142Y-99805619D01*
X148796380Y-99996095D01*
X148796380Y-100758000D01*
X147748761Y-98377047D02*
X147748761Y-97996095D01*
X147844000Y-97805619D01*
X148034476Y-97615142D01*
X148415428Y-97519904D01*
X149082095Y-97519904D01*
X149463047Y-97615142D01*
X149653523Y-97805619D01*
X149748761Y-97996095D01*
X149748761Y-98377047D01*
X149653523Y-98567523D01*
X149463047Y-98758000D01*
X149082095Y-98853238D01*
X148415428Y-98853238D01*
X148034476Y-98758000D01*
X147844000Y-98567523D01*
X147748761Y-98377047D01*
X149748761Y-95519904D02*
X148796380Y-96186571D01*
X149748761Y-96662761D02*
X147748761Y-96662761D01*
X147748761Y-95900857D01*
X147844000Y-95710380D01*
X147939238Y-95615142D01*
X148129714Y-95519904D01*
X148415428Y-95519904D01*
X148605904Y-95615142D01*
X148701142Y-95710380D01*
X148796380Y-95900857D01*
X148796380Y-96662761D01*
X147748761Y-94948476D02*
X147748761Y-93805619D01*
X149748761Y-94377047D02*
X147748761Y-94377047D01*
X148701142Y-91615142D02*
X148701142Y-90948476D01*
X149748761Y-90662761D02*
X149748761Y-91615142D01*
X147748761Y-91615142D01*
X147748761Y-90662761D01*
X97932761Y-88153238D02*
X95932761Y-88153238D01*
X95932761Y-87391333D01*
X96028000Y-87200857D01*
X96123238Y-87105619D01*
X96313714Y-87010380D01*
X96599428Y-87010380D01*
X96789904Y-87105619D01*
X96885142Y-87200857D01*
X96980380Y-87391333D01*
X96980380Y-88153238D01*
X95932761Y-85772285D02*
X95932761Y-85391333D01*
X96028000Y-85200857D01*
X96218476Y-85010380D01*
X96599428Y-84915142D01*
X97266095Y-84915142D01*
X97647047Y-85010380D01*
X97837523Y-85200857D01*
X97932761Y-85391333D01*
X97932761Y-85772285D01*
X97837523Y-85962761D01*
X97647047Y-86153238D01*
X97266095Y-86248476D01*
X96599428Y-86248476D01*
X96218476Y-86153238D01*
X96028000Y-85962761D01*
X95932761Y-85772285D01*
X97932761Y-82915142D02*
X96980380Y-83581809D01*
X97932761Y-84058000D02*
X95932761Y-84058000D01*
X95932761Y-83296095D01*
X96028000Y-83105619D01*
X96123238Y-83010380D01*
X96313714Y-82915142D01*
X96599428Y-82915142D01*
X96789904Y-83010380D01*
X96885142Y-83105619D01*
X96980380Y-83296095D01*
X96980380Y-84058000D01*
X95932761Y-82343714D02*
X95932761Y-81200857D01*
X97932761Y-81772285D02*
X95932761Y-81772285D01*
X97932761Y-79010380D02*
X95932761Y-79010380D01*
X95932761Y-78534190D01*
X96028000Y-78248476D01*
X96218476Y-78058000D01*
X96408952Y-77962761D01*
X96789904Y-77867523D01*
X97075619Y-77867523D01*
X97456571Y-77962761D01*
X97647047Y-78058000D01*
X97837523Y-78248476D01*
X97932761Y-78534190D01*
X97932761Y-79010380D01*
X138064761Y-84343238D02*
X136064761Y-84343238D01*
X136064761Y-83581333D01*
X136160000Y-83390857D01*
X136255238Y-83295619D01*
X136445714Y-83200380D01*
X136731428Y-83200380D01*
X136921904Y-83295619D01*
X137017142Y-83390857D01*
X137112380Y-83581333D01*
X137112380Y-84343238D01*
X136064761Y-81962285D02*
X136064761Y-81581333D01*
X136160000Y-81390857D01*
X136350476Y-81200380D01*
X136731428Y-81105142D01*
X137398095Y-81105142D01*
X137779047Y-81200380D01*
X137969523Y-81390857D01*
X138064761Y-81581333D01*
X138064761Y-81962285D01*
X137969523Y-82152761D01*
X137779047Y-82343238D01*
X137398095Y-82438476D01*
X136731428Y-82438476D01*
X136350476Y-82343238D01*
X136160000Y-82152761D01*
X136064761Y-81962285D01*
X138064761Y-79105142D02*
X137112380Y-79771809D01*
X138064761Y-80248000D02*
X136064761Y-80248000D01*
X136064761Y-79486095D01*
X136160000Y-79295619D01*
X136255238Y-79200380D01*
X136445714Y-79105142D01*
X136731428Y-79105142D01*
X136921904Y-79200380D01*
X137017142Y-79295619D01*
X137112380Y-79486095D01*
X137112380Y-80248000D01*
X136064761Y-78533714D02*
X136064761Y-77390857D01*
X138064761Y-77962285D02*
X136064761Y-77962285D01*
X137874285Y-74057523D02*
X137969523Y-74152761D01*
X138064761Y-74438476D01*
X138064761Y-74628952D01*
X137969523Y-74914666D01*
X137779047Y-75105142D01*
X137588571Y-75200380D01*
X137207619Y-75295619D01*
X136921904Y-75295619D01*
X136540952Y-75200380D01*
X136350476Y-75105142D01*
X136160000Y-74914666D01*
X136064761Y-74628952D01*
X136064761Y-74438476D01*
X136160000Y-74152761D01*
X136255238Y-74057523D01*
X139588761Y-120919238D02*
X137588761Y-120919238D01*
X137588761Y-120157333D01*
X137684000Y-119966857D01*
X137779238Y-119871619D01*
X137969714Y-119776380D01*
X138255428Y-119776380D01*
X138445904Y-119871619D01*
X138541142Y-119966857D01*
X138636380Y-120157333D01*
X138636380Y-120919238D01*
X137588761Y-118538285D02*
X137588761Y-118157333D01*
X137684000Y-117966857D01*
X137874476Y-117776380D01*
X138255428Y-117681142D01*
X138922095Y-117681142D01*
X139303047Y-117776380D01*
X139493523Y-117966857D01*
X139588761Y-118157333D01*
X139588761Y-118538285D01*
X139493523Y-118728761D01*
X139303047Y-118919238D01*
X138922095Y-119014476D01*
X138255428Y-119014476D01*
X137874476Y-118919238D01*
X137684000Y-118728761D01*
X137588761Y-118538285D01*
X139588761Y-115681142D02*
X138636380Y-116347809D01*
X139588761Y-116824000D02*
X137588761Y-116824000D01*
X137588761Y-116062095D01*
X137684000Y-115871619D01*
X137779238Y-115776380D01*
X137969714Y-115681142D01*
X138255428Y-115681142D01*
X138445904Y-115776380D01*
X138541142Y-115871619D01*
X138636380Y-116062095D01*
X138636380Y-116824000D01*
X137588761Y-115109714D02*
X137588761Y-113966857D01*
X139588761Y-114538285D02*
X137588761Y-114538285D01*
X138541142Y-111109714D02*
X138636380Y-110824000D01*
X138731619Y-110728761D01*
X138922095Y-110633523D01*
X139207809Y-110633523D01*
X139398285Y-110728761D01*
X139493523Y-110824000D01*
X139588761Y-111014476D01*
X139588761Y-111776380D01*
X137588761Y-111776380D01*
X137588761Y-111109714D01*
X137684000Y-110919238D01*
X137779238Y-110824000D01*
X137969714Y-110728761D01*
X138160190Y-110728761D01*
X138350666Y-110824000D01*
X138445904Y-110919238D01*
X138541142Y-111109714D01*
X138541142Y-111776380D01*
D14*
X88455809Y-53359380D02*
X88455809Y-52359380D01*
X88836761Y-52359380D01*
X88932000Y-52407000D01*
X88979619Y-52454619D01*
X89027238Y-52549857D01*
X89027238Y-52692714D01*
X88979619Y-52787952D01*
X88932000Y-52835571D01*
X88836761Y-52883190D01*
X88455809Y-52883190D01*
X89360571Y-52359380D02*
X89598666Y-53359380D01*
X89789142Y-52645095D01*
X89979619Y-53359380D01*
X90217714Y-52359380D01*
X91170095Y-53359380D02*
X90836761Y-52883190D01*
X90598666Y-53359380D02*
X90598666Y-52359380D01*
X90979619Y-52359380D01*
X91074857Y-52407000D01*
X91122476Y-52454619D01*
X91170095Y-52549857D01*
X91170095Y-52692714D01*
X91122476Y-52787952D01*
X91074857Y-52835571D01*
X90979619Y-52883190D01*
X90598666Y-52883190D01*
X91360571Y-53454619D02*
X92122476Y-53454619D01*
X92360571Y-53359380D02*
X92360571Y-52359380D01*
X92836761Y-53359380D02*
X92836761Y-52359380D01*
X93408190Y-53359380D01*
X93408190Y-52359380D01*
X114682044Y-67000380D02*
X114682044Y-66000380D01*
X114920140Y-66000380D01*
X115062997Y-66048000D01*
X115158235Y-66143238D01*
X115205854Y-66238476D01*
X115253473Y-66428952D01*
X115253473Y-66571809D01*
X115205854Y-66762285D01*
X115158235Y-66857523D01*
X115062997Y-66952761D01*
X114920140Y-67000380D01*
X114682044Y-67000380D01*
X116205854Y-67000380D02*
X115634425Y-67000380D01*
X115920140Y-67000380D02*
X115920140Y-66000380D01*
X115824901Y-66143238D01*
X115729663Y-66238476D01*
X115634425Y-66286095D01*
X114086806Y-61920380D02*
X114086806Y-60920380D01*
X114467759Y-60920380D01*
X114562997Y-60968000D01*
X114610616Y-61015619D01*
X114658235Y-61110857D01*
X114658235Y-61253714D01*
X114610616Y-61348952D01*
X114562997Y-61396571D01*
X114467759Y-61444190D01*
X114086806Y-61444190D01*
X114991568Y-60920380D02*
X115229663Y-61920380D01*
X115420140Y-61206095D01*
X115610616Y-61920380D01*
X115848711Y-60920380D01*
X116801092Y-61920380D02*
X116467759Y-61444190D01*
X116229663Y-61920380D02*
X116229663Y-60920380D01*
X116610616Y-60920380D01*
X116705854Y-60968000D01*
X116753473Y-61015619D01*
X116801092Y-61110857D01*
X116801092Y-61253714D01*
X116753473Y-61348952D01*
X116705854Y-61396571D01*
X116610616Y-61444190D01*
X116229663Y-61444190D01*
X125642666Y-127206000D02*
X125642666Y-126729809D01*
X125928380Y-127301238D02*
X124928380Y-126967904D01*
X125928380Y-126634571D01*
X124928380Y-126444095D02*
X125928380Y-126110761D01*
X124928380Y-125777428D01*
X125928380Y-124872666D02*
X125452190Y-125206000D01*
X125928380Y-125444095D02*
X124928380Y-125444095D01*
X124928380Y-125063142D01*
X124976000Y-124967904D01*
X125023619Y-124920285D01*
X125118857Y-124872666D01*
X125261714Y-124872666D01*
X125356952Y-124920285D01*
X125404571Y-124967904D01*
X125452190Y-125063142D01*
X125452190Y-125444095D01*
X125547428Y-124444095D02*
X125547428Y-123682190D01*
X125928380Y-123206000D02*
X124928380Y-123206000D01*
X125880761Y-122777428D02*
X125928380Y-122634571D01*
X125928380Y-122396476D01*
X125880761Y-122301238D01*
X125833142Y-122253619D01*
X125737904Y-122206000D01*
X125642666Y-122206000D01*
X125547428Y-122253619D01*
X125499809Y-122301238D01*
X125452190Y-122396476D01*
X125404571Y-122586952D01*
X125356952Y-122682190D01*
X125309333Y-122729809D01*
X125214095Y-122777428D01*
X125118857Y-122777428D01*
X125023619Y-122729809D01*
X124976000Y-122682190D01*
X124928380Y-122586952D01*
X124928380Y-122348857D01*
X124976000Y-122206000D01*
X125928380Y-121777428D02*
X124928380Y-121777428D01*
X124928380Y-121396476D01*
X124976000Y-121301238D01*
X125023619Y-121253619D01*
X125118857Y-121206000D01*
X125261714Y-121206000D01*
X125356952Y-121253619D01*
X125404571Y-121301238D01*
X125452190Y-121396476D01*
X125452190Y-121777428D01*
D10*
X114752380Y-132635428D02*
X113752380Y-132635428D01*
X114466666Y-132302095D01*
X113752380Y-131968761D01*
X114752380Y-131968761D01*
X114752380Y-131492571D02*
X113752380Y-131492571D01*
X114704761Y-131064000D02*
X114752380Y-130921142D01*
X114752380Y-130683047D01*
X114704761Y-130587809D01*
X114657142Y-130540190D01*
X114561904Y-130492571D01*
X114466666Y-130492571D01*
X114371428Y-130540190D01*
X114323809Y-130587809D01*
X114276190Y-130683047D01*
X114228571Y-130873523D01*
X114180952Y-130968761D01*
X114133333Y-131016380D01*
X114038095Y-131064000D01*
X113942857Y-131064000D01*
X113847619Y-131016380D01*
X113800000Y-130968761D01*
X113752380Y-130873523D01*
X113752380Y-130635428D01*
X113800000Y-130492571D01*
X113752380Y-129873523D02*
X113752380Y-129683047D01*
X113800000Y-129587809D01*
X113895238Y-129492571D01*
X114085714Y-129444952D01*
X114419047Y-129444952D01*
X114609523Y-129492571D01*
X114704761Y-129587809D01*
X114752380Y-129683047D01*
X114752380Y-129873523D01*
X114704761Y-129968761D01*
X114609523Y-130064000D01*
X114419047Y-130111619D01*
X114085714Y-130111619D01*
X113895238Y-130064000D01*
X113800000Y-129968761D01*
X113752380Y-129873523D01*
X117244761Y-132095714D02*
X117292380Y-131952857D01*
X117292380Y-131714761D01*
X117244761Y-131619523D01*
X117197142Y-131571904D01*
X117101904Y-131524285D01*
X117006666Y-131524285D01*
X116911428Y-131571904D01*
X116863809Y-131619523D01*
X116816190Y-131714761D01*
X116768571Y-131905238D01*
X116720952Y-132000476D01*
X116673333Y-132048095D01*
X116578095Y-132095714D01*
X116482857Y-132095714D01*
X116387619Y-132048095D01*
X116340000Y-132000476D01*
X116292380Y-131905238D01*
X116292380Y-131667142D01*
X116340000Y-131524285D01*
X117197142Y-130524285D02*
X117244761Y-130571904D01*
X117292380Y-130714761D01*
X117292380Y-130810000D01*
X117244761Y-130952857D01*
X117149523Y-131048095D01*
X117054285Y-131095714D01*
X116863809Y-131143333D01*
X116720952Y-131143333D01*
X116530476Y-131095714D01*
X116435238Y-131048095D01*
X116340000Y-130952857D01*
X116292380Y-130810000D01*
X116292380Y-130714761D01*
X116340000Y-130571904D01*
X116387619Y-130524285D01*
X117292380Y-130095714D02*
X116292380Y-130095714D01*
X117292380Y-129524285D02*
X116720952Y-129952857D01*
X116292380Y-129524285D02*
X116863809Y-130095714D01*
X119832380Y-131357619D02*
X119356190Y-131690952D01*
X119832380Y-131929047D02*
X118832380Y-131929047D01*
X118832380Y-131548095D01*
X118880000Y-131452857D01*
X118927619Y-131405238D01*
X119022857Y-131357619D01*
X119165714Y-131357619D01*
X119260952Y-131405238D01*
X119308571Y-131452857D01*
X119356190Y-131548095D01*
X119356190Y-131929047D01*
X119784761Y-130976666D02*
X119832380Y-130833809D01*
X119832380Y-130595714D01*
X119784761Y-130500476D01*
X119737142Y-130452857D01*
X119641904Y-130405238D01*
X119546666Y-130405238D01*
X119451428Y-130452857D01*
X119403809Y-130500476D01*
X119356190Y-130595714D01*
X119308571Y-130786190D01*
X119260952Y-130881428D01*
X119213333Y-130929047D01*
X119118095Y-130976666D01*
X119022857Y-130976666D01*
X118927619Y-130929047D01*
X118880000Y-130881428D01*
X118832380Y-130786190D01*
X118832380Y-130548095D01*
X118880000Y-130405238D01*
X118832380Y-130119523D02*
X118832380Y-129548095D01*
X119832380Y-129833809D02*
X118832380Y-129833809D01*
X113752380Y-119570333D02*
X114752380Y-119237000D01*
X113752380Y-118903666D01*
X114657142Y-117998904D02*
X114704761Y-118046523D01*
X114752380Y-118189380D01*
X114752380Y-118284619D01*
X114704761Y-118427476D01*
X114609523Y-118522714D01*
X114514285Y-118570333D01*
X114323809Y-118617952D01*
X114180952Y-118617952D01*
X113990476Y-118570333D01*
X113895238Y-118522714D01*
X113800000Y-118427476D01*
X113752380Y-118284619D01*
X113752380Y-118189380D01*
X113800000Y-118046523D01*
X113847619Y-117998904D01*
X114657142Y-116998904D02*
X114704761Y-117046523D01*
X114752380Y-117189380D01*
X114752380Y-117284619D01*
X114704761Y-117427476D01*
X114609523Y-117522714D01*
X114514285Y-117570333D01*
X114323809Y-117617952D01*
X114180952Y-117617952D01*
X113990476Y-117570333D01*
X113895238Y-117522714D01*
X113800000Y-117427476D01*
X113752380Y-117284619D01*
X113752380Y-117189380D01*
X113800000Y-117046523D01*
X113847619Y-116998904D01*
X117292380Y-119427428D02*
X116292380Y-119427428D01*
X117006666Y-119094095D01*
X116292380Y-118760761D01*
X117292380Y-118760761D01*
X116292380Y-118094095D02*
X116292380Y-117903619D01*
X116340000Y-117808380D01*
X116435238Y-117713142D01*
X116625714Y-117665523D01*
X116959047Y-117665523D01*
X117149523Y-117713142D01*
X117244761Y-117808380D01*
X117292380Y-117903619D01*
X117292380Y-118094095D01*
X117244761Y-118189333D01*
X117149523Y-118284571D01*
X116959047Y-118332190D01*
X116625714Y-118332190D01*
X116435238Y-118284571D01*
X116340000Y-118189333D01*
X116292380Y-118094095D01*
X117244761Y-117284571D02*
X117292380Y-117141714D01*
X117292380Y-116903619D01*
X117244761Y-116808380D01*
X117197142Y-116760761D01*
X117101904Y-116713142D01*
X117006666Y-116713142D01*
X116911428Y-116760761D01*
X116863809Y-116808380D01*
X116816190Y-116903619D01*
X116768571Y-117094095D01*
X116720952Y-117189333D01*
X116673333Y-117236952D01*
X116578095Y-117284571D01*
X116482857Y-117284571D01*
X116387619Y-117236952D01*
X116340000Y-117189333D01*
X116292380Y-117094095D01*
X116292380Y-116856000D01*
X116340000Y-116713142D01*
X117292380Y-116284571D02*
X116292380Y-116284571D01*
X119134000Y-118871904D02*
X119086380Y-118967142D01*
X119086380Y-119110000D01*
X119134000Y-119252857D01*
X119229238Y-119348095D01*
X119324476Y-119395714D01*
X119514952Y-119443333D01*
X119657809Y-119443333D01*
X119848285Y-119395714D01*
X119943523Y-119348095D01*
X120038761Y-119252857D01*
X120086380Y-119110000D01*
X120086380Y-119014761D01*
X120038761Y-118871904D01*
X119991142Y-118824285D01*
X119657809Y-118824285D01*
X119657809Y-119014761D01*
X120086380Y-118395714D02*
X119086380Y-118395714D01*
X120086380Y-117824285D01*
X119086380Y-117824285D01*
X120086380Y-117348095D02*
X119086380Y-117348095D01*
X119086380Y-117110000D01*
X119134000Y-116967142D01*
X119229238Y-116871904D01*
X119324476Y-116824285D01*
X119514952Y-116776666D01*
X119657809Y-116776666D01*
X119848285Y-116824285D01*
X119943523Y-116871904D01*
X120038761Y-116967142D01*
X120086380Y-117110000D01*
X120086380Y-117348095D01*
D14*
X170775333Y-86209142D02*
X170727714Y-86256761D01*
X170584857Y-86304380D01*
X170489619Y-86304380D01*
X170346761Y-86256761D01*
X170251523Y-86161523D01*
X170203904Y-86066285D01*
X170156285Y-85875809D01*
X170156285Y-85732952D01*
X170203904Y-85542476D01*
X170251523Y-85447238D01*
X170346761Y-85352000D01*
X170489619Y-85304380D01*
X170584857Y-85304380D01*
X170727714Y-85352000D01*
X170775333Y-85399619D01*
X171108666Y-85304380D02*
X171775333Y-85304380D01*
X171346761Y-86304380D01*
X165417714Y-87604380D02*
X165512952Y-87604380D01*
X165608190Y-87652000D01*
X165655809Y-87699619D01*
X165703428Y-87794857D01*
X165751047Y-87985333D01*
X165751047Y-88223428D01*
X165703428Y-88413904D01*
X165655809Y-88509142D01*
X165608190Y-88556761D01*
X165512952Y-88604380D01*
X165417714Y-88604380D01*
X165322476Y-88556761D01*
X165274857Y-88509142D01*
X165227238Y-88413904D01*
X165179619Y-88223428D01*
X165179619Y-87985333D01*
X165227238Y-87794857D01*
X165274857Y-87699619D01*
X165322476Y-87652000D01*
X165417714Y-87604380D01*
X166179619Y-88509142D02*
X166227238Y-88556761D01*
X166179619Y-88604380D01*
X166132000Y-88556761D01*
X166179619Y-88509142D01*
X166179619Y-88604380D01*
X167179619Y-88604380D02*
X166608190Y-88604380D01*
X166893904Y-88604380D02*
X166893904Y-87604380D01*
X166798666Y-87747238D01*
X166703428Y-87842476D01*
X166608190Y-87890095D01*
X167608190Y-87937714D02*
X167608190Y-88937714D01*
X168084380Y-88461523D02*
X168132000Y-88556761D01*
X168227238Y-88604380D01*
X167608190Y-88461523D02*
X167655809Y-88556761D01*
X167751047Y-88604380D01*
X167941523Y-88604380D01*
X168036761Y-88556761D01*
X168084380Y-88461523D01*
X168084380Y-87937714D01*
X168989142Y-88080571D02*
X168655809Y-88080571D01*
X168655809Y-88604380D02*
X168655809Y-87604380D01*
X169132000Y-87604380D01*
X91781333Y-127865142D02*
X91733714Y-127912761D01*
X91590857Y-127960380D01*
X91495619Y-127960380D01*
X91352761Y-127912761D01*
X91257523Y-127817523D01*
X91209904Y-127722285D01*
X91162285Y-127531809D01*
X91162285Y-127388952D01*
X91209904Y-127198476D01*
X91257523Y-127103238D01*
X91352761Y-127008000D01*
X91495619Y-126960380D01*
X91590857Y-126960380D01*
X91733714Y-127008000D01*
X91781333Y-127055619D01*
X92638476Y-126960380D02*
X92448000Y-126960380D01*
X92352761Y-127008000D01*
X92305142Y-127055619D01*
X92209904Y-127198476D01*
X92162285Y-127388952D01*
X92162285Y-127769904D01*
X92209904Y-127865142D01*
X92257523Y-127912761D01*
X92352761Y-127960380D01*
X92543238Y-127960380D01*
X92638476Y-127912761D01*
X92686095Y-127865142D01*
X92733714Y-127769904D01*
X92733714Y-127531809D01*
X92686095Y-127436571D01*
X92638476Y-127388952D01*
X92543238Y-127341333D01*
X92352761Y-127341333D01*
X92257523Y-127388952D01*
X92209904Y-127436571D01*
X92162285Y-127531809D01*
X88955619Y-125594857D02*
X88908000Y-125547238D01*
X88860380Y-125452000D01*
X88860380Y-125213904D01*
X88908000Y-125118666D01*
X88955619Y-125071047D01*
X89050857Y-125023428D01*
X89146095Y-125023428D01*
X89288952Y-125071047D01*
X89860380Y-125642476D01*
X89860380Y-125023428D01*
X88955619Y-124642476D02*
X88908000Y-124594857D01*
X88860380Y-124499619D01*
X88860380Y-124261523D01*
X88908000Y-124166285D01*
X88955619Y-124118666D01*
X89050857Y-124071047D01*
X89146095Y-124071047D01*
X89288952Y-124118666D01*
X89860380Y-124690095D01*
X89860380Y-124071047D01*
X89193714Y-123642476D02*
X90193714Y-123642476D01*
X89241333Y-123642476D02*
X89193714Y-123547238D01*
X89193714Y-123356761D01*
X89241333Y-123261523D01*
X89288952Y-123213904D01*
X89384190Y-123166285D01*
X89669904Y-123166285D01*
X89765142Y-123213904D01*
X89812761Y-123261523D01*
X89860380Y-123356761D01*
X89860380Y-123547238D01*
X89812761Y-123642476D01*
X89336571Y-122404380D02*
X89336571Y-122737714D01*
X89860380Y-122737714D02*
X88860380Y-122737714D01*
X88860380Y-122261523D01*
X86701333Y-127865142D02*
X86653714Y-127912761D01*
X86510857Y-127960380D01*
X86415619Y-127960380D01*
X86272761Y-127912761D01*
X86177523Y-127817523D01*
X86129904Y-127722285D01*
X86082285Y-127531809D01*
X86082285Y-127388952D01*
X86129904Y-127198476D01*
X86177523Y-127103238D01*
X86272761Y-127008000D01*
X86415619Y-126960380D01*
X86510857Y-126960380D01*
X86653714Y-127008000D01*
X86701333Y-127055619D01*
X87606095Y-126960380D02*
X87129904Y-126960380D01*
X87082285Y-127436571D01*
X87129904Y-127388952D01*
X87225142Y-127341333D01*
X87463238Y-127341333D01*
X87558476Y-127388952D01*
X87606095Y-127436571D01*
X87653714Y-127531809D01*
X87653714Y-127769904D01*
X87606095Y-127865142D01*
X87558476Y-127912761D01*
X87463238Y-127960380D01*
X87225142Y-127960380D01*
X87129904Y-127912761D01*
X87082285Y-127865142D01*
X84115619Y-125594857D02*
X84068000Y-125547238D01*
X84020380Y-125452000D01*
X84020380Y-125213904D01*
X84068000Y-125118666D01*
X84115619Y-125071047D01*
X84210857Y-125023428D01*
X84306095Y-125023428D01*
X84448952Y-125071047D01*
X85020380Y-125642476D01*
X85020380Y-125023428D01*
X84115619Y-124642476D02*
X84068000Y-124594857D01*
X84020380Y-124499619D01*
X84020380Y-124261523D01*
X84068000Y-124166285D01*
X84115619Y-124118666D01*
X84210857Y-124071047D01*
X84306095Y-124071047D01*
X84448952Y-124118666D01*
X85020380Y-124690095D01*
X85020380Y-124071047D01*
X84353714Y-123642476D02*
X85353714Y-123642476D01*
X84401333Y-123642476D02*
X84353714Y-123547238D01*
X84353714Y-123356761D01*
X84401333Y-123261523D01*
X84448952Y-123213904D01*
X84544190Y-123166285D01*
X84829904Y-123166285D01*
X84925142Y-123213904D01*
X84972761Y-123261523D01*
X85020380Y-123356761D01*
X85020380Y-123547238D01*
X84972761Y-123642476D01*
X84496571Y-122404380D02*
X84496571Y-122737714D01*
X85020380Y-122737714D02*
X84020380Y-122737714D01*
X84020380Y-122261523D01*
X144105333Y-100179142D02*
X144057714Y-100226761D01*
X143914857Y-100274380D01*
X143819619Y-100274380D01*
X143676761Y-100226761D01*
X143581523Y-100131523D01*
X143533904Y-100036285D01*
X143486285Y-99845809D01*
X143486285Y-99702952D01*
X143533904Y-99512476D01*
X143581523Y-99417238D01*
X143676761Y-99322000D01*
X143819619Y-99274380D01*
X143914857Y-99274380D01*
X144057714Y-99322000D01*
X144105333Y-99369619D01*
X144962476Y-99607714D02*
X144962476Y-100274380D01*
X144724380Y-99226761D02*
X144486285Y-99941047D01*
X145105333Y-99941047D01*
X146010380Y-104584285D02*
X146010380Y-104489047D01*
X146058000Y-104393809D01*
X146105619Y-104346190D01*
X146200857Y-104298571D01*
X146391333Y-104250952D01*
X146629428Y-104250952D01*
X146819904Y-104298571D01*
X146915142Y-104346190D01*
X146962761Y-104393809D01*
X147010380Y-104489047D01*
X147010380Y-104584285D01*
X146962761Y-104679523D01*
X146915142Y-104727142D01*
X146819904Y-104774761D01*
X146629428Y-104822380D01*
X146391333Y-104822380D01*
X146200857Y-104774761D01*
X146105619Y-104727142D01*
X146058000Y-104679523D01*
X146010380Y-104584285D01*
X146915142Y-103822380D02*
X146962761Y-103774761D01*
X147010380Y-103822380D01*
X146962761Y-103870000D01*
X146915142Y-103822380D01*
X147010380Y-103822380D01*
X147010380Y-102822380D02*
X147010380Y-103393809D01*
X147010380Y-103108095D02*
X146010380Y-103108095D01*
X146153238Y-103203333D01*
X146248476Y-103298571D01*
X146296095Y-103393809D01*
X146343714Y-102393809D02*
X147343714Y-102393809D01*
X146867523Y-101917619D02*
X146962761Y-101870000D01*
X147010380Y-101774761D01*
X146867523Y-102393809D02*
X146962761Y-102346190D01*
X147010380Y-102250952D01*
X147010380Y-102060476D01*
X146962761Y-101965238D01*
X146867523Y-101917619D01*
X146343714Y-101917619D01*
X146486571Y-101012857D02*
X146486571Y-101346190D01*
X147010380Y-101346190D02*
X146010380Y-101346190D01*
X146010380Y-100870000D01*
X127347142Y-57423666D02*
X127394761Y-57471285D01*
X127442380Y-57614142D01*
X127442380Y-57709380D01*
X127394761Y-57852238D01*
X127299523Y-57947476D01*
X127204285Y-57995095D01*
X127013809Y-58042714D01*
X126870952Y-58042714D01*
X126680476Y-57995095D01*
X126585238Y-57947476D01*
X126490000Y-57852238D01*
X126442380Y-57709380D01*
X126442380Y-57614142D01*
X126490000Y-57471285D01*
X126537619Y-57423666D01*
X126442380Y-57090333D02*
X126442380Y-56471285D01*
X126823333Y-56804619D01*
X126823333Y-56661761D01*
X126870952Y-56566523D01*
X126918571Y-56518904D01*
X127013809Y-56471285D01*
X127251904Y-56471285D01*
X127347142Y-56518904D01*
X127394761Y-56566523D01*
X127442380Y-56661761D01*
X127442380Y-56947476D01*
X127394761Y-57042714D01*
X127347142Y-57090333D01*
X121729714Y-52792380D02*
X121824952Y-52792380D01*
X121920190Y-52840000D01*
X121967809Y-52887619D01*
X122015428Y-52982857D01*
X122063047Y-53173333D01*
X122063047Y-53411428D01*
X122015428Y-53601904D01*
X121967809Y-53697142D01*
X121920190Y-53744761D01*
X121824952Y-53792380D01*
X121729714Y-53792380D01*
X121634476Y-53744761D01*
X121586857Y-53697142D01*
X121539238Y-53601904D01*
X121491619Y-53411428D01*
X121491619Y-53173333D01*
X121539238Y-52982857D01*
X121586857Y-52887619D01*
X121634476Y-52840000D01*
X121729714Y-52792380D01*
X122491619Y-53697142D02*
X122539238Y-53744761D01*
X122491619Y-53792380D01*
X122444000Y-53744761D01*
X122491619Y-53697142D01*
X122491619Y-53792380D01*
X123491619Y-53792380D02*
X122920190Y-53792380D01*
X123205904Y-53792380D02*
X123205904Y-52792380D01*
X123110666Y-52935238D01*
X123015428Y-53030476D01*
X122920190Y-53078095D01*
X123920190Y-53125714D02*
X123920190Y-54125714D01*
X124396380Y-53649523D02*
X124444000Y-53744761D01*
X124539238Y-53792380D01*
X123920190Y-53649523D02*
X123967809Y-53744761D01*
X124063047Y-53792380D01*
X124253523Y-53792380D01*
X124348761Y-53744761D01*
X124396380Y-53649523D01*
X124396380Y-53125714D01*
X125301142Y-53268571D02*
X124967809Y-53268571D01*
X124967809Y-53792380D02*
X124967809Y-52792380D01*
X125444000Y-52792380D01*
X118457142Y-57423666D02*
X118504761Y-57471285D01*
X118552380Y-57614142D01*
X118552380Y-57709380D01*
X118504761Y-57852238D01*
X118409523Y-57947476D01*
X118314285Y-57995095D01*
X118123809Y-58042714D01*
X117980952Y-58042714D01*
X117790476Y-57995095D01*
X117695238Y-57947476D01*
X117600000Y-57852238D01*
X117552380Y-57709380D01*
X117552380Y-57614142D01*
X117600000Y-57471285D01*
X117647619Y-57423666D01*
X117647619Y-57042714D02*
X117600000Y-56995095D01*
X117552380Y-56899857D01*
X117552380Y-56661761D01*
X117600000Y-56566523D01*
X117647619Y-56518904D01*
X117742857Y-56471285D01*
X117838095Y-56471285D01*
X117980952Y-56518904D01*
X118552380Y-57090333D01*
X118552380Y-56471285D01*
X113633333Y-53792380D02*
X113061904Y-53792380D01*
X113347619Y-53792380D02*
X113347619Y-52792380D01*
X113252380Y-52935238D01*
X113157142Y-53030476D01*
X113061904Y-53078095D01*
X114061904Y-53125714D02*
X114061904Y-54125714D01*
X114538095Y-53649523D02*
X114585714Y-53744761D01*
X114680952Y-53792380D01*
X114061904Y-53649523D02*
X114109523Y-53744761D01*
X114204761Y-53792380D01*
X114395238Y-53792380D01*
X114490476Y-53744761D01*
X114538095Y-53649523D01*
X114538095Y-53125714D01*
X115442857Y-53268571D02*
X115109523Y-53268571D01*
X115109523Y-53792380D02*
X115109523Y-52792380D01*
X115585714Y-52792380D01*
X97369333Y-98655142D02*
X97321714Y-98702761D01*
X97178857Y-98750380D01*
X97083619Y-98750380D01*
X96940761Y-98702761D01*
X96845523Y-98607523D01*
X96797904Y-98512285D01*
X96750285Y-98321809D01*
X96750285Y-98178952D01*
X96797904Y-97988476D01*
X96845523Y-97893238D01*
X96940761Y-97798000D01*
X97083619Y-97750380D01*
X97178857Y-97750380D01*
X97321714Y-97798000D01*
X97369333Y-97845619D01*
X98321714Y-98750380D02*
X97750285Y-98750380D01*
X98036000Y-98750380D02*
X98036000Y-97750380D01*
X97940761Y-97893238D01*
X97845523Y-97988476D01*
X97750285Y-98036095D01*
D10*
X95821714Y-90892380D02*
X95916952Y-90892380D01*
X96012190Y-90940000D01*
X96059809Y-90987619D01*
X96107428Y-91082857D01*
X96155047Y-91273333D01*
X96155047Y-91511428D01*
X96107428Y-91701904D01*
X96059809Y-91797142D01*
X96012190Y-91844761D01*
X95916952Y-91892380D01*
X95821714Y-91892380D01*
X95726476Y-91844761D01*
X95678857Y-91797142D01*
X95631238Y-91701904D01*
X95583619Y-91511428D01*
X95583619Y-91273333D01*
X95631238Y-91082857D01*
X95678857Y-90987619D01*
X95726476Y-90940000D01*
X95821714Y-90892380D01*
X96583619Y-91797142D02*
X96631238Y-91844761D01*
X96583619Y-91892380D01*
X96536000Y-91844761D01*
X96583619Y-91797142D01*
X96583619Y-91892380D01*
X97583619Y-91892380D02*
X97012190Y-91892380D01*
X97297904Y-91892380D02*
X97297904Y-90892380D01*
X97202666Y-91035238D01*
X97107428Y-91130476D01*
X97012190Y-91178095D01*
X98012190Y-91225714D02*
X98012190Y-92225714D01*
X98488380Y-91749523D02*
X98536000Y-91844761D01*
X98631238Y-91892380D01*
X98012190Y-91749523D02*
X98059809Y-91844761D01*
X98155047Y-91892380D01*
X98345523Y-91892380D01*
X98440761Y-91844761D01*
X98488380Y-91749523D01*
X98488380Y-91225714D01*
X99393142Y-91368571D02*
X99059809Y-91368571D01*
X99059809Y-91892380D02*
X99059809Y-90892380D01*
X99536000Y-90892380D01*
M02*
